  0
SECTION
  2
HEADER
  9
$ACADVER
  1
AC1009
  9
$MEASUREMENT
  70
0
  9
$INSUNITS
  70
1
  9
$DIMTXT
  40
1.0
  9
$DIMASZ
  40
0.8
  9
$EXTMIN
  10
0.000000
  20
0.000000
  9
$EXTMAX
  10
240.000000
  20
151.000000
  9
$TEXTSTYLE
  7
STANDARD
  0
ENDSEC
  0
SECTION
  2
TABLES
  0
TABLE
  2
LTYPE
  0
LTYPE
  2
CONTINUOUS
  70
0
  3
Solid line
  72
65
  73
0
  40
0
  0
LTYPE
  2
DASHED
  70
0
  3
__ __ __ __ __ __ __ __ __ __ __ __ __ __ __
  72
65
  73
2
  40
0.15
  49
0.1
  49
-0.05
  0
LTYPE
  2
DOT
  70
0
  3
...............................................
  72
65
  73
2
  40
0.1
  49
0
  49
-0.05
  0
ENDTAB
  0
TABLE
  2
LAYER
  70
0
  0
LAYER
  2
XTRKCAD1
  6
CONTINUOUS
  62
7
  70
0
  0
LAYER
  2
XTRKCAD2
  6
CONTINUOUS
  62
7
  70
0
  0
LAYER
  2
XTRKCAD3
  6
CONTINUOUS
  62
7
  70
0
  0
LAYER
  2
XTRKCAD4
  6
CONTINUOUS
  62
7
  70
0
  0
LAYER
  2
XTRKCAD5
  6
CONTINUOUS
  62
7
  70
0
  0
LAYER
  2
XTRKCAD6
  6
CONTINUOUS
  62
7
  70
0
  0
LAYER
  2
XTRKCAD7
  6
CONTINUOUS
  62
7
  70
0
  0
LAYER
  2
XTRKCAD8
  6
CONTINUOUS
  62
7
  70
0
  0
LAYER
  2
XTRKCAD9
  6
CONTINUOUS
  62
7
  70
0
  0
LAYER
  2
XTRKCAD10
  6
CONTINUOUS
  62
7
  70
0
  0
ENDTAB
  0
ENDSEC
  0
SECTION
  2
ENTITIES
  0
LINE
  8
XTRKCAD3
  10
83.375486
  20
12.617831
  11
119.624874
  21
12.589345
  6
DASHED
  0
LINE
  8
XTRKCAD3
  10
83.375741
  20
12.942631
  11
119.625129
  21
12.914145
  6
CONTINUOUS
  0
LINE
  8
XTRKCAD3
  10
83.375231
  20
12.293031
  11
119.624619
  21
12.264545
  6
CONTINUOUS
  0
LINE
  8
XTRKCAD3
  10
183.348358
  20
24.795982
  11
206.780953
  21
24.795982
  6
DASHED
  0
LINE
  8
XTRKCAD3
  10
183.348358
  20
25.120782
  11
206.780953
  21
25.120782
  6
CONTINUOUS
  0
LINE
  8
XTRKCAD3
  10
183.348358
  20
24.471182
  11
206.780953
  21
24.471182
  6
CONTINUOUS
  0
LINE
  8
XTRKCAD3
  10
206.780953
  20
24.146382
  11
206.780953
  21
25.445582
  6
CONTINUOUS
  0
LINE
  8
XTRKCAD3
  10
206.580953
  20
24.146382
  11
206.580953
  21
25.445582
  6
CONTINUOUS
  0
LINE
  8
XTRKCAD3
  10
83.312347
  20
15.367483
  11
120.187766
  21
15.338506
  6
DASHED
  0
LINE
  8
XTRKCAD3
  10
83.312602
  20
15.692283
  11
120.188021
  21
15.663306
  6
CONTINUOUS
  0
LINE
  8
XTRKCAD3
  10
83.312092
  20
15.042683
  11
120.187511
  21
15.013706
  6
CONTINUOUS
  0
ARC
  10
198.020093
  20
18.262612
  40
27.531367
  50
85.650483
  51
102.231139
  8
XTRKCAD17
  6
DASHED
  0
ARC
  10
198.020093
  20
18.262612
  40
27.856167
  50
85.650483
  51
102.231139
  8
XTRKCAD17
  6
CONTINUOUS
  0
ARC
  10
198.020093
  20
18.262612
  40
27.206567
  50
85.650483
  51
102.231139
  8
XTRKCAD17
  6
CONTINUOUS
  0
ARC
  10
198.169691
  20
21.467769
  40
24.324277
  50
79.179226
  51
85.429270
  8
XTRKCAD17
  6
DASHED
  0
ARC
  10
198.169691
  20
21.467769
  40
24.649077
  50
79.179226
  51
85.429270
  8
XTRKCAD17
  6
CONTINUOUS
  0
ARC
  10
198.169691
  20
21.467769
  40
23.999477
  50
79.179226
  51
85.429270
  8
XTRKCAD17
  6
CONTINUOUS
  0
ARC
  10
198.452205
  20
22.840904
  40
22.922527
  50
65.954549
  51
79.228472
  8
XTRKCAD17
  6
DASHED
  0
ARC
  10
198.452205
  20
22.840904
  40
23.247327
  50
65.954549
  51
79.228472
  8
XTRKCAD17
  6
CONTINUOUS
  0
ARC
  10
198.452205
  20
22.840904
  40
22.597727
  50
65.954549
  51
79.228472
  8
XTRKCAD17
  6
CONTINUOUS
  0
ARC
  10
199.075485
  20
24.269416
  40
21.364019
  50
51.677801
  51
65.920034
  8
XTRKCAD17
  6
DASHED
  0
ARC
  10
199.075485
  20
24.269416
  40
21.688819
  50
51.677801
  51
65.920034
  8
XTRKCAD17
  6
CONTINUOUS
  0
ARC
  10
199.075485
  20
24.269416
  40
21.039219
  50
51.677801
  51
65.920034
  8
XTRKCAD17
  6
CONTINUOUS
  0
ARC
  10
199.720971
  20
25.108766
  40
20.305269
  50
36.653308
  51
51.638130
  8
XTRKCAD17
  6
DASHED
  0
ARC
  10
199.720971
  20
25.108766
  40
20.630069
  50
36.653308
  51
51.638130
  8
XTRKCAD17
  6
CONTINUOUS
  0
ARC
  10
199.720971
  20
25.108766
  40
19.980469
  50
36.653308
  51
51.638130
  8
XTRKCAD17
  6
CONTINUOUS
  0
ARC
  10
200.232377
  20
25.508199
  40
19.656543
  50
21.129788
  51
36.609135
  8
XTRKCAD17
  6
DASHED
  0
ARC
  10
200.232377
  20
25.508199
  40
19.981343
  50
21.129788
  51
36.609135
  8
XTRKCAD17
  6
CONTINUOUS
  0
ARC
  10
200.232377
  20
25.508199
  40
19.331743
  50
21.129788
  51
36.609135
  8
XTRKCAD17
  6
CONTINUOUS
  0
ARC
  10
200.488200
  20
25.624352
  40
19.376055
  50
5.378693
  51
21.082107
  8
XTRKCAD17
  6
DASHED
  0
ARC
  10
200.488200
  20
25.624352
  40
19.700855
  50
5.378693
  51
21.082107
  8
XTRKCAD17
  6
CONTINUOUS
  0
ARC
  10
200.488200
  20
25.624352
  40
19.051255
  50
5.378693
  51
21.082107
  8
XTRKCAD17
  6
CONTINUOUS
  0
ARC
  10
200.401621
  20
25.633236
  40
19.461427
  50
349.694232
  51
365.328760
  8
XTRKCAD17
  6
DASHED
  0
ARC
  10
200.401621
  20
25.633236
  40
19.786227
  50
349.694232
  51
365.328760
  8
XTRKCAD17
  6
CONTINUOUS
  0
ARC
  10
200.401621
  20
25.633236
  40
19.136627
  50
349.694232
  51
365.328760
  8
XTRKCAD17
  6
CONTINUOUS
  0
ARC
  10
199.922033
  20
25.738418
  40
19.952103
  50
334.393400
  51
349.643444
  8
XTRKCAD17
  6
DASHED
  0
ARC
  10
199.922033
  20
25.738418
  40
20.276903
  50
334.393400
  51
349.643444
  8
XTRKCAD17
  6
CONTINUOUS
  0
ARC
  10
199.922033
  20
25.738418
  40
19.627303
  50
334.393400
  51
349.643444
  8
XTRKCAD17
  6
CONTINUOUS
  0
ARC
  10
199.034606
  20
26.184107
  40
20.945001
  50
319.815988
  51
334.343125
  8
XTRKCAD17
  6
DASHED
  0
ARC
  10
199.034606
  20
26.184107
  40
21.269801
  50
319.815988
  51
334.343125
  8
XTRKCAD17
  6
CONTINUOUS
  0
ARC
  10
199.034606
  20
26.184107
  40
20.620201
  50
319.815988
  51
334.343125
  8
XTRKCAD17
  6
CONTINUOUS
  0
ARC
  10
197.756217
  20
27.288955
  40
22.634564
  50
306.324597
  51
319.767376
  8
XTRKCAD17
  6
DASHED
  0
ARC
  10
197.756217
  20
27.288955
  40
22.959364
  50
306.324597
  51
319.767376
  8
XTRKCAD17
  6
CONTINUOUS
  0
ARC
  10
197.756217
  20
27.288955
  40
22.309764
  50
306.324597
  51
319.767376
  8
XTRKCAD17
  6
CONTINUOUS
  0
ARC
  10
196.127748
  20
29.538455
  40
25.411575
  50
294.304628
  51
306.278384
  8
XTRKCAD17
  6
DASHED
  0
ARC
  10
196.127748
  20
29.538455
  40
25.736375
  50
294.304628
  51
306.278384
  8
XTRKCAD17
  6
CONTINUOUS
  0
ARC
  10
196.127748
  20
29.538455
  40
25.086775
  50
294.304628
  51
306.278384
  8
XTRKCAD17
  6
CONTINUOUS
  0
ARC
  10
193.580848
  20
35.605160
  40
31.989345
  50
279.726920
  51
293.989727
  8
XTRKCAD17
  6
DASHED
  0
ARC
  10
193.580848
  20
35.605160
  40
32.314145
  50
279.726920
  51
293.989727
  8
XTRKCAD17
  6
CONTINUOUS
  0
ARC
  10
193.580848
  20
35.605160
  40
31.664545
  50
279.726920
  51
293.989727
  8
XTRKCAD17
  6
CONTINUOUS
  0
ARC
  10
191.598914
  20
45.436988
  40
42.015701
  50
276.501629
  51
280.125566
  8
XTRKCAD17
  6
DASHED
  0
ARC
  10
191.598914
  20
45.436988
  40
42.340501
  50
276.501629
  51
280.125566
  8
XTRKCAD17
  6
CONTINUOUS
  0
ARC
  10
191.598914
  20
45.436988
  40
41.690901
  50
276.501629
  51
280.125566
  8
XTRKCAD17
  6
CONTINUOUS
  0
ARC
  10
189.744391
  20
63.829061
  40
60.499954
  50
271.247231
  51
276.274372
  8
XTRKCAD17
  6
DASHED
  0
ARC
  10
189.744391
  20
63.829061
  40
60.824754
  50
271.247231
  51
276.274372
  8
XTRKCAD17
  6
CONTINUOUS
  0
ARC
  10
189.744391
  20
63.829061
  40
60.175154
  50
271.247231
  51
276.274372
  8
XTRKCAD17
  6
CONTINUOUS
  0
ARC
  10
187.343250
  20
173.866784
  40
170.563873
  50
269.464401
  51
271.249054
  8
XTRKCAD17
  6
DASHED
  0
ARC
  10
187.343250
  20
173.866784
  40
170.888673
  50
269.464401
  51
271.249054
  8
XTRKCAD17
  6
CONTINUOUS
  0
ARC
  10
187.343250
  20
173.866784
  40
170.239073
  50
269.464401
  51
271.249054
  8
XTRKCAD17
  6
CONTINUOUS
  0
ARC
  10
241.316497
  20
-73.260352
  40
129.202616
  50
118.251904
  51
121.691226
  8
XTRKCAD3
  6
DASHED
  0
ARC
  10
241.316497
  20
-73.260352
  40
129.527416
  50
118.251904
  51
121.691226
  8
XTRKCAD3
  6
CONTINUOUS
  0
ARC
  10
241.316497
  20
-73.260352
  40
128.877816
  50
118.251904
  51
121.691226
  8
XTRKCAD3
  6
CONTINUOUS
  0
ARC
  10
210.356227
  20
-16.555307
  40
64.598984
  50
115.577675
  51
117.869756
  8
XTRKCAD3
  6
DASHED
  0
ARC
  10
210.356227
  20
-16.555307
  40
64.923784
  50
115.577675
  51
117.869756
  8
XTRKCAD3
  6
CONTINUOUS
  0
ARC
  10
210.356227
  20
-16.555307
  40
64.274184
  50
115.577675
  51
117.869756
  8
XTRKCAD3
  6
CONTINUOUS
  0
ARC
  10
203.571683
  20
-1.619286
  40
48.198681
  50
106.746686
  51
115.968451
  8
XTRKCAD3
  6
DASHED
  0
ARC
  10
203.571683
  20
-1.619286
  40
48.523481
  50
106.746686
  51
115.968451
  8
XTRKCAD3
  6
CONTINUOUS
  0
ARC
  10
203.571683
  20
-1.619286
  40
47.873881
  50
106.746686
  51
115.968451
  8
XTRKCAD3
  6
CONTINUOUS
  0
ARC
  10
199.417398
  20
11.348274
  40
34.584926
  50
102.066705
  51
106.346416
  8
XTRKCAD3
  6
DASHED
  0
ARC
  10
199.417398
  20
11.348274
  40
34.909726
  50
102.066705
  51
106.346416
  8
XTRKCAD3
  6
CONTINUOUS
  0
ARC
  10
199.417398
  20
11.348274
  40
34.260126
  50
102.066705
  51
106.346416
  8
XTRKCAD3
  6
CONTINUOUS
  0
LINE
  8
XTRKCAD3
  10
17.247844
  20
78.573986
  11
25.486634
  21
90.792408
  6
DASHED
  0
LINE
  8
XTRKCAD3
  10
16.978546
  20
78.755572
  11
25.217336
  21
90.973994
  6
CONTINUOUS
  0
LINE
  8
XTRKCAD3
  10
17.517142
  20
78.392400
  11
25.755932
  21
90.610822
  6
CONTINUOUS
  0
LINE
  8
XTRKCAD3
  10
26.025231
  20
90.429236
  11
24.948037
  21
91.155580
  6
CONTINUOUS
  0
LINE
  8
XTRKCAD3
  10
25.913417
  20
90.263412
  11
24.836223
  21
90.989756
  6
CONTINUOUS
  0
ARC
  10
-25.969138
  20
86.725744
  40
76.265741
  50
349.098916
  51
352.655121
  8
XTRKCAD17
  6
DASHED
  0
ARC
  10
-25.969138
  20
86.725744
  40
76.590541
  50
349.098916
  51
352.655121
  8
XTRKCAD17
  6
CONTINUOUS
  0
ARC
  10
-25.969138
  20
86.725744
  40
75.940941
  50
349.098916
  51
352.655121
  8
XTRKCAD17
  6
CONTINUOUS
  0
ARC
  10
19.266621
  20
78.008656
  40
30.197732
  50
340.150169
  51
349.108542
  8
XTRKCAD17
  6
DASHED
  0
ARC
  10
19.266621
  20
78.008656
  40
30.522532
  50
340.150169
  51
349.108542
  8
XTRKCAD17
  6
CONTINUOUS
  0
ARC
  10
19.266621
  20
78.008656
  40
29.872932
  50
340.150169
  51
349.108542
  8
XTRKCAD17
  6
CONTINUOUS
  0
ARC
  10
22.934905
  20
76.965305
  40
26.394443
  50
329.313055
  51
339.576588
  8
XTRKCAD17
  6
DASHED
  0
ARC
  10
22.934905
  20
76.965305
  40
26.719243
  50
329.313055
  51
339.576588
  8
XTRKCAD17
  6
CONTINUOUS
  0
ARC
  10
22.934905
  20
76.965305
  40
26.069643
  50
329.313055
  51
339.576588
  8
XTRKCAD17
  6
CONTINUOUS
  0
ARC
  10
1.181676
  20
90.536455
  40
52.030643
  50
323.479870
  51
328.686389
  8
XTRKCAD17
  6
DASHED
  0
ARC
  10
1.181676
  20
90.536455
  40
52.355443
  50
323.479870
  51
328.686389
  8
XTRKCAD17
  6
CONTINUOUS
  0
ARC
  10
1.181676
  20
90.536455
  40
51.705843
  50
323.479870
  51
328.686389
  8
XTRKCAD17
  6
CONTINUOUS
  0
LINE
  8
XTRKCAD3
  10
16.718759
  20
52.031447
  11
16.654214
  21
72.756709
  6
DASHED
  0
LINE
  8
XTRKCAD3
  10
16.393961
  20
52.030435
  11
16.329416
  21
72.755697
  6
CONTINUOUS
  0
LINE
  8
XTRKCAD3
  10
17.043557
  20
52.032459
  11
16.979012
  21
72.757721
  6
CONTINUOUS
  0
LINE
  8
XTRKCAD3
  10
17.303811
  20
72.758732
  11
16.004617
  21
72.754686
  6
CONTINUOUS
  0
LINE
  8
XTRKCAD3
  10
17.304434
  20
72.558733
  11
16.005240
  21
72.554687
  6
CONTINUOUS
  0
LINE
  8
XTRKCAD3
  10
158.014731
  20
26.279414
  11
161.703853
  21
29.164006
  6
DASHED
  0
LINE
  8
XTRKCAD3
  10
157.814664
  20
26.535281
  11
161.503786
  21
29.419873
  6
CONTINUOUS
  0
LINE
  8
XTRKCAD3
  10
158.214798
  20
26.023547
  11
161.903920
  21
28.908139
  6
CONTINUOUS
  0
ARC
  10
117.265268
  20
85.730603
  40
79.143641
  50
269.410459
  51
272.182688
  8
XTRKCAD17
  6
DASHED
  0
ARC
  10
117.265268
  20
85.730603
  40
79.468441
  50
269.410459
  51
272.182688
  8
XTRKCAD17
  6
CONTINUOUS
  0
ARC
  10
117.265268
  20
85.730603
  40
78.818841
  50
269.410459
  51
272.182688
  8
XTRKCAD17
  6
CONTINUOUS
  0
ARC
  10
118.969309
  20
41.073422
  40
34.453961
  50
272.179369
  51
278.539490
  8
XTRKCAD17
  6
DASHED
  0
ARC
  10
118.969309
  20
41.073422
  40
34.778761
  50
272.179369
  51
278.539490
  8
XTRKCAD17
  6
CONTINUOUS
  0
ARC
  10
118.969309
  20
41.073422
  40
34.129161
  50
272.179369
  51
278.539490
  8
XTRKCAD17
  6
CONTINUOUS
  0
ARC
  10
119.688519
  20
35.286555
  40
28.624835
  50
278.835852
  51
294.156574
  8
XTRKCAD17
  6
DASHED
  0
ARC
  10
119.688519
  20
35.286555
  40
28.949635
  50
278.835852
  51
294.156574
  8
XTRKCAD17
  6
CONTINUOUS
  0
ARC
  10
119.688519
  20
35.286555
  40
28.300035
  50
278.835852
  51
294.156574
  8
XTRKCAD17
  6
CONTINUOUS
  0
LINE
  8
XTRKCAD3
  10
169.375000
  20
7.281250
  11
186.000000
  21
7.281250
  6
DASHED
  0
LINE
  8
XTRKCAD3
  10
169.375000
  20
7.606050
  11
186.000000
  21
7.606050
  6
CONTINUOUS
  0
LINE
  8
XTRKCAD3
  10
169.375000
  20
6.956450
  11
186.000000
  21
6.956450
  6
CONTINUOUS
  0
LINE
  8
XTRKCAD3
  10
186.000000
  20
6.631650
  11
186.000000
  21
7.930850
  6
CONTINUOUS
  0
LINE
  8
XTRKCAD3
  10
185.800000
  20
6.631650
  11
185.800000
  21
7.930850
  6
CONTINUOUS
  0
LINE
  8
XTRKCAD3
  10
100.811343
  20
22.844827
  11
121.940762
  21
22.839913
  6
DASHED
  0
LINE
  8
XTRKCAD3
  10
100.811419
  20
23.169627
  11
121.940838
  21
23.164713
  6
CONTINUOUS
  0
LINE
  8
XTRKCAD3
  10
100.811267
  20
22.520027
  11
121.940686
  21
22.515113
  6
CONTINUOUS
  0
LINE
  8
XTRKCAD3
  10
120.875075
  20
18.096053
  11
89.562546
  21
18.120659
  6
DASHED
  0
LINE
  8
XTRKCAD3
  10
120.874820
  20
17.771253
  11
89.562291
  21
17.795859
  6
CONTINUOUS
  0
LINE
  8
XTRKCAD3
  10
120.875330
  20
18.420853
  11
89.562801
  21
18.445459
  6
CONTINUOUS
  0
LINE
  8
XTRKCAD3
  10
97.249000
  20
4.592450
  11
102.553780
  21
5.260790
  6
DASHED
  0
LINE
  8
XTRKCAD3
  10
97.208400
  20
4.914703
  11
102.513180
  21
5.583043
  6
CONTINUOUS
  0
LINE
  8
XTRKCAD3
  10
97.289600
  20
4.270197
  11
102.594380
  21
4.938537
  6
CONTINUOUS
  0
LINE
  8
XTRKCAD3
  10
73.625000
  20
3.281250
  11
83.377454
  21
3.281250
  6
DASHED
  0
LINE
  8
XTRKCAD3
  10
73.625000
  20
3.606050
  11
83.377454
  21
3.606050
  6
CONTINUOUS
  0
LINE
  8
XTRKCAD3
  10
73.625000
  20
2.956450
  11
83.377454
  21
2.956450
  6
CONTINUOUS
  0
LINE
  8
XTRKCAD17
  10
97.249000
  20
3.281250
  11
132.359389
  21
3.281250
  6
DASHED
  0
LINE
  8
XTRKCAD17
  10
97.249000
  20
3.606050
  11
132.359389
  21
3.606050
  6
CONTINUOUS
  0
LINE
  8
XTRKCAD17
  10
97.249000
  20
2.956450
  11
132.359389
  21
2.956450
  6
CONTINUOUS
  0
ARC
  10
112.262167
  20
50.594766
  40
45.634478
  50
294.798703
  51
300.866777
  8
XTRKCAD17
  6
DASHED
  0
ARC
  10
112.262167
  20
50.594766
  40
45.959278
  50
294.798703
  51
300.866777
  8
XTRKCAD17
  6
CONTINUOUS
  0
ARC
  10
112.262167
  20
50.594766
  40
45.309678
  50
294.798703
  51
300.866777
  8
XTRKCAD17
  6
CONTINUOUS
  0
LINE
  8
XTRKCAD17
  10
135.674644
  20
11.423839
  11
137.063437
  21
12.242080
  6
DASHED
  0
LINE
  8
XTRKCAD17
  10
135.509769
  20
11.703681
  11
136.898562
  21
12.521921
  6
CONTINUOUS
  0
LINE
  8
XTRKCAD17
  10
135.839520
  20
11.143998
  11
137.228312
  21
11.962239
  6
CONTINUOUS
  0
LINE
  8
XTRKCAD3
  10
102.588917
  20
6.662232
  11
88.084037
  21
6.669192
  6
DASHED
  0
LINE
  8
XTRKCAD3
  10
102.588761
  20
6.337432
  11
88.083881
  21
6.344392
  6
CONTINUOUS
  0
LINE
  8
XTRKCAD3
  10
102.589073
  20
6.987032
  11
88.084193
  21
6.993992
  6
CONTINUOUS
  0
ARC
  10
89.783896
  20
437.723163
  40
431.057323
  50
269.131415
  51
269.774056
  8
XTRKCAD3
  6
DASHED
  0
ARC
  10
89.783896
  20
437.723163
  40
431.382123
  50
269.131415
  51
269.774056
  8
XTRKCAD3
  6
CONTINUOUS
  0
ARC
  10
89.783896
  20
437.723163
  40
430.732523
  50
269.131415
  51
269.774056
  8
XTRKCAD3
  6
CONTINUOUS
  0
LINE
  8
XTRKCAD3
  10
68.562553
  20
12.629471
  11
83.375486
  21
12.617831
  6
DASHED
  0
LINE
  8
XTRKCAD3
  10
68.562808
  20
12.954271
  11
83.375741
  21
12.942631
  6
CONTINUOUS
  0
LINE
  8
XTRKCAD3
  10
68.562298
  20
12.304671
  11
83.375231
  21
12.293031
  6
CONTINUOUS
  0
LINE
  8
XTRKCAD3
  10
68.342069
  20
15.379247
  11
83.312347
  21
15.367483
  6
DASHED
  0
LINE
  8
XTRKCAD3
  10
68.342324
  20
15.704047
  11
83.312602
  21
15.692283
  6
CONTINUOUS
  0
LINE
  8
XTRKCAD3
  10
68.341814
  20
15.054447
  11
83.312092
  21
15.042683
  6
CONTINUOUS
  0
LINE
  8
XTRKCAD17
  10
40.830280
  20
56.567154
  11
36.367776
  21
50.374044
  6
DASHED
  0
LINE
  8
XTRKCAD17
  10
41.093796
  20
56.377275
  11
36.631292
  21
50.184165
  6
CONTINUOUS
  0
LINE
  8
XTRKCAD17
  10
40.566764
  20
56.757033
  11
36.104260
  21
50.563923
  6
CONTINUOUS
  0
LINE
  8
XTRKCAD17
  10
42.995990
  20
59.572750
  11
40.830280
  21
56.567154
  6
DASHED
  0
LINE
  8
XTRKCAD17
  10
43.259506
  20
59.382871
  11
41.093796
  21
56.377275
  6
CONTINUOUS
  0
LINE
  8
XTRKCAD17
  10
42.732474
  20
59.762629
  11
40.566764
  21
56.757033
  6
CONTINUOUS
  0
LINE
  8
XTRKCAD3
  10
48.481498
  20
6.503036
  11
47.843450
  21
6.625001
  6
DASHED
  0
LINE
  8
XTRKCAD3
  10
48.420515
  20
6.184012
  11
47.782468
  21
6.305977
  6
CONTINUOUS
  0
LINE
  8
XTRKCAD3
  10
48.542481
  20
6.822060
  11
47.904433
  21
6.944025
  6
CONTINUOUS
  0
ARC
  10
51.514708
  20
25.830813
  40
19.553551
  50
220.247044
  51
259.178259
  8
XTRKCAD3
  6
DASHED
  0
ARC
  10
51.514708
  20
25.830813
  40
19.878351
  50
220.247044
  51
259.178259
  8
XTRKCAD3
  6
CONTINUOUS
  0
ARC
  10
51.514708
  20
25.830813
  40
19.228751
  50
220.247044
  51
259.178259
  8
XTRKCAD3
  6
CONTINUOUS
  0
LINE
  8
XTRKCAD3
  10
36.590152
  20
13.197565
  11
35.644963
  21
14.314184
  6
DASHED
  0
LINE
  8
XTRKCAD3
  10
36.342243
  20
12.987717
  11
35.397054
  21
14.104336
  6
CONTINUOUS
  0
LINE
  8
XTRKCAD3
  10
36.838061
  20
13.407413
  11
35.892871
  21
14.524032
  6
CONTINUOUS
  0
ARC
  10
52.670004
  20
31.874626
  40
25.706793
  50
227.546052
  51
259.178259
  8
XTRKCAD3
  6
DASHED
  0
ARC
  10
52.670004
  20
31.874626
  40
26.031593
  50
227.546052
  51
259.178259
  8
XTRKCAD3
  6
CONTINUOUS
  0
ARC
  10
52.670004
  20
31.874626
  40
25.381993
  50
227.546052
  51
259.178259
  8
XTRKCAD3
  6
CONTINUOUS
  0
LINE
  8
XTRKCAD3
  10
35.317986
  20
12.907637
  11
34.838686
  21
13.346127
  6
DASHED
  0
LINE
  8
XTRKCAD3
  10
35.098747
  20
12.667994
  11
34.619447
  21
13.106483
  6
CONTINUOUS
  0
LINE
  8
XTRKCAD3
  10
35.537225
  20
13.147281
  11
35.057925
  21
13.585771
  6
CONTINUOUS
  0
ARC
  10
82.324235
  20
180.383635
  40
177.143426
  50
258.986102
  51
262.682789
  8
XTRKCAD3
  6
DASHED
  0
ARC
  10
82.324235
  20
180.383635
  40
177.468226
  50
258.986102
  51
262.682789
  8
XTRKCAD3
  6
CONTINUOUS
  0
ARC
  10
82.324235
  20
180.383635
  40
176.818626
  50
258.986102
  51
262.682789
  8
XTRKCAD3
  6
CONTINUOUS
  0
ARC
  10
84.982616
  20
57.097288
  40
65.303889
  50
216.512595
  51
220.930166
  8
XTRKCAD3
  6
DASHED
  0
ARC
  10
84.982616
  20
57.097288
  40
65.628689
  50
216.512595
  51
220.930166
  8
XTRKCAD3
  6
CONTINUOUS
  0
ARC
  10
84.982616
  20
57.097288
  40
64.979089
  50
216.512595
  51
220.930166
  8
XTRKCAD3
  6
CONTINUOUS
  0
ARC
  10
53.973043
  20
33.971023
  40
26.620921
  50
205.382040
  51
216.218800
  8
XTRKCAD3
  6
DASHED
  0
ARC
  10
53.973043
  20
33.971023
  40
26.945721
  50
205.382040
  51
216.218800
  8
XTRKCAD3
  6
CONTINUOUS
  0
ARC
  10
53.973043
  20
33.971023
  40
26.296121
  50
205.382040
  51
216.218800
  8
XTRKCAD3
  6
CONTINUOUS
  0
ARC
  10
48.495883
  20
31.271162
  40
20.515376
  50
191.064789
  51
205.126644
  8
XTRKCAD3
  6
DASHED
  0
ARC
  10
48.495883
  20
31.271162
  40
20.840176
  50
191.064789
  51
205.126644
  8
XTRKCAD3
  6
CONTINUOUS
  0
ARC
  10
48.495883
  20
31.271162
  40
20.190576
  50
191.064789
  51
205.126644
  8
XTRKCAD3
  6
CONTINUOUS
  0
ARC
  10
47.680561
  20
31.036732
  40
19.670357
  50
176.184445
  51
190.850417
  8
XTRKCAD3
  6
DASHED
  0
ARC
  10
47.680561
  20
31.036732
  40
19.995157
  50
176.184445
  51
190.850417
  8
XTRKCAD3
  6
CONTINUOUS
  0
ARC
  10
47.680561
  20
31.036732
  40
19.345557
  50
176.184445
  51
190.850417
  8
XTRKCAD3
  6
CONTINUOUS
  0
ARC
  10
49.833188
  20
30.829835
  40
21.832072
  50
162.804712
  51
176.018603
  8
XTRKCAD3
  6
DASHED
  0
ARC
  10
49.833188
  20
30.829835
  40
22.156872
  50
162.804712
  51
176.018603
  8
XTRKCAD3
  6
CONTINUOUS
  0
ARC
  10
49.833188
  20
30.829835
  40
21.507272
  50
162.804712
  51
176.018603
  8
XTRKCAD3
  6
CONTINUOUS
  0
ARC
  10
55.809761
  20
28.922688
  40
28.105371
  50
152.427957
  51
162.692483
  8
XTRKCAD3
  6
DASHED
  0
ARC
  10
55.809761
  20
28.922688
  40
28.430171
  50
152.427957
  51
162.692483
  8
XTRKCAD3
  6
CONTINUOUS
  0
ARC
  10
55.809761
  20
28.922688
  40
27.780571
  50
152.427957
  51
162.692483
  8
XTRKCAD3
  6
CONTINUOUS
  0
ARC
  10
70.953801
  20
20.958858
  40
45.215689
  50
145.989024
  51
152.364916
  8
XTRKCAD3
  6
DASHED
  0
ARC
  10
70.953801
  20
20.958858
  40
45.540489
  50
145.989024
  51
152.364916
  8
XTRKCAD3
  6
CONTINUOUS
  0
ARC
  10
70.953801
  20
20.958858
  40
44.890889
  50
145.989024
  51
152.364916
  8
XTRKCAD3
  6
CONTINUOUS
  0
ARC
  10
146.385269
  20
-29.930408
  40
136.208126
  50
143.873382
  51
145.992835
  8
XTRKCAD3
  6
DASHED
  0
ARC
  10
146.385269
  20
-29.930408
  40
136.532926
  50
143.873382
  51
145.992835
  8
XTRKCAD3
  6
CONTINUOUS
  0
ARC
  10
146.385269
  20
-29.930408
  40
135.883326
  50
143.873382
  51
145.992835
  8
XTRKCAD3
  6
CONTINUOUS
  0
LINE
  8
XTRKCAD17
  10
34.838687
  20
13.346127
  11
25.054145
  21
22.297550
  6
DASHED
  0
LINE
  8
XTRKCAD17
  10
34.619448
  20
13.106483
  11
24.834906
  21
22.057906
  6
CONTINUOUS
  0
LINE
  8
XTRKCAD17
  10
35.057926
  20
13.585771
  11
25.273384
  21
22.537194
  6
CONTINUOUS
  0
ARC
  10
61.607219
  20
63.108698
  40
54.787563
  50
224.023465
  51
228.150343
  8
XTRKCAD17
  6
DASHED
  0
ARC
  10
61.607219
  20
63.108698
  40
55.112363
  50
224.023465
  51
228.150343
  8
XTRKCAD17
  6
CONTINUOUS
  0
ARC
  10
61.607219
  20
63.108698
  40
54.462763
  50
224.023465
  51
228.150343
  8
XTRKCAD17
  6
CONTINUOUS
  0
ARC
  10
40.460434
  20
42.340968
  40
25.150379
  50
220.488671
  51
223.483254
  8
XTRKCAD17
  6
DASHED
  0
ARC
  10
40.460434
  20
42.340968
  40
25.475179
  50
220.488671
  51
223.483254
  8
XTRKCAD17
  6
CONTINUOUS
  0
ARC
  10
40.460434
  20
42.340968
  40
24.825579
  50
220.488671
  51
223.483254
  8
XTRKCAD17
  6
CONTINUOUS
  0
ARC
  10
35.621919
  20
38.346307
  40
18.877082
  50
204.836315
  51
220.802999
  8
XTRKCAD17
  6
DASHED
  0
ARC
  10
35.621919
  20
38.346307
  40
19.201882
  50
204.836315
  51
220.802999
  8
XTRKCAD17
  6
CONTINUOUS
  0
ARC
  10
35.621919
  20
38.346307
  40
18.552282
  50
204.836315
  51
220.802999
  8
XTRKCAD17
  6
CONTINUOUS
  0
ARC
  10
35.358875
  20
37.953874
  40
18.475168
  50
187.760527
  51
204.074469
  8
XTRKCAD17
  6
DASHED
  0
ARC
  10
35.358875
  20
37.953874
  40
18.799968
  50
187.760527
  51
204.074469
  8
XTRKCAD17
  6
CONTINUOUS
  0
ARC
  10
35.358875
  20
37.953874
  40
18.150368
  50
187.760527
  51
204.074469
  8
XTRKCAD17
  6
CONTINUOUS
  0
ARC
  10
49.323319
  20
39.681569
  40
32.545473
  50
180.509786
  51
187.454572
  8
XTRKCAD17
  6
DASHED
  0
ARC
  10
49.323319
  20
39.681569
  40
32.870273
  50
180.509786
  51
187.454572
  8
XTRKCAD17
  6
CONTINUOUS
  0
ARC
  10
49.323319
  20
39.681569
  40
32.220673
  50
180.509786
  51
187.454572
  8
XTRKCAD17
  6
CONTINUOUS
  0
LINE
  8
XTRKCAD17
  10
16.779135
  20
39.392001
  11
16.761654
  21
40.707728
  6
DASHED
  0
LINE
  8
XTRKCAD17
  10
16.454363
  20
39.387686
  11
16.436883
  21
40.703413
  6
CONTINUOUS
  0
LINE
  8
XTRKCAD17
  10
17.103906
  20
39.396316
  11
17.086425
  21
40.712043
  6
CONTINUOUS
  0
LINE
  8
XTRKCAD3
  10
19.191225
  20
60.876374
  11
19.149520
  21
74.267786
  6
DASHED
  0
LINE
  8
XTRKCAD3
  10
18.866427
  20
60.875362
  11
18.824722
  21
74.266774
  6
CONTINUOUS
  0
LINE
  8
XTRKCAD3
  10
19.516023
  20
60.877386
  11
19.474318
  21
74.268798
  6
CONTINUOUS
  0
LINE
  8
XTRKCAD3
  10
19.799117
  20
74.269809
  11
18.499923
  21
74.265763
  6
CONTINUOUS
  0
LINE
  8
XTRKCAD3
  10
19.799740
  20
74.069810
  11
18.500546
  21
74.065764
  6
CONTINUOUS
  0
ARC
  10
309.531971
  20
2.225567
  40
295.695487
  50
169.437465
  51
170.303146
  8
XTRKCAD3
  6
DASHED
  0
ARC
  10
309.531971
  20
2.225567
  40
296.020287
  50
169.437465
  51
170.303146
  8
XTRKCAD3
  6
CONTINUOUS
  0
ARC
  10
309.531971
  20
2.225567
  40
295.370687
  50
169.437465
  51
170.303146
  8
XTRKCAD3
  6
CONTINUOUS
  0
ARC
  10
-6.430763
  20
60.623037
  40
25.623240
  50
350.579576
  51
360.566493
  8
XTRKCAD3
  6
DASHED
  0
ARC
  10
-6.430763
  20
60.623037
  40
25.948040
  50
350.579576
  51
360.566493
  8
XTRKCAD3
  6
CONTINUOUS
  0
ARC
  10
-6.430763
  20
60.623037
  40
25.298440
  50
350.579576
  51
360.566493
  8
XTRKCAD3
  6
CONTINUOUS
  0
LINE
  8
XTRKCAD3
  10
47.196416
  20
91.263871
  11
47.546118
  21
90.716433
  6
DASHED
  0
LINE
  8
XTRKCAD3
  10
47.470135
  20
91.438722
  11
47.819837
  21
90.891284
  6
CONTINUOUS
  0
LINE
  8
XTRKCAD3
  10
46.922697
  20
91.089020
  11
47.272399
  21
90.541582
  6
CONTINUOUS
  0
ARC
  10
33.498899
  20
81.743114
  40
16.668677
  50
352.213771
  51
392.570311
  8
XTRKCAD3
  6
DASHED
  0
ARC
  10
33.498899
  20
81.743114
  40
16.993477
  50
352.213771
  51
392.570311
  8
XTRKCAD3
  6
CONTINUOUS
  0
ARC
  10
33.498899
  20
81.743114
  40
16.343877
  50
352.213771
  51
392.570311
  8
XTRKCAD3
  6
CONTINUOUS
  0
LINE
  8
XTRKCAD3
  10
50.013899
  20
79.484884
  11
49.670813
  21
76.975816
  6
DASHED
  0
LINE
  8
XTRKCAD3
  10
50.335704
  20
79.440881
  11
49.992619
  21
76.931813
  6
CONTINUOUS
  0
LINE
  8
XTRKCAD3
  10
49.692093
  20
79.528887
  11
49.349008
  21
77.019819
  6
CONTINUOUS
  0
ARC
  10
29.011284
  20
78.876197
  40
21.993891
  50
356.673704
  51
392.570845
  8
XTRKCAD3
  6
DASHED
  0
ARC
  10
29.011284
  20
78.876197
  40
22.318691
  50
356.673704
  51
392.570845
  8
XTRKCAD3
  6
CONTINUOUS
  0
ARC
  10
29.011284
  20
78.876197
  40
21.669091
  50
356.673704
  51
392.570845
  8
XTRKCAD3
  6
CONTINUOUS
  0
LINE
  8
XTRKCAD3
  10
50.968122
  20
77.600063
  11
50.930431
  21
76.951557
  6
DASHED
  0
LINE
  8
XTRKCAD3
  10
51.292374
  20
77.581217
  11
51.254684
  21
76.932712
  6
CONTINUOUS
  0
LINE
  8
XTRKCAD3
  10
50.643869
  20
77.618908
  11
50.606178
  21
76.970402
  6
CONTINUOUS
  0
LINE
  8
XTRKCAD3
  10
12.286413
  20
29.414320
  11
11.839380
  21
29.885639
  6
DASHED
  0
LINE
  8
XTRKCAD3
  10
12.050754
  20
29.190803
  11
11.603720
  21
29.662122
  6
CONTINUOUS
  0
LINE
  8
XTRKCAD3
  10
12.522072
  20
29.637837
  11
12.075039
  21
30.109156
  6
CONTINUOUS
  0
ARC
  10
23.933382
  20
41.356467
  40
16.668677
  50
183.128621
  51
223.485161
  8
XTRKCAD3
  6
DASHED
  0
ARC
  10
23.933382
  20
41.356467
  40
16.993477
  50
183.128621
  51
223.485161
  8
XTRKCAD3
  6
CONTINUOUS
  0
ARC
  10
23.933382
  20
41.356467
  40
16.343877
  50
183.128621
  51
223.485161
  8
XTRKCAD3
  6
CONTINUOUS
  0
LINE
  8
XTRKCAD3
  10
7.289549
  20
40.446731
  11
7.151336
  21
42.975372
  6
DASHED
  0
LINE
  8
XTRKCAD3
  10
6.965233
  20
40.429004
  11
6.827020
  21
42.957646
  6
CONTINUOUS
  0
LINE
  8
XTRKCAD3
  10
7.613865
  20
40.464458
  11
7.475652
  21
42.993099
  6
CONTINUOUS
  0
ARC
  10
27.796964
  20
45.021251
  40
21.993891
  50
187.588554
  51
223.485695
  8
XTRKCAD3
  6
DASHED
  0
ARC
  10
27.796964
  20
45.021251
  40
22.318691
  50
187.588554
  51
223.485695
  8
XTRKCAD3
  6
CONTINUOUS
  0
ARC
  10
27.796964
  20
45.021251
  40
21.669091
  50
187.588554
  51
223.485695
  8
XTRKCAD3
  6
CONTINUOUS
  0
LINE
  8
XTRKCAD3
  10
5.995698
  20
42.116773
  11
5.909912
  21
42.760684
  6
DASHED
  0
LINE
  8
XTRKCAD3
  10
5.673742
  20
42.073880
  11
5.587957
  21
42.717791
  6
CONTINUOUS
  0
LINE
  8
XTRKCAD3
  10
6.317653
  20
42.159666
  11
6.231867
  21
42.803577
  6
CONTINUOUS
  0
LINE
  8
XTRKCAD3
  10
42.334707
  20
54.068881
  11
41.959897
  21
53.538318
  6
DASHED
  0
LINE
  8
XTRKCAD3
  10
42.599989
  20
53.881476
  11
42.225179
  21
53.350913
  6
CONTINUOUS
  0
LINE
  8
XTRKCAD3
  10
42.069425
  20
54.256286
  11
41.694615
  21
53.725723
  6
CONTINUOUS
  0
ARC
  10
55.574106
  20
43.920724
  40
16.668677
  50
144.761167
  51
185.117707
  8
XTRKCAD3
  6
DASHED
  0
ARC
  10
55.574106
  20
43.920724
  40
16.993477
  50
144.761167
  51
185.117707
  8
XTRKCAD3
  6
CONTINUOUS
  0
ARC
  10
55.574106
  20
43.920724
  40
16.343877
  50
144.761167
  51
185.117707
  8
XTRKCAD3
  6
CONTINUOUS
  0
LINE
  8
XTRKCAD3
  10
38.971878
  20
42.433843
  11
39.197775
  21
39.911522
  6
DASHED
  0
LINE
  8
XTRKCAD3
  10
39.295383
  20
42.462815
  11
39.521280
  21
39.940495
  6
CONTINUOUS
  0
LINE
  8
XTRKCAD3
  10
38.648372
  20
42.404870
  11
38.874269
  21
39.882549
  6
CONTINUOUS
  0
ARC
  10
59.923378
  20
40.847983
  40
21.993891
  50
144.760633
  51
180.657774
  8
XTRKCAD3
  6
DASHED
  0
ARC
  10
59.923378
  20
40.847983
  40
22.318691
  50
144.760633
  51
180.657774
  8
XTRKCAD3
  6
CONTINUOUS
  0
ARC
  10
59.923378
  20
40.847983
  40
21.669091
  50
144.760633
  51
180.657774
  8
XTRKCAD3
  6
CONTINUOUS
  0
LINE
  8
XTRKCAD3
  10
37.930937
  20
40.595492
  11
37.938394
  21
39.945934
  6
DASHED
  0
LINE
  8
XTRKCAD3
  10
38.255715
  20
40.599220
  11
38.263172
  21
39.949663
  6
CONTINUOUS
  0
LINE
  8
XTRKCAD3
  10
37.606158
  20
40.591763
  11
37.613615
  21
39.942206
  6
CONTINUOUS
  0
LINE
  8
XTRKCAD3
  10
203.858308
  20
48.589287
  11
203.242906
  21
48.797279
  6
DASHED
  0
LINE
  8
XTRKCAD3
  10
203.754312
  20
48.281586
  11
203.138910
  21
48.489578
  6
CONTINUOUS
  0
LINE
  8
XTRKCAD3
  10
203.962304
  20
48.896988
  11
203.346902
  21
49.104980
  6
CONTINUOUS
  0
ARC
  10
197.905848
  20
33.006123
  40
16.668677
  50
71.325895
  51
111.682435
  8
XTRKCAD3
  6
DASHED
  0
ARC
  10
197.905848
  20
33.006123
  40
16.993477
  50
71.325895
  51
111.682435
  8
XTRKCAD3
  6
CONTINUOUS
  0
ARC
  10
197.905848
  20
33.006123
  40
16.343877
  50
71.325895
  51
111.682435
  8
XTRKCAD3
  6
CONTINUOUS
  0
LINE
  8
XTRKCAD3
  10
191.747407
  20
48.495423
  11
189.394170
  21
47.559791
  6
DASHED
  0
LINE
  8
XTRKCAD3
  10
191.867408
  20
48.193604
  11
189.514171
  21
47.257972
  6
CONTINUOUS
  0
LINE
  8
XTRKCAD3
  10
191.627405
  20
48.797242
  11
189.274168
  21
47.861610
  6
CONTINUOUS
  0
ARC
  10
196.200601
  20
27.961320
  40
21.993891
  50
71.325361
  51
107.222502
  8
XTRKCAD3
  6
DASHED
  0
ARC
  10
196.200601
  20
27.961320
  40
22.318691
  50
71.325361
  51
107.222502
  8
XTRKCAD3
  6
CONTINUOUS
  0
ARC
  10
196.200601
  20
27.961320
  40
21.669091
  50
71.325361
  51
107.222502
  8
XTRKCAD3
  6
CONTINUOUS
  0
LINE
  8
XTRKCAD3
  10
189.688580
  20
48.969052
  11
189.068106
  21
48.776717
  6
DASHED
  0
LINE
  8
XTRKCAD3
  10
189.784747
  20
48.658815
  11
189.164274
  21
48.466480
  6
CONTINUOUS
  0
LINE
  8
XTRKCAD3
  10
189.592412
  20
49.279289
  11
188.971939
  21
49.086954
  6
CONTINUOUS
  0
LINE
  8
XTRKCAD3
  10
39.197775
  20
39.911522
  11
39.255721
  21
39.264512
  6
DASHED
  0
LINE
  8
XTRKCAD3
  10
39.521280
  20
39.940495
  11
39.579226
  21
39.293484
  6
CONTINUOUS
  0
LINE
  8
XTRKCAD3
  10
38.874270
  20
39.882549
  11
38.932215
  21
39.235539
  6
CONTINUOUS
  0
ARC
  10
55.857949
  20
40.751393
  40
16.668677
  50
185.117707
  51
225.474247
  8
XTRKCAD3
  6
DASHED
  0
ARC
  10
55.857949
  20
40.751393
  40
16.993477
  50
185.117707
  51
225.474247
  8
XTRKCAD3
  6
CONTINUOUS
  0
ARC
  10
55.857949
  20
40.751393
  40
16.343877
  50
185.117707
  51
225.474247
  8
XTRKCAD3
  6
CONTINUOUS
  0
LINE
  8
XTRKCAD3
  10
44.169376
  20
28.867704
  11
45.974825
  21
27.091898
  6
DASHED
  0
LINE
  8
XTRKCAD3
  10
44.397135
  20
29.099265
  11
46.202584
  21
27.323460
  6
CONTINUOUS
  0
LINE
  8
XTRKCAD3
  10
43.941617
  20
28.636142
  11
45.747066
  21
26.860337
  6
CONTINUOUS
  0
ARC
  10
61.161952
  20
41.226209
  40
21.993891
  50
185.117173
  51
221.014314
  8
XTRKCAD3
  6
DASHED
  0
ARC
  10
61.161952
  20
41.226209
  40
22.318691
  50
185.117173
  51
221.014314
  8
XTRKCAD3
  6
CONTINUOUS
  0
ARC
  10
61.161952
  20
41.226209
  40
21.669091
  50
185.117173
  51
221.014314
  8
XTRKCAD3
  6
CONTINUOUS
  0
LINE
  8
XTRKCAD3
  10
44.566558
  20
26.792772
  11
44.992856
  21
26.302619
  6
DASHED
  0
LINE
  8
XTRKCAD3
  10
44.811634
  20
27.005921
  11
45.237932
  21
26.515768
  6
CONTINUOUS
  0
LINE
  8
XTRKCAD3
  10
44.321481
  20
26.579623
  11
44.747779
  21
26.089470
  6
CONTINUOUS
  0
LINE
  8
XTRKCAD3
  10
54.274109
  20
19.948459
  11
54.800035
  21
19.567169
  6
DASHED
  0
LINE
  8
XTRKCAD3
  10
54.464754
  20
20.211422
  11
54.990680
  21
19.830132
  6
CONTINUOUS
  0
LINE
  8
XTRKCAD3
  10
54.083464
  20
19.685496
  11
54.609390
  21
19.304206
  6
CONTINUOUS
  0
ARC
  10
64.583895
  20
33.062386
  40
16.668677
  50
234.058369
  51
274.414909
  8
XTRKCAD3
  6
DASHED
  0
ARC
  10
64.583895
  20
33.062386
  40
16.993477
  50
234.058369
  51
274.414909
  8
XTRKCAD3
  6
CONTINUOUS
  0
ARC
  10
64.583895
  20
33.062386
  40
16.343877
  50
234.058369
  51
274.414909
  8
XTRKCAD3
  6
CONTINUOUS
  0
LINE
  8
XTRKCAD3
  10
65.867024
  20
16.443169
  11
68.391926
  21
16.638111
  6
DASHED
  0
LINE
  8
XTRKCAD3
  10
65.842022
  20
16.767005
  11
68.366923
  21
16.961947
  6
CONTINUOUS
  0
LINE
  8
XTRKCAD3
  10
65.892027
  20
16.119333
  11
68.416928
  21
16.314275
  6
CONTINUOUS
  0
ARC
  10
67.709752
  20
37.373641
  40
21.993891
  50
234.057835
  51
269.954976
  8
XTRKCAD3
  6
DASHED
  0
ARC
  10
67.709752
  20
37.373641
  40
22.318691
  50
234.057835
  51
269.954976
  8
XTRKCAD3
  6
CONTINUOUS
  0
ARC
  10
67.709752
  20
37.373641
  40
21.669091
  50
234.057835
  51
269.954976
  8
XTRKCAD3
  6
CONTINUOUS
  0
LINE
  8
XTRKCAD3
  10
67.692469
  20
15.379758
  11
68.342069
  21
15.379247
  6
DASHED
  0
LINE
  8
XTRKCAD3
  10
67.692724
  20
15.704557
  11
68.342324
  21
15.704046
  6
CONTINUOUS
  0
LINE
  8
XTRKCAD3
  10
67.692213
  20
15.054958
  11
68.341813
  21
15.054447
  6
CONTINUOUS
  0
ARC
  10
111.772284
  20
92.677346
  40
92.901865
  50
224.907542
  51
228.288838
  8
XTRKCAD17
  6
DASHED
  0
ARC
  10
111.772284
  20
92.677346
  40
93.226665
  50
224.907542
  51
228.288838
  8
XTRKCAD17
  6
CONTINUOUS
  0
ARC
  10
111.772284
  20
92.677346
  40
92.577065
  50
224.907542
  51
228.288838
  8
XTRKCAD17
  6
CONTINUOUS
  0
ARC
  10
89.285767
  20
69.149542
  40
60.386776
  50
229.362528
  51
234.564217
  8
XTRKCAD17
  6
DASHED
  0
ARC
  10
89.285767
  20
69.149542
  40
60.711576
  50
229.362528
  51
234.564217
  8
XTRKCAD17
  6
CONTINUOUS
  0
ARC
  10
89.285767
  20
69.149542
  40
60.061976
  50
229.362528
  51
234.564217
  8
XTRKCAD17
  6
CONTINUOUS
  0
ARC
  10
87.895657
  20
423.767184
  40
417.077693
  50
268.236521
  51
269.361718
  8
XTRKCAD17
  6
DASHED
  0
ARC
  10
87.895657
  20
423.767184
  40
417.402493
  50
268.236521
  51
269.361718
  8
XTRKCAD17
  6
CONTINUOUS
  0
ARC
  10
87.895657
  20
423.767184
  40
416.752893
  50
268.236521
  51
269.361718
  8
XTRKCAD17
  6
CONTINUOUS
  0
ARC
  10
78.472621
  20
117.785706
  40
110.951153
  50
264.010690
  51
268.237762
  8
XTRKCAD17
  6
DASHED
  0
ARC
  10
78.472621
  20
117.785706
  40
111.275953
  50
264.010690
  51
268.237762
  8
XTRKCAD17
  6
CONTINUOUS
  0
ARC
  10
78.472621
  20
117.785706
  40
110.626353
  50
264.010690
  51
268.237762
  8
XTRKCAD17
  6
CONTINUOUS
  0
ARC
  10
72.115373
  20
58.723839
  40
51.548597
  50
255.087737
  51
264.188372
  8
XTRKCAD17
  6
DASHED
  0
ARC
  10
72.115373
  20
58.723839
  40
51.873397
  50
255.087737
  51
264.188372
  8
XTRKCAD17
  6
CONTINUOUS
  0
ARC
  10
72.115373
  20
58.723839
  40
51.223797
  50
255.087737
  51
264.188372
  8
XTRKCAD17
  6
CONTINUOUS
  0
ARC
  10
67.389489
  20
40.855229
  40
33.065641
  50
240.845513
  51
255.033016
  8
XTRKCAD17
  6
DASHED
  0
ARC
  10
67.389489
  20
40.855229
  40
33.390441
  50
240.845513
  51
255.033016
  8
XTRKCAD17
  6
CONTINUOUS
  0
ARC
  10
67.389489
  20
40.855229
  40
32.740841
  50
240.845513
  51
255.033016
  8
XTRKCAD17
  6
CONTINUOUS
  0
ARC
  10
64.057643
  20
34.699059
  40
26.066390
  50
222.652417
  51
240.649125
  8
XTRKCAD17
  6
DASHED
  0
ARC
  10
64.057643
  20
34.699059
  40
26.391190
  50
222.652417
  51
240.649125
  8
XTRKCAD17
  6
CONTINUOUS
  0
ARC
  10
64.057643
  20
34.699059
  40
25.741590
  50
222.652417
  51
240.649125
  8
XTRKCAD17
  6
CONTINUOUS
  0
ARC
  10
63.104765
  20
33.625451
  40
24.638568
  50
203.278246
  51
222.317567
  8
XTRKCAD17
  6
DASHED
  0
ARC
  10
63.104765
  20
33.625451
  40
24.963368
  50
203.278246
  51
222.317567
  8
XTRKCAD17
  6
CONTINUOUS
  0
ARC
  10
63.104765
  20
33.625451
  40
24.313768
  50
203.278246
  51
222.317567
  8
XTRKCAD17
  6
CONTINUOUS
  0
ARC
  10
66.543542
  20
34.976343
  40
28.331532
  50
190.623272
  51
203.039472
  8
XTRKCAD17
  6
DASHED
  0
ARC
  10
66.543542
  20
34.976343
  40
28.656332
  50
190.623272
  51
203.039472
  8
XTRKCAD17
  6
CONTINUOUS
  0
ARC
  10
66.543542
  20
34.976343
  40
28.006732
  50
190.623272
  51
203.039472
  8
XTRKCAD17
  6
CONTINUOUS
  0
ARC
  10
72.352234
  20
36.218964
  40
34.270074
  50
187.451044
  51
190.874871
  8
XTRKCAD17
  6
DASHED
  0
ARC
  10
72.352234
  20
36.218964
  40
34.594874
  50
187.451044
  51
190.874871
  8
XTRKCAD17
  6
CONTINUOUS
  0
ARC
  10
72.352234
  20
36.218964
  40
33.945274
  50
187.451044
  51
190.874871
  8
XTRKCAD17
  6
CONTINUOUS
  0
ARC
  10
94.016510
  20
38.504609
  40
56.050449
  50
180.619682
  51
186.895912
  8
XTRKCAD17
  6
DASHED
  0
ARC
  10
94.016510
  20
38.504609
  40
56.375249
  50
180.619682
  51
186.895912
  8
XTRKCAD17
  6
CONTINUOUS
  0
ARC
  10
94.016510
  20
38.504609
  40
55.725649
  50
180.619682
  51
186.895912
  8
XTRKCAD17
  6
CONTINUOUS
  0
LINE
  8
XTRKCAD17
  10
37.969340
  20
37.898407
  11
37.938393
  21
39.945935
  6
DASHED
  0
LINE
  8
XTRKCAD17
  10
37.644577
  20
37.893498
  11
37.613630
  21
39.941026
  6
CONTINUOUS
  0
LINE
  8
XTRKCAD17
  10
38.294103
  20
37.903315
  11
38.263156
  21
39.950844
  6
CONTINUOUS
  0
LINE
  8
XTRKCAD3
  10
7.379028
  20
49.944113
  11
7.456747
  21
50.589047
  6
DASHED
  0
LINE
  8
XTRKCAD3
  10
7.056561
  20
49.982972
  11
7.134280
  21
50.627906
  6
CONTINUOUS
  0
LINE
  8
XTRKCAD3
  10
7.701495
  20
49.905254
  11
7.779214
  21
50.550188
  6
CONTINUOUS
  0
LINE
  8
XTRKCAD3
  10
7.456747
  20
50.589047
  11
8.732311
  21
61.174071
  6
DASHED
  0
LINE
  8
XTRKCAD3
  10
7.134280
  20
50.627906
  11
8.409844
  21
61.212931
  6
CONTINUOUS
  0
LINE
  8
XTRKCAD3
  10
7.779214
  20
50.550188
  11
9.054778
  21
61.135212
  6
CONTINUOUS
  0
ARC
  10
34.473744
  20
47.333324
  40
27.212458
  50
163.666281
  51
173.128621
  8
XTRKCAD3
  6
DASHED
  0
ARC
  10
34.473744
  20
47.333324
  40
27.537258
  50
163.666281
  51
173.128621
  8
XTRKCAD3
  6
CONTINUOUS
  0
ARC
  10
34.473744
  20
47.333324
  40
26.887658
  50
163.666281
  51
173.128621
  8
XTRKCAD3
  6
CONTINUOUS
  0
LINE
  8
XTRKCAD3
  10
8.359582
  20
54.986325
  11
10.123818
  21
61.006386
  6
DASHED
  0
LINE
  8
XTRKCAD3
  10
8.047891
  20
55.077669
  11
9.812127
  21
61.097730
  6
CONTINUOUS
  0
LINE
  8
XTRKCAD3
  10
8.671273
  20
54.894981
  11
10.435509
  21
60.915042
  6
CONTINUOUS
  0
LINE
  8
XTRKCAD3
  10
4.500000
  20
56.625000
  11
4.495377
  21
57.274584
  6
DASHED
  0
LINE
  8
XTRKCAD3
  10
4.175208
  20
56.622688
  11
4.170585
  21
57.272272
  6
CONTINUOUS
  0
LINE
  8
XTRKCAD3
  10
4.824792
  20
56.627312
  11
4.820168
  21
57.276895
  6
CONTINUOUS
  0
LINE
  8
XTRKCAD3
  10
4.495377
  20
57.274584
  11
4.401339
  21
70.486854
  6
DASHED
  0
LINE
  8
XTRKCAD3
  10
4.170585
  20
57.272272
  11
4.076547
  21
70.484542
  6
CONTINUOUS
  0
LINE
  8
XTRKCAD3
  10
4.820168
  20
57.276895
  11
4.726131
  21
70.489166
  6
CONTINUOUS
  0
ARC
  10
36.619259
  20
57.503223
  40
32.124696
  50
173.282777
  51
180.407792
  8
XTRKCAD3
  6
DASHED
  0
ARC
  10
36.619259
  20
57.503223
  40
32.449496
  50
173.282777
  51
180.407792
  8
XTRKCAD3
  6
CONTINUOUS
  0
ARC
  10
36.619259
  20
57.503223
  40
31.799896
  50
173.282777
  51
180.407792
  8
XTRKCAD3
  6
CONTINUOUS
  0
LINE
  8
XTRKCAD3
  10
4.715082
  20
61.260825
  11
5.802878
  21
70.496829
  6
DASHED
  0
LINE
  8
XTRKCAD3
  10
4.392512
  20
61.298817
  11
5.480307
  21
70.534821
  6
CONTINUOUS
  0
LINE
  8
XTRKCAD3
  10
5.037653
  20
61.222834
  11
6.125448
  21
70.458838
  6
CONTINUOUS
  0
LINE
  8
XTRKCAD3
  10
4.500000
  20
56.625000
  11
4.504623
  21
55.975416
  6
DASHED
  0
LINE
  8
XTRKCAD3
  10
4.824792
  20
56.627312
  11
4.829415
  21
55.977728
  6
CONTINUOUS
  0
LINE
  8
XTRKCAD3
  10
4.175208
  20
56.622688
  11
4.179832
  21
55.973105
  6
CONTINUOUS
  0
LINE
  8
XTRKCAD3
  10
4.504623
  20
55.975416
  11
4.598661
  21
42.763146
  6
DASHED
  0
LINE
  8
XTRKCAD3
  10
4.829415
  20
55.977728
  11
4.923453
  21
42.765458
  6
CONTINUOUS
  0
LINE
  8
XTRKCAD3
  10
4.179832
  20
55.973105
  11
4.273869
  21
42.760834
  6
CONTINUOUS
  0
ARC
  10
36.628506
  20
56.204056
  40
32.124696
  50
180.407792
  51
187.532807
  8
XTRKCAD3
  6
DASHED
  0
ARC
  10
36.628506
  20
56.204056
  40
32.449496
  50
180.407792
  51
187.532807
  8
XTRKCAD3
  6
CONTINUOUS
  0
ARC
  10
36.628506
  20
56.204056
  40
31.799896
  50
180.407792
  51
187.532807
  8
XTRKCAD3
  6
CONTINUOUS
  0
LINE
  8
XTRKCAD3
  10
4.781047
  20
51.992706
  11
6.000199
  21
42.773121
  6
DASHED
  0
LINE
  8
XTRKCAD3
  10
5.103044
  20
52.035285
  11
6.322196
  21
42.815701
  6
CONTINUOUS
  0
LINE
  8
XTRKCAD3
  10
4.459050
  20
51.950127
  11
5.678202
  21
42.730542
  6
CONTINUOUS
  0
LINE
  8
XTRKCAD3
  10
73.625000
  20
3.281250
  11
72.975400
  21
3.281250
  6
DASHED
  0
LINE
  8
XTRKCAD3
  10
73.625000
  20
2.956450
  11
72.975400
  21
2.956450
  6
CONTINUOUS
  0
LINE
  8
XTRKCAD3
  10
73.625000
  20
3.606050
  11
72.975400
  21
3.606050
  6
CONTINUOUS
  0
LINE
  8
XTRKCAD3
  10
72.975400
  20
3.281250
  11
59.762795
  21
3.281250
  6
DASHED
  0
LINE
  8
XTRKCAD3
  10
72.975400
  20
2.956450
  11
59.762795
  21
2.956450
  6
CONTINUOUS
  0
LINE
  8
XTRKCAD3
  10
72.975400
  20
3.606050
  11
59.762795
  21
3.606050
  6
CONTINUOUS
  0
ARC
  10
72.975400
  20
35.405946
  40
32.124696
  50
262.874985
  51
270.000000
  8
XTRKCAD3
  6
DASHED
  0
ARC
  10
72.975400
  20
35.405946
  40
32.449496
  50
262.874985
  51
270.000000
  8
XTRKCAD3
  6
CONTINUOUS
  0
ARC
  10
72.975400
  20
35.405946
  40
31.799896
  50
262.874985
  51
270.000000
  8
XTRKCAD3
  6
CONTINUOUS
  0
LINE
  8
XTRKCAD3
  10
68.990823
  20
3.529321
  11
59.762795
  21
4.682824
  6
DASHED
  0
LINE
  8
XTRKCAD3
  10
68.950537
  20
3.207029
  11
59.722509
  21
4.360532
  6
CONTINUOUS
  0
LINE
  8
XTRKCAD3
  10
69.031109
  20
3.851613
  11
59.803081
  21
5.005116
  6
CONTINUOUS
  0
LINE
  8
XTRKCAD3
  10
83.377454
  20
3.281250
  11
84.027054
  21
3.281250
  6
DASHED
  0
LINE
  8
XTRKCAD3
  10
83.377454
  20
3.606050
  11
84.027054
  21
3.606050
  6
CONTINUOUS
  0
LINE
  8
XTRKCAD3
  10
83.377454
  20
2.956450
  11
84.027054
  21
2.956450
  6
CONTINUOUS
  0
LINE
  8
XTRKCAD3
  10
84.027054
  20
3.281250
  11
97.239659
  21
3.281250
  6
DASHED
  0
LINE
  8
XTRKCAD3
  10
84.027054
  20
3.606050
  11
97.239659
  21
3.606050
  6
CONTINUOUS
  0
LINE
  8
XTRKCAD3
  10
84.027054
  20
2.956450
  11
97.239659
  21
2.956450
  6
CONTINUOUS
  0
ARC
  10
84.027054
  20
35.405946
  40
32.124696
  50
270.000000
  51
277.125015
  8
XTRKCAD3
  6
DASHED
  0
ARC
  10
84.027054
  20
35.405946
  40
32.449496
  50
270.000000
  51
277.125015
  8
XTRKCAD3
  6
CONTINUOUS
  0
ARC
  10
84.027054
  20
35.405946
  40
31.799896
  50
270.000000
  51
277.125015
  8
XTRKCAD3
  6
CONTINUOUS
  0
LINE
  8
XTRKCAD3
  10
88.011631
  20
3.529321
  11
97.239659
  21
4.682824
  6
DASHED
  0
LINE
  8
XTRKCAD3
  10
87.971345
  20
3.851613
  11
97.199373
  21
5.005116
  6
CONTINUOUS
  0
LINE
  8
XTRKCAD3
  10
88.051917
  20
3.207029
  11
97.279945
  21
4.360532
  6
CONTINUOUS
  0
LINE
  8
XTRKCAD3
  10
116.450940
  20
6.591151
  11
115.801349
  21
6.594482
  6
DASHED
  0
LINE
  8
XTRKCAD3
  10
116.449275
  20
6.266355
  11
115.799683
  21
6.269686
  6
CONTINUOUS
  0
LINE
  8
XTRKCAD3
  10
116.452605
  20
6.915947
  11
115.803014
  21
6.919278
  6
CONTINUOUS
  0
LINE
  8
XTRKCAD3
  10
115.801349
  20
6.594482
  11
102.588917
  21
6.662232
  6
DASHED
  0
LINE
  8
XTRKCAD3
  10
115.799683
  20
6.269686
  11
102.587252
  21
6.337436
  6
CONTINUOUS
  0
LINE
  8
XTRKCAD3
  10
115.803014
  20
6.919278
  11
102.590583
  21
6.987028
  6
CONTINUOUS
  0
ARC
  10
115.636623
  20
-25.529792
  40
32.124696
  50
89.706204
  51
96.831219
  8
XTRKCAD3
  6
DASHED
  0
ARC
  10
115.636623
  20
-25.529792
  40
32.449496
  50
89.706204
  51
96.831219
  8
XTRKCAD3
  6
CONTINUOUS
  0
ARC
  10
115.636623
  20
-25.529792
  40
31.799896
  50
89.706204
  51
96.831219
  8
XTRKCAD3
  6
CONTINUOUS
  0
LINE
  8
XTRKCAD3
  10
111.815552
  20
6.366846
  11
102.581730
  21
5.260676
  6
DASHED
  0
LINE
  8
XTRKCAD3
  10
111.854185
  20
6.044352
  11
102.620364
  21
4.938182
  6
CONTINUOUS
  0
LINE
  8
XTRKCAD3
  10
111.776919
  20
6.689340
  11
102.543097
  21
5.583171
  6
CONTINUOUS
  0
LINE
  8
XTRKCAD3
  10
137.063437
  20
12.242080
  11
137.622422
  21
12.573012
  6
DASHED
  0
LINE
  8
XTRKCAD3
  10
136.897971
  20
12.521572
  11
137.456956
  21
12.852505
  6
CONTINUOUS
  0
LINE
  8
XTRKCAD3
  10
137.228903
  20
11.962588
  11
137.787888
  21
12.293520
  6
CONTINUOUS
  0
LINE
  8
XTRKCAD3
  10
137.622422
  20
12.573012
  11
146.796797
  21
18.004461
  6
DASHED
  0
LINE
  8
XTRKCAD3
  10
137.456956
  20
12.852505
  11
146.631331
  21
18.283953
  6
CONTINUOUS
  0
LINE
  8
XTRKCAD3
  10
137.787888
  20
12.293520
  11
146.962264
  21
17.724968
  6
CONTINUOUS
  0
ARC
  10
151.485539
  20
-10.843475
  40
27.212458
  50
111.164201
  51
120.626541
  8
XTRKCAD3
  6
DASHED
  0
ARC
  10
151.485539
  20
-10.843475
  40
27.537258
  50
111.164201
  51
120.626541
  8
XTRKCAD3
  6
CONTINUOUS
  0
ARC
  10
151.485539
  20
-10.843475
  40
26.887658
  50
111.164201
  51
120.626541
  8
XTRKCAD3
  6
CONTINUOUS
  0
LINE
  8
XTRKCAD3
  10
141.660699
  20
14.533491
  11
147.510815
  21
16.798398
  6
DASHED
  0
LINE
  8
XTRKCAD3
  10
141.543433
  20
14.836383
  11
147.393549
  21
17.101290
  6
CONTINUOUS
  0
LINE
  8
XTRKCAD3
  10
141.777965
  20
14.230599
  11
147.628082
  21
16.495506
  6
CONTINUOUS
  0
LINE
  8
XTRKCAD3
  10
161.705134
  20
29.167462
  11
162.214306
  21
29.570852
  6
DASHED
  0
LINE
  8
XTRKCAD3
  10
161.503439
  20
29.422048
  11
162.012611
  21
29.825438
  6
CONTINUOUS
  0
LINE
  8
XTRKCAD3
  10
161.906829
  20
28.912876
  11
162.416001
  21
29.316266
  6
CONTINUOUS
  0
LINE
  8
XTRKCAD3
  10
162.214306
  20
29.570852
  11
172.570667
  21
37.775652
  6
DASHED
  0
LINE
  8
XTRKCAD3
  10
162.012611
  20
29.825438
  11
172.368971
  21
38.030238
  6
CONTINUOUS
  0
LINE
  8
XTRKCAD3
  10
162.416001
  20
29.316266
  11
172.772362
  21
37.521066
  6
CONTINUOUS
  0
ARC
  10
182.163187
  20
4.390736
  40
32.124696
  50
121.262918
  51
128.387933
  8
XTRKCAD3
  6
DASHED
  0
ARC
  10
182.163187
  20
4.390736
  40
32.449496
  50
121.262918
  51
128.387933
  8
XTRKCAD3
  6
CONTINUOUS
  0
ARC
  10
182.163187
  20
4.390736
  40
31.799896
  50
121.262918
  51
128.387933
  8
XTRKCAD3
  6
CONTINUOUS
  0
LINE
  8
XTRKCAD3
  10
165.491562
  20
31.850762
  11
173.441020
  21
36.677064
  6
DASHED
  0
LINE
  8
XTRKCAD3
  10
165.323002
  20
32.128399
  11
173.272460
  21
36.954701
  6
CONTINUOUS
  0
LINE
  8
XTRKCAD3
  10
165.660122
  20
31.573124
  11
173.609580
  21
36.399427
  6
CONTINUOUS
  0
LINE
  8
XTRKCAD3
  10
147.510815
  20
16.798398
  11
148.116599
  21
17.032931
  6
DASHED
  0
LINE
  8
XTRKCAD3
  10
147.393549
  20
17.101290
  11
147.999333
  21
17.335823
  6
CONTINUOUS
  0
LINE
  8
XTRKCAD3
  10
147.628081
  20
16.495506
  11
148.233866
  21
16.730039
  6
CONTINUOUS
  0
LINE
  8
XTRKCAD3
  10
148.116599
  20
17.032931
  11
156.865682
  21
20.420189
  6
DASHED
  0
LINE
  8
XTRKCAD3
  10
147.999333
  20
17.335823
  11
156.748416
  21
20.723081
  6
CONTINUOUS
  0
LINE
  8
XTRKCAD3
  10
148.233866
  20
16.730039
  11
156.982949
  21
20.117297
  6
CONTINUOUS
  0
ARC
  10
156.793404
  20
-5.378731
  40
24.032676
  50
99.840861
  51
111.164201
  8
XTRKCAD3
  6
DASHED
  0
ARC
  10
156.793404
  20
-5.378731
  40
24.357476
  50
99.840861
  51
111.164201
  8
XTRKCAD3
  6
CONTINUOUS
  0
ARC
  10
156.793404
  20
-5.378731
  40
23.707876
  50
99.840861
  51
111.164201
  8
XTRKCAD3
  6
CONTINUOUS
  0
LINE
  8
XTRKCAD3
  10
152.685926
  20
18.300335
  11
157.371709
  21
19.113152
  6
DASHED
  0
LINE
  8
XTRKCAD3
  10
152.630414
  20
18.620356
  11
157.316197
  21
19.433173
  6
CONTINUOUS
  0
LINE
  8
XTRKCAD3
  10
152.741439
  20
17.980314
  11
157.427222
  21
18.793131
  6
CONTINUOUS
  0
ARC
  10
47.091717
  20
45.158476
  40
40.000000
  50
173.128621
  51
183.128621
  8
XTRKCAD17
  6
DASHED
  0
ARC
  10
47.091717
  20
45.158476
  40
40.324800
  50
173.128621
  51
183.128621
  8
XTRKCAD17
  6
CONTINUOUS
  0
ARC
  10
47.091717
  20
45.158476
  40
39.675200
  50
173.128621
  51
183.128621
  8
XTRKCAD17
  6
CONTINUOUS
  0
LINE
  8
XTRKCAD17
  10
10.123818
  20
61.006386
  11
11.422941
  21
65.597022
  6
DASHED
  0
LINE
  8
XTRKCAD17
  10
9.811291
  20
61.094829
  11
11.110415
  21
65.685465
  6
CONTINUOUS
  0
LINE
  8
XTRKCAD17
  10
10.436345
  20
60.917943
  11
11.735468
  21
65.508579
  6
CONTINUOUS
  0
ARC
  10
87.245161
  20
44.438888
  40
78.718966
  50
160.937317
  51
164.408279
  8
XTRKCAD17
  6
DASHED
  0
ARC
  10
87.245161
  20
44.438888
  40
79.043766
  50
160.937317
  51
164.408279
  8
XTRKCAD17
  6
CONTINUOUS
  0
ARC
  10
87.245161
  20
44.438888
  40
78.394166
  50
160.937317
  51
164.408279
  8
XTRKCAD17
  6
CONTINUOUS
  0
ARC
  10
42.884497
  20
59.714530
  40
31.801938
  50
152.253612
  51
160.846614
  8
XTRKCAD17
  6
DASHED
  0
ARC
  10
42.884497
  20
59.714530
  40
32.126738
  50
152.253612
  51
160.846614
  8
XTRKCAD17
  6
CONTINUOUS
  0
ARC
  10
42.884497
  20
59.714530
  40
31.477138
  50
152.253612
  51
160.846614
  8
XTRKCAD17
  6
CONTINUOUS
  0
ARC
  10
54.627262
  20
52.639402
  40
45.495313
  50
145.246318
  51
151.252782
  8
XTRKCAD17
  6
DASHED
  0
ARC
  10
54.627262
  20
52.639402
  40
45.820113
  50
145.246318
  51
151.252782
  8
XTRKCAD17
  6
CONTINUOUS
  0
ARC
  10
54.627262
  20
52.639402
  40
45.170513
  50
145.246318
  51
151.252782
  8
XTRKCAD17
  6
CONTINUOUS
  0
ARC
  10
26.223113
  20
42.917057
  40
21.625000
  50
180.407792
  51
198.891030
  8
XTRKCAD17
  6
DASHED
  0
ARC
  10
26.223113
  20
42.917057
  40
21.949800
  50
180.407792
  51
198.891030
  8
XTRKCAD17
  6
CONTINUOUS
  0
ARC
  10
26.223113
  20
42.917057
  40
21.300200
  50
180.407792
  51
198.891030
  8
XTRKCAD17
  6
CONTINUOUS
  0
LINE
  8
XTRKCAD3
  10
9.010811
  20
26.424385
  11
14.235380
  21
11.156869
  6
DASHED
  0
LINE
  8
XTRKCAD3
  10
9.318116
  20
26.529545
  11
14.542685
  21
11.262029
  6
CONTINUOUS
  0
LINE
  8
XTRKCAD3
  10
8.703506
  20
26.319225
  11
13.928075
  21
11.051709
  6
CONTINUOUS
  0
LINE
  8
XTRKCAD3
  10
13.620770
  20
10.946548
  11
14.849990
  21
11.367190
  6
CONTINUOUS
  0
LINE
  8
XTRKCAD3
  10
13.556016
  20
11.135776
  11
14.785236
  21
11.556417
  6
CONTINUOUS
  0
LINE
  8
XTRKCAD3
  10
9.009351
  20
19.275412
  11
11.884998
  21
10.872041
  6
DASHED
  0
LINE
  8
XTRKCAD3
  10
9.316656
  20
19.380572
  11
12.192303
  21
10.977201
  6
CONTINUOUS
  0
LINE
  8
XTRKCAD3
  10
8.702046
  20
19.170252
  11
11.577693
  21
10.766881
  6
CONTINUOUS
  0
LINE
  8
XTRKCAD3
  10
11.270388
  20
10.661720
  11
12.499608
  21
11.082362
  6
CONTINUOUS
  0
LINE
  8
XTRKCAD3
  10
11.205634
  20
10.850948
  11
12.434854
  21
11.271589
  6
CONTINUOUS
  0
ARC
  10
113.245238
  20
38.432454
  40
106.293548
  50
186.732842
  51
188.577141
  8
XTRKCAD3
  6
DASHED
  0
ARC
  10
113.245238
  20
38.432454
  40
106.618348
  50
186.732842
  51
188.577141
  8
XTRKCAD3
  6
CONTINUOUS
  0
ARC
  10
113.245238
  20
38.432454
  40
105.968748
  50
186.732842
  51
188.577141
  8
XTRKCAD3
  6
CONTINUOUS
  0
ARC
  10
28.509575
  20
26.169369
  40
20.682973
  50
189.994558
  51
199.470141
  8
XTRKCAD3
  6
DASHED
  0
ARC
  10
28.509575
  20
26.169369
  40
21.007773
  50
189.994558
  51
199.470141
  8
XTRKCAD3
  6
CONTINUOUS
  0
ARC
  10
28.509575
  20
26.169369
  40
20.358173
  50
189.994558
  51
199.470141
  8
XTRKCAD3
  6
CONTINUOUS
  0
ARC
  10
211.497672
  20
-9.363197
  40
61.063830
  50
111.221459
  51
116.113599
  8
XTRKCAD17
  6
DASHED
  0
ARC
  10
211.497672
  20
-9.363197
  40
61.388630
  50
111.221459
  51
116.113599
  8
XTRKCAD17
  6
CONTINUOUS
  0
ARC
  10
211.497672
  20
-9.363197
  40
60.739030
  50
111.221459
  51
116.113599
  8
XTRKCAD17
  6
CONTINUOUS
  0
ARC
  10
214.372975
  20
-13.503950
  40
66.051843
  50
116.772205
  51
121.295209
  8
XTRKCAD17
  6
DASHED
  0
ARC
  10
214.372975
  20
-13.503950
  40
66.376643
  50
116.772205
  51
121.295209
  8
XTRKCAD17
  6
CONTINUOUS
  0
ARC
  10
214.372975
  20
-13.503950
  40
65.727043
  50
116.772205
  51
121.295209
  8
XTRKCAD17
  6
CONTINUOUS
  0
ARC
  10
223.554335
  20
-29.524180
  40
84.511743
  50
120.972376
  51
124.059006
  8
XTRKCAD17
  6
DASHED
  0
ARC
  10
223.554335
  20
-29.524180
  40
84.836543
  50
120.972376
  51
124.059006
  8
XTRKCAD17
  6
CONTINUOUS
  0
ARC
  10
223.554335
  20
-29.524180
  40
84.186943
  50
120.972376
  51
124.059006
  8
XTRKCAD17
  6
CONTINUOUS
  0
ARC
  10
211.400294
  20
-10.658733
  40
62.077609
  50
124.517148
  51
128.718993
  8
XTRKCAD17
  6
DASHED
  0
ARC
  10
211.400294
  20
-10.658733
  40
62.402409
  50
124.517148
  51
128.718993
  8
XTRKCAD17
  6
CONTINUOUS
  0
ARC
  10
211.400294
  20
-10.658733
  40
61.752809
  50
124.517148
  51
128.718993
  8
XTRKCAD17
  6
CONTINUOUS
  0
LINE
  8
XTRKCAD17
  10
44.992855
  20
26.302619
  11
46.328410
  21
24.767014
  6
DASHED
  0
LINE
  8
XTRKCAD17
  10
45.237931
  20
26.515768
  11
46.573486
  21
24.980163
  6
CONTINUOUS
  0
LINE
  8
XTRKCAD17
  10
44.747779
  20
26.089470
  11
46.083334
  21
24.553865
  6
CONTINUOUS
  0
ARC
  10
168.368728
  20
129.464490
  40
160.796147
  50
220.626046
  51
222.397966
  8
XTRKCAD17
  6
DASHED
  0
ARC
  10
168.368728
  20
129.464490
  40
161.120947
  50
220.626046
  51
222.397966
  8
XTRKCAD17
  6
CONTINUOUS
  0
ARC
  10
168.368728
  20
129.464490
  40
160.471347
  50
220.626046
  51
222.397966
  8
XTRKCAD17
  6
CONTINUOUS
  0
ARC
  10
92.479704
  20
60.649801
  40
58.354631
  50
222.743521
  51
224.370661
  8
XTRKCAD17
  6
DASHED
  0
ARC
  10
92.479704
  20
60.649801
  40
58.679431
  50
222.743521
  51
224.370661
  8
XTRKCAD17
  6
CONTINUOUS
  0
ARC
  10
92.479704
  20
60.649801
  40
58.029831
  50
222.743521
  51
224.370661
  8
XTRKCAD17
  6
CONTINUOUS
  0
ARC
  10
73.205348
  20
41.462356
  40
31.159899
  50
223.934371
  51
233.079587
  8
XTRKCAD17
  6
DASHED
  0
ARC
  10
73.205348
  20
41.462356
  40
31.484699
  50
223.934371
  51
233.079587
  8
XTRKCAD17
  6
CONTINUOUS
  0
ARC
  10
73.205348
  20
41.462356
  40
30.835099
  50
223.934371
  51
233.079587
  8
XTRKCAD17
  6
CONTINUOUS
  0
ARC
  10
67.420069
  20
34.039102
  40
21.750613
  50
233.516803
  51
237.879464
  8
XTRKCAD17
  6
DASHED
  0
ARC
  10
67.420069
  20
34.039102
  40
22.075413
  50
233.516803
  51
237.879464
  8
XTRKCAD17
  6
CONTINUOUS
  0
ARC
  10
67.420069
  20
34.039102
  40
21.425813
  50
233.516803
  51
237.879464
  8
XTRKCAD17
  6
CONTINUOUS
  0
ARC
  10
65.920799
  20
31.634117
  40
18.916592
  50
237.852334
  51
257.930373
  8
XTRKCAD17
  6
DASHED
  0
ARC
  10
65.920799
  20
31.634117
  40
19.241392
  50
237.852334
  51
257.930373
  8
XTRKCAD17
  6
CONTINUOUS
  0
ARC
  10
65.920799
  20
31.634117
  40
18.591792
  50
237.852334
  51
257.930373
  8
XTRKCAD17
  6
CONTINUOUS
  0
ARC
  10
66.507248
  20
35.379369
  40
22.702647
  50
258.459481
  51
266.815329
  8
XTRKCAD17
  6
DASHED
  0
ARC
  10
66.507248
  20
35.379369
  40
23.027447
  50
258.459481
  51
266.815329
  8
XTRKCAD17
  6
CONTINUOUS
  0
ARC
  10
66.507248
  20
35.379369
  40
22.377847
  50
258.459481
  51
266.815329
  8
XTRKCAD17
  6
CONTINUOUS
  0
ARC
  10
68.235644
  20
66.314432
  40
53.685956
  50
266.807699
  51
270.348892
  8
XTRKCAD17
  6
DASHED
  0
ARC
  10
68.235644
  20
66.314432
  40
54.010756
  50
266.807699
  51
270.348892
  8
XTRKCAD17
  6
CONTINUOUS
  0
ARC
  10
68.235644
  20
66.314432
  40
53.361156
  50
266.807699
  51
270.348892
  8
XTRKCAD17
  6
CONTINUOUS
  0
LINE
  8
XTRKCAD3
  10
68.391926
  20
16.638111
  11
69.039598
  21
16.688116
  6
DASHED
  0
LINE
  8
XTRKCAD3
  10
68.366923
  20
16.961947
  11
69.014596
  21
17.011952
  6
CONTINUOUS
  0
LINE
  8
XTRKCAD3
  10
68.416929
  20
16.314275
  11
69.064601
  21
16.364280
  6
CONTINUOUS
  0
LINE
  8
XTRKCAD3
  10
69.039598
  20
16.688116
  11
79.669567
  21
17.508830
  6
DASHED
  0
LINE
  8
XTRKCAD3
  10
69.014596
  20
17.011952
  11
79.644564
  21
17.832666
  6
CONTINUOUS
  0
LINE
  8
XTRKCAD3
  10
69.064601
  20
16.364280
  11
79.694569
  21
17.184994
  6
CONTINUOUS
  0
ARC
  10
66.944825
  20
43.819828
  40
27.212458
  50
274.414909
  51
283.877249
  8
XTRKCAD3
  6
DASHED
  0
ARC
  10
66.944825
  20
43.819828
  40
27.537258
  50
274.414909
  51
283.877249
  8
XTRKCAD3
  6
CONTINUOUS
  0
ARC
  10
66.944825
  20
43.819828
  40
26.887658
  50
274.414909
  51
283.877249
  8
XTRKCAD3
  6
CONTINUOUS
  0
LINE
  8
XTRKCAD3
  10
73.471531
  20
17.401653
  11
79.561676
  21
18.906245
  6
DASHED
  0
LINE
  8
XTRKCAD3
  10
73.393630
  20
17.716973
  11
79.483775
  21
19.221565
  6
CONTINUOUS
  0
LINE
  8
XTRKCAD3
  10
73.549432
  20
17.086333
  11
79.639577
  21
18.590926
  6
CONTINUOUS
  0
LINE
  8
XTRKCAD3
  10
79.669567
  20
17.508830
  11
84.609503
  21
17.935148
  6
DASHED
  0
LINE
  8
XTRKCAD3
  10
79.641640
  20
17.832427
  11
84.581576
  21
18.258745
  6
CONTINUOUS
  0
LINE
  8
XTRKCAD3
  10
79.697494
  20
17.185233
  11
84.637429
  21
17.611551
  6
CONTINUOUS
  0
ARC
  10
89.314002
  20
-41.457975
  40
59.579153
  50
89.760981
  51
94.528914
  8
XTRKCAD3
  6
DASHED
  0
ARC
  10
89.314002
  20
-41.457975
  40
59.903953
  50
89.760981
  51
94.528914
  8
XTRKCAD3
  6
CONTINUOUS
  0
ARC
  10
89.314002
  20
-41.457975
  40
59.254353
  50
89.760981
  51
94.528914
  8
XTRKCAD3
  6
CONTINUOUS
  0
LINE
  8
XTRKCAD3
  10
61.963579
  20
22.853863
  11
89.500139
  21
22.847458
  6
DASHED
  0
LINE
  8
XTRKCAD3
  10
61.963655
  20
23.178663
  11
89.500215
  21
23.172258
  6
CONTINUOUS
  0
LINE
  8
XTRKCAD3
  10
61.963503
  20
22.529063
  11
89.500063
  21
22.522658
  6
CONTINUOUS
  0
LINE
  8
XTRKCAD3
  10
61.963730
  20
23.503463
  11
61.963428
  21
22.204263
  6
CONTINUOUS
  0
LINE
  8
XTRKCAD3
  10
62.163730
  20
23.503416
  11
62.163428
  21
22.204217
  6
CONTINUOUS
  0
LINE
  8
XTRKCAD3
  10
100.811343
  20
22.844827
  11
100.161743
  21
22.844978
  6
DASHED
  0
LINE
  8
XTRKCAD3
  10
100.811267
  20
22.520027
  11
100.161667
  21
22.520178
  6
CONTINUOUS
  0
LINE
  8
XTRKCAD3
  10
100.811419
  20
23.169627
  11
100.161819
  21
23.169778
  6
CONTINUOUS
  0
LINE
  8
XTRKCAD3
  10
100.161743
  20
22.844978
  11
89.500139
  21
22.847458
  6
DASHED
  0
LINE
  8
XTRKCAD3
  10
100.161667
  20
22.520178
  11
89.500064
  21
22.522658
  6
CONTINUOUS
  0
LINE
  8
XTRKCAD3
  10
100.161819
  20
23.169778
  11
89.500215
  21
23.172258
  6
CONTINUOUS
  0
ARC
  10
100.155414
  20
-4.367479
  40
27.212458
  50
89.986674
  51
99.449014
  8
XTRKCAD3
  6
DASHED
  0
ARC
  10
100.155414
  20
-4.367479
  40
27.537258
  50
89.986674
  51
99.449014
  8
XTRKCAD3
  6
CONTINUOUS
  0
ARC
  10
100.155414
  20
-4.367479
  40
26.887658
  50
89.986674
  51
99.449014
  8
XTRKCAD3
  6
CONTINUOUS
  0
LINE
  8
XTRKCAD3
  10
95.687948
  20
22.475763
  11
89.499813
  21
21.445884
  6
DASHED
  0
LINE
  8
XTRKCAD3
  10
95.741270
  20
22.155369
  11
89.553136
  21
21.125491
  6
CONTINUOUS
  0
LINE
  8
XTRKCAD3
  10
95.634626
  20
22.796156
  11
89.446491
  21
21.766277
  6
CONTINUOUS
  0
LINE
  8
XTRKCAD3
  10
189.068107
  20
48.776717
  11
181.426809
  21
46.408051
  6
DASHED
  0
LINE
  8
XTRKCAD3
  10
189.164275
  20
48.466480
  11
181.522977
  21
46.097814
  6
CONTINUOUS
  0
LINE
  8
XTRKCAD3
  10
188.971939
  20
49.086954
  11
181.330641
  21
46.718288
  6
CONTINUOUS
  0
LINE
  8
XTRKCAD3
  10
181.426809
  20
46.408051
  11
180.806336
  21
46.215715
  6
DASHED
  0
LINE
  8
XTRKCAD3
  10
181.522977
  20
46.097814
  11
180.902503
  21
45.905479
  6
CONTINUOUS
  0
LINE
  8
XTRKCAD3
  10
181.330641
  20
46.718288
  11
180.710168
  21
46.525952
  6
CONTINUOUS
  0
LINE
  8
XTRKCAD3
  10
180.806336
  20
46.215715
  11
170.622775
  21
43.058994
  6
DASHED
  0
LINE
  8
XTRKCAD3
  10
180.902503
  20
45.905479
  11
170.718943
  21
42.748757
  6
CONTINUOUS
  0
LINE
  8
XTRKCAD3
  10
180.710168
  20
46.525952
  11
170.526607
  21
43.369230
  6
CONTINUOUS
  0
ARC
  10
188.863487
  20
20.223405
  40
27.212458
  50
107.222502
  51
116.684842
  8
XTRKCAD3
  6
DASHED
  0
ARC
  10
188.863487
  20
20.223405
  40
27.537258
  50
107.222502
  51
116.684842
  8
XTRKCAD3
  6
CONTINUOUS
  0
ARC
  10
188.863487
  20
20.223405
  40
26.887658
  50
107.222502
  51
116.684842
  8
XTRKCAD3
  6
CONTINUOUS
  0
LINE
  8
XTRKCAD3
  10
176.642845
  20
44.537471
  11
171.037758
  21
41.720263
  6
DASHED
  0
LINE
  8
XTRKCAD3
  10
176.788707
  20
44.247265
  11
171.183620
  21
41.430057
  6
CONTINUOUS
  0
LINE
  8
XTRKCAD3
  10
176.496983
  20
44.827676
  11
170.891895
  21
42.010469
  6
CONTINUOUS
  0
ARC
  10
182.994583
  20
17.931086
  40
26.625000
  50
116.684842
  51
128.684842
  8
XTRKCAD3
  6
DASHED
  0
ARC
  10
182.994583
  20
17.931086
  40
26.949800
  50
116.684842
  51
128.684842
  8
XTRKCAD3
  6
CONTINUOUS
  0
ARC
  10
182.994583
  20
17.931086
  40
26.300200
  50
116.684842
  51
128.684842
  8
XTRKCAD3
  6
CONTINUOUS
  0
LINE
  8
XTRKCAD3
  10
151.890399
  20
34.486165
  11
151.328416
  21
34.160350
  6
DASHED
  0
LINE
  8
XTRKCAD3
  10
152.053307
  20
34.205174
  11
151.491324
  21
33.879359
  6
CONTINUOUS
  0
LINE
  8
XTRKCAD3
  10
151.727491
  20
34.767156
  11
151.165509
  21
34.441341
  6
CONTINUOUS
  0
LINE
  8
XTRKCAD3
  10
151.328416
  20
34.160350
  11
142.104835
  21
28.812888
  6
DASHED
  0
LINE
  8
XTRKCAD3
  10
151.491324
  20
33.879359
  11
142.267743
  21
28.531896
  6
CONTINUOUS
  0
LINE
  8
XTRKCAD3
  10
151.165509
  20
34.441341
  11
141.941928
  21
29.093879
  6
CONTINUOUS
  0
ARC
  10
164.977168
  20
10.618272
  40
27.212458
  50
120.103437
  51
129.565777
  8
XTRKCAD3
  6
DASHED
  0
ARC
  10
164.977168
  20
10.618272
  40
27.537258
  50
120.103437
  51
129.565777
  8
XTRKCAD3
  6
CONTINUOUS
  0
ARC
  10
164.977168
  20
10.618272
  40
26.887658
  50
120.103437
  51
129.565777
  8
XTRKCAD3
  6
CONTINUOUS
  0
LINE
  8
XTRKCAD3
  10
147.643822
  20
31.596188
  11
142.807812
  21
27.600356
  6
DASHED
  0
LINE
  8
XTRKCAD3
  10
147.850707
  20
31.345802
  11
143.014698
  21
27.349970
  6
CONTINUOUS
  0
LINE
  8
XTRKCAD3
  10
147.436936
  20
31.846575
  11
142.600926
  21
27.850742
  6
CONTINUOUS
  0
ARC
  10
121.486203
  20
62.279677
  40
44.187850
  50
269.207561
  51
275.197522
  8
XTRKCAD3
  6
DASHED
  0
ARC
  10
121.486203
  20
62.279677
  40
44.512650
  50
269.207561
  51
275.197522
  8
XTRKCAD3
  6
CONTINUOUS
  0
ARC
  10
121.486203
  20
62.279677
  40
43.863050
  50
269.207561
  51
275.197522
  8
XTRKCAD3
  6
CONTINUOUS
  0
ARC
  10
123.240753
  20
40.144750
  40
21.986503
  50
275.869499
  51
279.877621
  8
XTRKCAD3
  6
DASHED
  0
ARC
  10
123.240753
  20
40.144750
  40
22.311303
  50
275.869499
  51
279.877621
  8
XTRKCAD3
  6
CONTINUOUS
  0
ARC
  10
123.240753
  20
40.144750
  40
21.661703
  50
275.869499
  51
279.877621
  8
XTRKCAD3
  6
CONTINUOUS
  0
ARC
  10
123.274584
  20
39.463448
  40
21.309661
  50
280.102249
  51
296.658698
  8
XTRKCAD3
  6
DASHED
  0
ARC
  10
123.274584
  20
39.463448
  40
21.634461
  50
280.102249
  51
296.658698
  8
XTRKCAD3
  6
CONTINUOUS
  0
ARC
  10
123.274584
  20
39.463448
  40
20.984861
  50
280.102249
  51
296.658698
  8
XTRKCAD3
  6
CONTINUOUS
  0
ARC
  10
119.235474
  20
47.148857
  40
29.990755
  50
296.967204
  51
305.789513
  8
XTRKCAD3
  6
DASHED
  0
ARC
  10
119.235474
  20
47.148857
  40
30.315555
  50
296.967204
  51
305.789513
  8
XTRKCAD3
  6
CONTINUOUS
  0
ARC
  10
119.235474
  20
47.148857
  40
29.665955
  50
296.967204
  51
305.789513
  8
XTRKCAD3
  6
CONTINUOUS
  0
ARC
  10
108.762133
  20
62.220949
  40
48.342753
  50
305.411872
  51
307.237467
  8
XTRKCAD3
  6
DASHED
  0
ARC
  10
108.762133
  20
62.220949
  40
48.667553
  50
305.411872
  51
307.237467
  8
XTRKCAD3
  6
CONTINUOUS
  0
ARC
  10
108.762133
  20
62.220949
  40
48.017953
  50
305.411872
  51
307.237467
  8
XTRKCAD3
  6
CONTINUOUS
  0
ARC
  10
47.080643
  20
141.343427
  40
148.664647
  50
307.710814
  51
310.084260
  8
XTRKCAD3
  6
DASHED
  0
ARC
  10
47.080643
  20
141.343427
  40
148.989447
  50
307.710814
  51
310.084260
  8
XTRKCAD3
  6
CONTINUOUS
  0
ARC
  10
47.080643
  20
141.343427
  40
148.339847
  50
307.710814
  51
310.084260
  8
XTRKCAD3
  6
CONTINUOUS
  0
ARC
  10
240.325555
  20
-115.120343
  40
173.789769
  50
118.032986
  51
120.588114
  8
XTRKCAD3
  6
DASHED
  0
ARC
  10
240.325555
  20
-115.120343
  40
174.114569
  50
118.032986
  51
120.588114
  8
XTRKCAD3
  6
CONTINUOUS
  0
ARC
  10
240.325555
  20
-115.120343
  40
173.464969
  50
118.032986
  51
120.588114
  8
XTRKCAD3
  6
CONTINUOUS
  0
ARC
  10
190.580715
  20
-22.799065
  40
68.922773
  50
115.454341
  51
117.601122
  8
XTRKCAD3
  6
DASHED
  0
ARC
  10
190.580715
  20
-22.799065
  40
69.247573
  50
115.454341
  51
117.601122
  8
XTRKCAD3
  6
CONTINUOUS
  0
ARC
  10
190.580715
  20
-22.799065
  40
68.597973
  50
115.454341
  51
117.601122
  8
XTRKCAD3
  6
CONTINUOUS
  0
ARC
  10
187.841291
  20
-18.271149
  40
63.659194
  50
108.006795
  51
114.979616
  8
XTRKCAD3
  6
DASHED
  0
ARC
  10
187.841291
  20
-18.271149
  40
63.983994
  50
108.006795
  51
114.979616
  8
XTRKCAD3
  6
CONTINUOUS
  0
ARC
  10
187.841291
  20
-18.271149
  40
63.334394
  50
108.006795
  51
114.979616
  8
XTRKCAD3
  6
CONTINUOUS
  0
ARC
  10
206.874896
  20
-74.223549
  40
122.757530
  50
107.176418
  51
108.382422
  8
XTRKCAD3
  6
DASHED
  0
ARC
  10
206.874896
  20
-74.223549
  40
123.082330
  50
107.176418
  51
108.382422
  8
XTRKCAD3
  6
CONTINUOUS
  0
ARC
  10
206.874896
  20
-74.223549
  40
122.432730
  50
107.176418
  51
108.382422
  8
XTRKCAD3
  6
CONTINUOUS
  0
LINE
  8
XTRKCAD3
  10
166.329478
  20
38.694912
  11
165.822403
  21
38.288889
  6
DASHED
  0
LINE
  8
XTRKCAD3
  10
166.532490
  20
38.441374
  11
166.025415
  21
38.035351
  6
CONTINUOUS
  0
LINE
  8
XTRKCAD3
  10
166.126466
  20
38.948450
  11
165.619391
  21
38.542426
  6
CONTINUOUS
  0
LINE
  8
XTRKCAD3
  10
165.822403
  20
38.288889
  11
157.500000
  21
31.625000
  6
DASHED
  0
LINE
  8
XTRKCAD3
  10
166.025415
  20
38.035351
  11
157.703011
  21
31.371463
  6
CONTINUOUS
  0
LINE
  8
XTRKCAD3
  10
165.619391
  20
38.542426
  11
157.296988
  21
31.878538
  6
CONTINUOUS
  0
ARC
  10
148.813633
  20
59.530819
  40
27.212458
  50
299.222502
  51
308.684842
  8
XTRKCAD3
  6
DASHED
  0
ARC
  10
148.813633
  20
59.530819
  40
27.537258
  50
299.222502
  51
308.684842
  8
XTRKCAD3
  6
CONTINUOUS
  0
ARC
  10
148.813633
  20
59.530819
  40
26.887658
  50
299.222502
  51
308.684842
  8
XTRKCAD3
  6
CONTINUOUS
  0
LINE
  8
XTRKCAD3
  10
162.098821
  20
35.781679
  11
156.623965
  21
32.719063
  6
DASHED
  0
LINE
  8
XTRKCAD3
  10
162.257389
  20
35.498216
  11
156.782533
  21
32.435600
  6
CONTINUOUS
  0
LINE
  8
XTRKCAD3
  10
161.940253
  20
36.065142
  11
156.465397
  21
33.002526
  6
CONTINUOUS
  0
LINE
  8
XTRKCAD3
  10
157.500000
  20
31.625000
  11
151.564776
  21
26.872567
  6
DASHED
  0
LINE
  8
XTRKCAD3
  10
157.703012
  20
31.371462
  11
151.767788
  21
26.619029
  6
CONTINUOUS
  0
LINE
  8
XTRKCAD3
  10
157.296988
  20
31.878538
  11
151.361764
  21
27.126105
  6
CONTINUOUS
  0
ARC
  10
120.789719
  20
89.102091
  40
73.766041
  50
269.532444
  51
272.542330
  8
XTRKCAD3
  6
DASHED
  0
ARC
  10
120.789719
  20
89.102091
  40
74.090841
  50
269.532444
  51
272.542330
  8
XTRKCAD3
  6
CONTINUOUS
  0
ARC
  10
120.789719
  20
89.102091
  40
73.441241
  50
269.532444
  51
272.542330
  8
XTRKCAD3
  6
CONTINUOUS
  0
ARC
  10
122.295282
  20
50.052338
  40
34.688691
  50
272.919034
  51
275.051817
  8
XTRKCAD3
  6
DASHED
  0
ARC
  10
122.295282
  20
50.052338
  40
35.013491
  50
272.919034
  51
275.051817
  8
XTRKCAD3
  6
CONTINUOUS
  0
ARC
  10
122.295282
  20
50.052338
  40
34.363891
  50
272.919034
  51
275.051817
  8
XTRKCAD3
  6
CONTINUOUS
  0
ARC
  10
123.025886
  20
42.701928
  40
27.302618
  50
274.882856
  51
285.724611
  8
XTRKCAD3
  6
DASHED
  0
ARC
  10
123.025886
  20
42.701928
  40
27.627418
  50
274.882856
  51
285.724611
  8
XTRKCAD3
  6
CONTINUOUS
  0
ARC
  10
123.025886
  20
42.701928
  40
26.977818
  50
274.882856
  51
285.724611
  8
XTRKCAD3
  6
CONTINUOUS
  0
ARC
  10
123.028425
  20
42.035595
  40
26.661129
  50
286.107446
  51
297.210162
  8
XTRKCAD3
  6
DASHED
  0
ARC
  10
123.028425
  20
42.035595
  40
26.985929
  50
286.107446
  51
297.210162
  8
XTRKCAD3
  6
CONTINUOUS
  0
ARC
  10
123.028425
  20
42.035595
  40
26.336329
  50
286.107446
  51
297.210162
  8
XTRKCAD3
  6
CONTINUOUS
  0
ARC
  10
117.800020
  20
51.884665
  40
37.811255
  50
297.431795
  51
305.260517
  8
XTRKCAD3
  6
DASHED
  0
ARC
  10
117.800020
  20
51.884665
  40
38.136055
  50
297.431795
  51
305.260517
  8
XTRKCAD3
  6
CONTINUOUS
  0
ARC
  10
117.800020
  20
51.884665
  40
37.486455
  50
297.431795
  51
305.260517
  8
XTRKCAD3
  6
CONTINUOUS
  0
ARC
  10
80.663966
  20
104.361551
  40
102.098967
  50
305.276377
  51
308.175384
  8
XTRKCAD3
  6
DASHED
  0
ARC
  10
80.663966
  20
104.361551
  40
102.423767
  50
305.276377
  51
308.175384
  8
XTRKCAD3
  6
CONTINUOUS
  0
ARC
  10
80.663966
  20
104.361551
  40
101.774167
  50
305.276377
  51
308.175384
  8
XTRKCAD3
  6
CONTINUOUS
  0
ARC
  10
250.133495
  20
-111.188201
  40
172.093698
  50
126.454726
  51
128.174992
  8
XTRKCAD3
  6
DASHED
  0
ARC
  10
250.133495
  20
-111.188201
  40
172.418498
  50
126.454726
  51
128.174992
  8
XTRKCAD3
  6
CONTINUOUS
  0
ARC
  10
250.133495
  20
-111.188201
  40
171.768898
  50
126.454726
  51
128.174992
  8
XTRKCAD3
  6
CONTINUOUS
  0
ARC
  10
193.056530
  20
-35.491131
  40
77.299713
  50
120.022223
  51
125.765174
  8
XTRKCAD3
  6
DASHED
  0
ARC
  10
193.056530
  20
-35.491131
  40
77.624513
  50
120.022223
  51
125.765174
  8
XTRKCAD3
  6
CONTINUOUS
  0
ARC
  10
193.056530
  20
-35.491131
  40
76.974913
  50
120.022223
  51
125.765174
  8
XTRKCAD3
  6
CONTINUOUS
  0
ARC
  10
221.982711
  20
-84.279191
  40
134.016256
  50
119.189040
  51
120.293610
  8
XTRKCAD3
  6
DASHED
  0
ARC
  10
221.982711
  20
-84.279191
  40
134.341056
  50
119.189040
  51
120.293610
  8
XTRKCAD3
  6
CONTINUOUS
  0
ARC
  10
221.982711
  20
-84.279191
  40
133.691456
  50
119.189040
  51
120.293610
  8
XTRKCAD3
  6
CONTINUOUS
  0
ARC
  10
120.163563
  20
89.752041
  40
77.164576
  50
269.600013
  51
272.946799
  8
XTRKCAD3
  6
DASHED
  0
ARC
  10
120.163563
  20
89.752041
  40
77.489376
  50
269.600013
  51
272.946799
  8
XTRKCAD3
  6
CONTINUOUS
  0
ARC
  10
120.163563
  20
89.752041
  40
76.839776
  50
269.600013
  51
272.946799
  8
XTRKCAD3
  6
CONTINUOUS
  0
ARC
  10
122.407109
  20
46.234660
  40
33.589401
  50
272.940985
  51
280.615620
  8
XTRKCAD3
  6
DASHED
  0
ARC
  10
122.407109
  20
46.234660
  40
33.914201
  50
272.940985
  51
280.615620
  8
XTRKCAD3
  6
CONTINUOUS
  0
ARC
  10
122.407109
  20
46.234660
  40
33.264601
  50
272.940985
  51
280.615620
  8
XTRKCAD3
  6
CONTINUOUS
  0
ARC
  10
122.719404
  20
42.736629
  40
30.095599
  50
281.258077
  51
298.405069
  8
XTRKCAD3
  6
DASHED
  0
ARC
  10
122.719404
  20
42.736629
  40
30.420399
  50
281.258077
  51
298.405069
  8
XTRKCAD3
  6
CONTINUOUS
  0
ARC
  10
122.719404
  20
42.736629
  40
29.770799
  50
281.258077
  51
298.405069
  8
XTRKCAD3
  6
CONTINUOUS
  0
ARC
  10
114.033327
  20
58.374877
  40
47.983510
  50
298.645298
  51
306.710844
  8
XTRKCAD3
  6
DASHED
  0
ARC
  10
114.033327
  20
58.374877
  40
48.308310
  50
298.645298
  51
306.710844
  8
XTRKCAD3
  6
CONTINUOUS
  0
ARC
  10
114.033327
  20
58.374877
  40
47.658710
  50
298.645298
  51
306.710844
  8
XTRKCAD3
  6
CONTINUOUS
  0
ARC
  10
87.529187
  20
95.116761
  40
93.284412
  50
306.271024
  51
307.654872
  8
XTRKCAD3
  6
DASHED
  0
ARC
  10
87.529187
  20
95.116761
  40
93.609212
  50
306.271024
  51
307.654872
  8
XTRKCAD3
  6
CONTINUOUS
  0
ARC
  10
87.529187
  20
95.116761
  40
92.959612
  50
306.271024
  51
307.654872
  8
XTRKCAD3
  6
CONTINUOUS
  0
ARC
  10
-148.603006
  20
396.770087
  40
476.366322
  50
307.975520
  51
309.058951
  8
XTRKCAD3
  6
DASHED
  0
ARC
  10
-148.603006
  20
396.770087
  40
476.691122
  50
307.975520
  51
309.058951
  8
XTRKCAD3
  6
CONTINUOUS
  0
ARC
  10
-148.603006
  20
396.770087
  40
476.041522
  50
307.975520
  51
309.058951
  8
XTRKCAD3
  6
CONTINUOUS
  0
LINE
  8
XTRKCAD3
  10
222.706694
  20
28.530352
  11
222.823738
  21
27.891383
  6
DASHED
  0
LINE
  8
XTRKCAD3
  10
223.026178
  20
28.588874
  11
223.143222
  21
27.949905
  6
CONTINUOUS
  0
LINE
  8
XTRKCAD3
  10
222.387210
  20
28.471830
  11
222.504254
  21
27.832861
  6
CONTINUOUS
  0
LINE
  8
XTRKCAD3
  10
222.823738
  20
27.891383
  11
224.283610
  21
19.921618
  6
DASHED
  0
LINE
  8
XTRKCAD3
  10
223.143222
  20
27.949905
  11
224.603094
  21
19.980140
  6
CONTINUOUS
  0
LINE
  8
XTRKCAD3
  10
222.504254
  20
27.832861
  11
223.964126
  21
19.863096
  6
CONTINUOUS
  0
ARC
  10
202.879910
  20
24.238147
  40
20.275660
  50
356.344015
  51
370.380152
  8
XTRKCAD3
  6
DASHED
  0
ARC
  10
202.879910
  20
24.238147
  40
20.600460
  50
356.344015
  51
370.380152
  8
XTRKCAD3
  6
CONTINUOUS
  0
ARC
  10
202.879910
  20
24.238147
  40
19.950860
  50
356.344015
  51
370.380152
  8
XTRKCAD3
  6
CONTINUOUS
  0
LINE
  8
XTRKCAD3
  10
223.114308
  20
22.945256
  11
222.904974
  21
19.669085
  6
DASHED
  0
LINE
  8
XTRKCAD3
  10
223.438447
  20
22.924545
  11
223.229113
  21
19.648374
  6
CONTINUOUS
  0
LINE
  8
XTRKCAD3
  10
222.790169
  20
22.965967
  11
222.580835
  21
19.689796
  6
CONTINUOUS
  0
LINE
  8
XTRKCAD3
  10
224.937500
  20
0.747886
  11
224.937500
  21
12.625000
  6
DASHED
  0
LINE
  8
XTRKCAD3
  10
224.612700
  20
0.747886
  11
224.612700
  21
12.625000
  6
CONTINUOUS
  0
LINE
  8
XTRKCAD3
  10
225.262300
  20
0.747886
  11
225.262300
  21
12.625000
  6
CONTINUOUS
  0
LINE
  8
XTRKCAD3
  10
224.287900
  20
0.747886
  11
225.587100
  21
0.747886
  6
CONTINUOUS
  0
LINE
  8
XTRKCAD3
  10
224.287900
  20
0.947886
  11
225.587100
  21
0.947886
  6
CONTINUOUS
  0
ARC
  10
179.409809
  20
-26.571990
  40
79.037628
  50
67.967153
  51
71.981303
  8
XTRKCAD3
  6
DASHED
  0
ARC
  10
179.409809
  20
-26.571990
  40
79.362428
  50
67.967153
  51
71.981303
  8
XTRKCAD3
  6
CONTINUOUS
  0
ARC
  10
179.409809
  20
-26.571990
  40
78.712828
  50
67.967153
  51
71.981303
  8
XTRKCAD3
  6
CONTINUOUS
  0
ARC
  10
195.923750
  20
15.165044
  40
34.155472
  50
64.287345
  51
67.381294
  8
XTRKCAD3
  6
DASHED
  0
ARC
  10
195.923750
  20
15.165044
  40
34.480272
  50
64.287345
  51
67.381294
  8
XTRKCAD3
  6
CONTINUOUS
  0
ARC
  10
195.923750
  20
15.165044
  40
33.830672
  50
64.287345
  51
67.381294
  8
XTRKCAD3
  6
CONTINUOUS
  0
ARC
  10
200.605638
  20
24.577284
  40
23.644329
  50
51.194877
  51
64.613795
  8
XTRKCAD3
  6
DASHED
  0
ARC
  10
200.605638
  20
24.577284
  40
23.969129
  50
51.194877
  51
64.613795
  8
XTRKCAD3
  6
CONTINUOUS
  0
ARC
  10
200.605638
  20
24.577284
  40
23.319529
  50
51.194877
  51
64.613795
  8
XTRKCAD3
  6
CONTINUOUS
  0
ARC
  10
203.564484
  20
28.454244
  40
18.769262
  50
45.189000
  51
50.816919
  8
XTRKCAD3
  6
DASHED
  0
ARC
  10
203.564484
  20
28.454244
  40
19.094062
  50
45.189000
  51
50.816919
  8
XTRKCAD3
  6
CONTINUOUS
  0
ARC
  10
203.564484
  20
28.454244
  40
18.444462
  50
45.189000
  51
50.816919
  8
XTRKCAD3
  6
CONTINUOUS
  0
ARC
  10
203.629575
  20
28.650417
  40
18.584444
  50
22.151019
  51
44.905121
  8
XTRKCAD3
  6
DASHED
  0
ARC
  10
203.629575
  20
28.650417
  40
18.909244
  50
22.151019
  51
44.905121
  8
XTRKCAD3
  6
CONTINUOUS
  0
ARC
  10
203.629575
  20
28.650417
  40
18.259644
  50
22.151019
  51
44.905121
  8
XTRKCAD3
  6
CONTINUOUS
  0
ARC
  10
197.793317
  20
26.394430
  40
24.840812
  50
13.392349
  51
21.894818
  8
XTRKCAD3
  6
DASHED
  0
ARC
  10
197.793317
  20
26.394430
  40
25.165612
  50
13.392349
  51
21.894818
  8
XTRKCAD3
  6
CONTINUOUS
  0
ARC
  10
197.793317
  20
26.394430
  40
24.516012
  50
13.392349
  51
21.894818
  8
XTRKCAD3
  6
CONTINUOUS
  0
ARC
  10
162.010089
  20
17.865584
  40
61.626416
  50
9.965499
  51
13.400604
  8
XTRKCAD3
  6
DASHED
  0
ARC
  10
162.010089
  20
17.865584
  40
61.951216
  50
9.965499
  51
13.400604
  8
XTRKCAD3
  6
CONTINUOUS
  0
ARC
  10
162.010089
  20
17.865584
  40
61.301616
  50
9.965499
  51
13.400604
  8
XTRKCAD3
  6
CONTINUOUS
  0
ARC
  10
185.477011
  20
12.361380
  40
39.536177
  50
5.705556
  51
11.024183
  8
XTRKCAD3
  6
DASHED
  0
ARC
  10
185.477011
  20
12.361380
  40
39.860977
  50
5.705556
  51
11.024183
  8
XTRKCAD3
  6
CONTINUOUS
  0
ARC
  10
185.477011
  20
12.361380
  40
39.211377
  50
5.705556
  51
11.024183
  8
XTRKCAD3
  6
CONTINUOUS
  0
ARC
  10
183.379469
  20
13.098442
  40
41.560727
  50
359.347297
  51
364.406881
  8
XTRKCAD3
  6
DASHED
  0
ARC
  10
183.379469
  20
13.098442
  40
41.885527
  50
359.347297
  51
364.406881
  8
XTRKCAD3
  6
CONTINUOUS
  0
ARC
  10
183.379469
  20
13.098442
  40
41.235927
  50
359.347297
  51
364.406881
  8
XTRKCAD3
  6
CONTINUOUS
  0
LINE
  8
XTRKCAD3
  10
222.437500
  20
0.747886
  11
222.437500
  21
12.625000
  6
DASHED
  0
LINE
  8
XTRKCAD3
  10
222.112700
  20
0.747886
  11
222.112700
  21
12.625000
  6
CONTINUOUS
  0
LINE
  8
XTRKCAD3
  10
222.762300
  20
0.747886
  11
222.762300
  21
12.625000
  6
CONTINUOUS
  0
LINE
  8
XTRKCAD3
  10
221.787900
  20
0.747886
  11
223.087100
  21
0.747886
  6
CONTINUOUS
  0
LINE
  8
XTRKCAD3
  10
221.787900
  20
0.947886
  11
223.087100
  21
0.947886
  6
CONTINUOUS
  0
ARC
  10
114.568961
  20
27.258978
  40
108.601557
  50
354.129383
  51
355.992473
  8
XTRKCAD3
  6
DASHED
  0
ARC
  10
114.568961
  20
27.258978
  40
108.926357
  50
354.129383
  51
355.992473
  8
XTRKCAD3
  6
CONTINUOUS
  0
ARC
  10
114.568961
  20
27.258978
  40
108.276757
  50
354.129383
  51
355.992473
  8
XTRKCAD3
  6
CONTINUOUS
  0
ARC
  10
259.097688
  20
12.692368
  40
36.660250
  50
174.586583
  51
180.105288
  8
XTRKCAD3
  6
DASHED
  0
ARC
  10
259.097688
  20
12.692368
  40
36.985050
  50
174.586583
  51
180.105288
  8
XTRKCAD3
  6
CONTINUOUS
  0
ARC
  10
259.097688
  20
12.692368
  40
36.335450
  50
174.586583
  51
180.105288
  8
XTRKCAD3
  6
CONTINUOUS
  0
ARC
  10
53.531398
  20
120.871064
  40
105.234973
  50
284.320983
  51
287.115435
  8
XTRKCAD3
  6
DASHED
  0
ARC
  10
53.531398
  20
120.871064
  40
105.559773
  50
284.320983
  51
287.115435
  8
XTRKCAD3
  6
CONTINUOUS
  0
ARC
  10
53.531398
  20
120.871064
  40
104.910173
  50
284.320983
  51
287.115435
  8
XTRKCAD3
  6
CONTINUOUS
  0
ARC
  10
96.107105
  20
-18.728421
  40
40.714016
  50
99.339577
  51
106.561479
  8
XTRKCAD3
  6
DASHED
  0
ARC
  10
96.107105
  20
-18.728421
  40
41.038816
  50
99.339577
  51
106.561479
  8
XTRKCAD3
  6
CONTINUOUS
  0
ARC
  10
96.107105
  20
-18.728421
  40
40.389216
  50
99.339577
  51
106.561479
  8
XTRKCAD3
  6
CONTINUOUS
  0
ARC
  10
93.568694
  20
110.922416
  40
95.382030
  50
297.371493
  51
300.587953
  8
XTRKCAD3
  6
DASHED
  0
ARC
  10
93.568694
  20
110.922416
  40
95.706830
  50
297.371493
  51
300.587953
  8
XTRKCAD3
  6
CONTINUOUS
  0
ARC
  10
93.568694
  20
110.922416
  40
95.057230
  50
297.371493
  51
300.587953
  8
XTRKCAD3
  6
CONTINUOUS
  0
ARC
  10
122.026093
  20
55.941902
  40
33.473385
  50
288.242399
  51
297.382279
  8
XTRKCAD3
  6
DASHED
  0
ARC
  10
122.026093
  20
55.941902
  40
33.798185
  50
288.242399
  51
297.382279
  8
XTRKCAD3
  6
CONTINUOUS
  0
ARC
  10
122.026093
  20
55.941902
  40
33.148585
  50
288.242399
  51
297.382279
  8
XTRKCAD3
  6
CONTINUOUS
  0
ARC
  10
124.429795
  20
49.472733
  40
26.578152
  50
276.159100
  51
287.686641
  8
XTRKCAD3
  6
DASHED
  0
ARC
  10
124.429795
  20
49.472733
  40
26.902952
  50
276.159100
  51
287.686641
  8
XTRKCAD3
  6
CONTINUOUS
  0
ARC
  10
124.429795
  20
49.472733
  40
26.253352
  50
276.159100
  51
287.686641
  8
XTRKCAD3
  6
CONTINUOUS
  0
ARC
  10
123.223389
  20
63.522317
  40
40.677239
  50
270.076976
  51
275.725358
  8
XTRKCAD3
  6
DASHED
  0
ARC
  10
123.223389
  20
63.522317
  40
41.002039
  50
270.076976
  51
275.725358
  8
XTRKCAD3
  6
CONTINUOUS
  0
ARC
  10
123.223389
  20
63.522317
  40
40.352439
  50
270.076976
  51
275.725358
  8
XTRKCAD3
  6
CONTINUOUS
  0
LINE
  8
XTRKCAD3
  10
123.278038
  20
22.845114
  11
121.940762
  21
22.839913
  6
DASHED
  0
LINE
  8
XTRKCAD3
  10
123.279301
  20
22.520316
  11
121.942025
  21
22.515115
  6
CONTINUOUS
  0
LINE
  8
XTRKCAD3
  10
123.276774
  20
23.169911
  11
121.939499
  21
23.164711
  6
CONTINUOUS
  0
ARC
  10
120.307606
  20
63.343555
  40
52.510101
  50
300.295444
  51
307.908839
  8
XTRKCAD3
  6
DASHED
  0
ARC
  10
120.307606
  20
63.343555
  40
52.834901
  50
300.295444
  51
307.908839
  8
XTRKCAD3
  6
CONTINUOUS
  0
ARC
  10
120.307606
  20
63.343555
  40
52.185301
  50
300.295444
  51
307.908839
  8
XTRKCAD3
  6
CONTINUOUS
  0
ARC
  10
-219.324502
  20
488.199452
  40
596.429462
  50
308.574745
  51
309.077561
  8
XTRKCAD3
  6
DASHED
  0
ARC
  10
-219.324502
  20
488.199452
  40
596.754262
  50
308.574745
  51
309.077561
  8
XTRKCAD3
  6
CONTINUOUS
  0
ARC
  10
-219.324502
  20
488.199452
  40
596.104662
  50
308.574745
  51
309.077561
  8
XTRKCAD3
  6
CONTINUOUS
  0
LINE
  8
XTRKCAD3
  10
156.647831
  20
25.195232
  11
158.014731
  21
26.279414
  6
DASHED
  0
LINE
  8
XTRKCAD3
  10
156.445992
  20
25.449704
  11
157.812892
  21
26.533886
  6
CONTINUOUS
  0
LINE
  8
XTRKCAD3
  10
156.849670
  20
24.940760
  11
158.216570
  21
26.024942
  6
CONTINUOUS
  0
LINE
  8
XTRKCAD17
  10
156.865683
  20
20.420189
  11
160.595881
  21
21.864357
  6
DASHED
  0
LINE
  8
XTRKCAD17
  10
156.748417
  20
20.723081
  11
160.478615
  21
22.167249
  6
CONTINUOUS
  0
LINE
  8
XTRKCAD17
  10
156.982949
  20
20.117297
  11
160.713147
  21
21.561465
  6
CONTINUOUS
  0
LINE
  8
XTRKCAD3
  10
160.645133
  20
21.878209
  11
161.250917
  21
22.112742
  6
DASHED
  0
LINE
  8
XTRKCAD3
  10
160.527867
  20
22.181101
  11
161.133651
  21
22.415634
  6
CONTINUOUS
  0
LINE
  8
XTRKCAD3
  10
160.762399
  20
21.575317
  11
161.368184
  21
21.809850
  6
CONTINUOUS
  0
LINE
  8
XTRKCAD3
  10
161.250917
  20
22.112742
  11
170.000000
  21
25.500000
  6
DASHED
  0
LINE
  8
XTRKCAD3
  10
161.133651
  20
22.415634
  11
169.882734
  21
25.802892
  6
CONTINUOUS
  0
LINE
  8
XTRKCAD3
  10
161.368184
  20
21.809850
  11
170.117267
  21
25.197108
  6
CONTINUOUS
  0
ARC
  10
169.927722
  20
-0.298920
  40
24.032676
  50
99.840861
  51
111.164201
  8
XTRKCAD3
  6
DASHED
  0
ARC
  10
169.927722
  20
-0.298920
  40
24.357476
  50
99.840861
  51
111.164201
  8
XTRKCAD3
  6
CONTINUOUS
  0
ARC
  10
169.927722
  20
-0.298920
  40
23.707876
  50
99.840861
  51
111.164201
  8
XTRKCAD3
  6
CONTINUOUS
  0
LINE
  8
XTRKCAD3
  10
165.820244
  20
23.380146
  11
170.506027
  21
24.192963
  6
DASHED
  0
LINE
  8
XTRKCAD3
  10
165.764732
  20
23.700167
  11
170.450515
  21
24.512984
  6
CONTINUOUS
  0
LINE
  8
XTRKCAD3
  10
165.875757
  20
23.060125
  11
170.561540
  21
23.872942
  6
CONTINUOUS
  0
ARC
  10
177.767406
  20
-15.702751
  40
40.551148
  50
91.216081
  51
100.315430
  8
XTRKCAD17
  6
DASHED
  0
ARC
  10
177.767406
  20
-15.702751
  40
40.875948
  50
91.216081
  51
100.315430
  8
XTRKCAD17
  6
CONTINUOUS
  0
ARC
  10
177.767406
  20
-15.702751
  40
40.226348
  50
91.216081
  51
100.315430
  8
XTRKCAD17
  6
CONTINUOUS
  0
ARC
  10
177.989973
  20
-172.477894
  40
197.320131
  50
88.911646
  51
90.314526
  8
XTRKCAD17
  6
DASHED
  0
ARC
  10
177.989973
  20
-172.477894
  40
197.644931
  50
88.911646
  51
90.314526
  8
XTRKCAD17
  6
CONTINUOUS
  0
ARC
  10
177.989973
  20
-172.477894
  40
196.995331
  50
88.911646
  51
90.314526
  8
XTRKCAD17
  6
CONTINUOUS
  0
LINE
  8
XTRKCAD17
  10
181.737913
  20
24.806639
  11
183.348358
  21
24.795982
  6
DASHED
  0
LINE
  8
XTRKCAD17
  10
181.740062
  20
25.131432
  11
183.350507
  21
25.120775
  6
CONTINUOUS
  0
LINE
  8
XTRKCAD17
  10
181.735764
  20
24.481846
  11
183.346209
  21
24.471189
  6
CONTINUOUS
  0
LINE
  8
XTRKCAD3
  10
179.994178
  20
29.369304
  11
197.887949
  21
36.296981
  6
DASHED
  0
LINE
  8
XTRKCAD3
  10
179.876911
  20
29.672196
  11
197.770683
  21
36.599873
  6
CONTINUOUS
  0
LINE
  8
XTRKCAD3
  10
180.111444
  20
29.066412
  11
198.005215
  21
35.994089
  6
CONTINUOUS
  0
LINE
  8
XTRKCAD3
  10
198.122482
  20
35.691197
  11
197.653416
  21
36.902765
  6
CONTINUOUS
  0
LINE
  8
XTRKCAD3
  10
197.935972
  20
35.618988
  11
197.466906
  21
36.830557
  6
CONTINUOUS
  0
LINE
  8
XTRKCAD3
  10
5.796875
  20
102.875000
  11
5.796875
  21
87.500000
  6
DASHED
  0
LINE
  8
XTRKCAD3
  10
6.121675
  20
102.875000
  11
6.121675
  21
87.500000
  6
CONTINUOUS
  0
LINE
  8
XTRKCAD3
  10
5.472075
  20
102.875000
  11
5.472075
  21
87.500000
  6
CONTINUOUS
  0
LINE
  8
XTRKCAD3
  10
6.446475
  20
102.875000
  11
5.147275
  21
102.875000
  6
CONTINUOUS
  0
LINE
  8
XTRKCAD3
  10
6.446475
  20
102.675000
  11
5.147275
  21
102.675000
  6
CONTINUOUS
  0
LINE
  8
XTRKCAD3
  10
5.762921
  20
35.915546
  11
5.973242
  21
35.300936
  6
DASHED
  0
LINE
  8
XTRKCAD3
  10
6.070226
  20
36.020706
  11
6.280547
  21
35.406096
  6
CONTINUOUS
  0
LINE
  8
XTRKCAD3
  10
5.455616
  20
35.810386
  11
5.665937
  21
35.195776
  6
CONTINUOUS
  0
LINE
  8
XTRKCAD3
  10
5.973242
  20
35.300936
  11
9.010811
  21
26.424386
  6
DASHED
  0
LINE
  8
XTRKCAD3
  10
6.280547
  20
35.406096
  11
9.318116
  21
26.529546
  6
CONTINUOUS
  0
LINE
  8
XTRKCAD3
  10
5.665937
  20
35.195776
  11
8.703506
  21
26.319226
  6
CONTINUOUS
  0
ARC
  10
-16.764940
  20
27.519893
  40
24.032676
  50
7.567690
  51
18.891030
  8
XTRKCAD3
  6
DASHED
  0
ARC
  10
-16.764940
  20
27.519893
  40
24.357476
  50
7.567690
  51
18.891030
  8
XTRKCAD3
  6
CONTINUOUS
  0
ARC
  10
-16.764940
  20
27.519893
  40
23.707876
  50
7.567690
  51
18.891030
  8
XTRKCAD3
  6
CONTINUOUS
  0
LINE
  8
XTRKCAD3
  10
7.058411
  20
30.684934
  11
7.684732
  21
25.970599
  6
DASHED
  0
LINE
  8
XTRKCAD3
  10
7.380382
  20
30.727710
  11
8.006703
  21
26.013375
  6
CONTINUOUS
  0
LINE
  8
XTRKCAD3
  10
6.736440
  20
30.642159
  11
7.362761
  21
25.927824
  6
CONTINUOUS
  0
LINE
  8
XTRKCAD3
  10
15.175043
  20
79.971660
  11
23.413833
  21
92.190082
  6
DASHED
  0
LINE
  8
XTRKCAD3
  10
14.905745
  20
80.153246
  11
23.144535
  21
92.371668
  6
CONTINUOUS
  0
LINE
  8
XTRKCAD3
  10
15.444341
  20
79.790074
  11
23.683131
  21
92.008496
  6
CONTINUOUS
  0
LINE
  8
XTRKCAD3
  10
23.952430
  20
91.826910
  11
22.875236
  21
92.553254
  6
CONTINUOUS
  0
LINE
  8
XTRKCAD3
  10
23.840616
  20
91.661086
  11
22.763422
  21
92.387430
  6
CONTINUOUS
  0
ARC
  10
115.550649
  20
49.135882
  40
107.494536
  50
170.882550
  51
173.570023
  8
XTRKCAD17
  6
DASHED
  0
ARC
  10
115.550649
  20
49.135882
  40
107.819336
  50
170.882550
  51
173.570023
  8
XTRKCAD17
  6
CONTINUOUS
  0
ARC
  10
115.550649
  20
49.135882
  40
107.169736
  50
170.882550
  51
173.570023
  8
XTRKCAD17
  6
CONTINUOUS
  0
ARC
  10
44.735107
  20
60.505593
  40
35.772077
  50
162.831952
  51
170.890105
  8
XTRKCAD17
  6
DASHED
  0
ARC
  10
44.735107
  20
60.505593
  40
36.096877
  50
162.831952
  51
170.890105
  8
XTRKCAD17
  6
CONTINUOUS
  0
ARC
  10
44.735107
  20
60.505593
  40
35.447277
  50
162.831952
  51
170.890105
  8
XTRKCAD17
  6
CONTINUOUS
  0
ARC
  10
36.627197
  20
62.771109
  40
27.357661
  50
151.804752
  51
162.353011
  8
XTRKCAD17
  6
DASHED
  0
ARC
  10
36.627197
  20
62.771109
  40
27.682461
  50
151.804752
  51
162.353011
  8
XTRKCAD17
  6
CONTINUOUS
  0
ARC
  10
36.627197
  20
62.771109
  40
27.032861
  50
151.804752
  51
162.353011
  8
XTRKCAD17
  6
CONTINUOUS
  0
ARC
  10
48.542754
  20
56.035922
  40
41.042717
  50
146.104509
  51
151.377330
  8
XTRKCAD17
  6
DASHED
  0
ARC
  10
48.542754
  20
56.035922
  40
41.367517
  50
146.104509
  51
151.377330
  8
XTRKCAD17
  6
CONTINUOUS
  0
ARC
  10
48.542754
  20
56.035922
  40
40.717917
  50
146.104509
  51
151.377330
  8
XTRKCAD17
  6
CONTINUOUS
  0
LINE
  8
XTRKCAD17
  10
14.474993
  20
78.924616
  11
15.175043
  21
79.971660
  6
DASHED
  0
LINE
  8
XTRKCAD17
  10
14.204984
  20
79.105143
  11
14.905034
  21
80.152187
  6
CONTINUOUS
  0
LINE
  8
XTRKCAD17
  10
14.745003
  20
78.744089
  11
15.445052
  21
79.791133
  6
CONTINUOUS
  0
ARC
  10
113.938543
  20
250.693717
  40
248.119642
  50
277.475280
  51
279.495884
  8
XTRKCAD17
  6
DASHED
  0
ARC
  10
113.938543
  20
250.693717
  40
248.444442
  50
277.475280
  51
279.495884
  8
XTRKCAD17
  6
CONTINUOUS
  0
ARC
  10
113.938543
  20
250.693717
  40
247.794842
  50
277.475280
  51
279.495884
  8
XTRKCAD17
  6
CONTINUOUS
  0
LINE
  8
XTRKCAD17
  10
154.872517
  20
5.973947
  11
157.753223
  21
6.432998
  6
DASHED
  0
LINE
  8
XTRKCAD17
  10
154.821404
  20
6.294700
  11
157.702110
  21
6.753751
  6
CONTINUOUS
  0
LINE
  8
XTRKCAD17
  10
154.923630
  20
5.653194
  11
157.804336
  21
6.112245
  6
CONTINUOUS
  0
ARC
  10
169.024303
  20
-67.952130
  40
75.234197
  50
89.732920
  51
98.616105
  8
XTRKCAD17
  6
DASHED
  0
ARC
  10
169.024303
  20
-67.952130
  40
75.558997
  50
89.732920
  51
98.616105
  8
XTRKCAD17
  6
CONTINUOUS
  0
ARC
  10
169.024303
  20
-67.952130
  40
74.909397
  50
89.732920
  51
98.616105
  8
XTRKCAD17
  6
CONTINUOUS
  0
LINE
  8
XTRKCAD3
  10
16.761654
  20
40.707728
  11
16.755796
  21
41.357302
  6
DASHED
  0
LINE
  8
XTRKCAD3
  10
16.436867
  20
40.704799
  11
16.431009
  21
41.354373
  6
CONTINUOUS
  0
LINE
  8
XTRKCAD3
  10
17.086441
  20
40.710657
  11
17.080583
  21
41.360231
  6
CONTINUOUS
  0
LINE
  8
XTRKCAD3
  10
16.755796
  20
41.357302
  11
16.659652
  21
52.018472
  6
DASHED
  0
LINE
  8
XTRKCAD3
  10
16.431009
  20
41.354373
  11
16.334865
  21
52.015543
  6
CONTINUOUS
  0
LINE
  8
XTRKCAD3
  10
17.080583
  20
41.360231
  11
16.984438
  21
52.021401
  6
CONTINUOUS
  0
ARC
  10
43.967148
  20
41.602699
  40
27.212458
  50
171.054350
  51
180.516690
  8
XTRKCAD3
  6
DASHED
  0
ARC
  10
43.967148
  20
41.602699
  40
27.537258
  50
171.054350
  51
180.516690
  8
XTRKCAD3
  6
CONTINUOUS
  0
ARC
  10
43.967148
  20
41.602699
  40
26.887658
  50
171.054350
  51
180.516690
  8
XTRKCAD3
  6
CONTINUOUS
  0
LINE
  8
XTRKCAD3
  10
17.085694
  20
45.834168
  11
18.061169
  21
52.031111
  6
DASHED
  0
LINE
  8
XTRKCAD3
  10
16.764845
  20
45.884673
  11
17.740319
  21
52.081617
  6
CONTINUOUS
  0
LINE
  8
XTRKCAD3
  10
17.406543
  20
45.783662
  11
18.382018
  21
51.980606
  6
CONTINUOUS
  0
ARC
  10
6.703443
  20
66.063701
  40
47.694124
  50
31.895425
  51
36.886546
  8
XTRKCAD17
  6
DASHED
  0
ARC
  10
6.703443
  20
66.063701
  40
48.018924
  50
31.895425
  51
36.886546
  8
XTRKCAD17
  6
CONTINUOUS
  0
ARC
  10
6.703443
  20
66.063701
  40
47.369324
  50
31.895425
  51
36.886546
  8
XTRKCAD17
  6
CONTINUOUS
  0
ARC
  10
26.750606
  20
80.807134
  40
22.811674
  50
37.491326
  51
40.966606
  8
XTRKCAD17
  6
DASHED
  0
ARC
  10
26.750606
  20
80.807134
  40
23.136474
  50
37.491326
  51
40.966606
  8
XTRKCAD17
  6
CONTINUOUS
  0
ARC
  10
26.750606
  20
80.807134
  40
22.486874
  50
37.491326
  51
40.966606
  8
XTRKCAD17
  6
CONTINUOUS
  0
ARC
  10
29.753641
  20
83.492858
  40
18.783387
  50
40.786265
  51
57.679943
  8
XTRKCAD17
  6
DASHED
  0
ARC
  10
29.753641
  20
83.492858
  40
19.108187
  50
40.786265
  51
57.679943
  8
XTRKCAD17
  6
CONTINUOUS
  0
ARC
  10
29.753641
  20
83.492858
  40
18.458587
  50
40.786265
  51
57.679943
  8
XTRKCAD17
  6
CONTINUOUS
  0
ARC
  10
29.996991
  20
83.592203
  40
18.569954
  50
58.150579
  51
75.239164
  8
XTRKCAD17
  6
DASHED
  0
ARC
  10
29.996991
  20
83.592203
  40
18.894754
  50
58.150579
  51
75.239164
  8
XTRKCAD17
  6
CONTINUOUS
  0
ARC
  10
29.996991
  20
83.592203
  40
18.245154
  50
58.150579
  51
75.239164
  8
XTRKCAD17
  6
CONTINUOUS
  0
ARC
  10
29.329316
  20
81.103769
  40
21.146380
  50
75.207667
  51
90.214907
  8
XTRKCAD17
  6
DASHED
  0
ARC
  10
29.329316
  20
81.103769
  40
21.471180
  50
75.207667
  51
90.214907
  8
XTRKCAD17
  6
CONTINUOUS
  0
ARC
  10
29.329316
  20
81.103769
  40
20.821580
  50
75.207667
  51
90.214907
  8
XTRKCAD17
  6
CONTINUOUS
  0
ARC
  10
29.254263
  20
80.173641
  40
22.076359
  50
90.011064
  51
107.220177
  8
XTRKCAD17
  6
DASHED
  0
ARC
  10
29.254263
  20
80.173641
  40
22.401159
  50
90.011064
  51
107.220177
  8
XTRKCAD17
  6
CONTINUOUS
  0
ARC
  10
29.254263
  20
80.173641
  40
21.751559
  50
90.011064
  51
107.220177
  8
XTRKCAD17
  6
CONTINUOUS
  0
ARC
  10
28.250583
  20
83.400847
  40
18.696682
  50
107.210086
  51
127.526396
  8
XTRKCAD17
  6
DASHED
  0
ARC
  10
28.250583
  20
83.400847
  40
19.021482
  50
107.210086
  51
127.526396
  8
XTRKCAD17
  6
CONTINUOUS
  0
ARC
  10
28.250583
  20
83.400847
  40
18.371882
  50
107.210086
  51
127.526396
  8
XTRKCAD17
  6
CONTINUOUS
  0
ARC
  10
29.038169
  20
82.615982
  40
19.799419
  50
127.950431
  51
145.079131
  8
XTRKCAD17
  6
DASHED
  0
ARC
  10
29.038169
  20
82.615982
  40
20.124219
  50
127.950431
  51
145.079131
  8
XTRKCAD17
  6
CONTINUOUS
  0
ARC
  10
29.038169
  20
82.615982
  40
19.474619
  50
127.950431
  51
145.079131
  8
XTRKCAD17
  6
CONTINUOUS
  0
ARC
  10
33.891793
  20
79.332171
  40
25.659059
  50
145.270925
  51
155.181850
  8
XTRKCAD17
  6
DASHED
  0
ARC
  10
33.891793
  20
79.332171
  40
25.983859
  50
145.270925
  51
155.181850
  8
XTRKCAD17
  6
CONTINUOUS
  0
ARC
  10
33.891793
  20
79.332171
  40
25.334259
  50
145.270925
  51
155.181850
  8
XTRKCAD17
  6
CONTINUOUS
  0
ARC
  10
44.053379
  20
74.388583
  40
36.957854
  50
154.837991
  51
157.133266
  8
XTRKCAD17
  6
DASHED
  0
ARC
  10
44.053379
  20
74.388583
  40
37.282654
  50
154.837991
  51
157.133266
  8
XTRKCAD17
  6
CONTINUOUS
  0
ARC
  10
44.053379
  20
74.388583
  40
36.633054
  50
154.837991
  51
157.133266
  8
XTRKCAD17
  6
CONTINUOUS
  0
ARC
  10
55.833112
  20
69.579464
  40
49.680818
  50
157.301989
  51
168.143116
  8
XTRKCAD17
  6
DASHED
  0
ARC
  10
55.833112
  20
69.579464
  40
50.005618
  50
157.301989
  51
168.143116
  8
XTRKCAD17
  6
CONTINUOUS
  0
ARC
  10
55.833112
  20
69.579464
  40
49.356018
  50
157.301989
  51
168.143116
  8
XTRKCAD17
  6
CONTINUOUS
  0
ARC
  10
88.591149
  20
63.038852
  40
83.084464
  50
168.370453
  51
173.231929
  8
XTRKCAD17
  6
DASHED
  0
ARC
  10
88.591149
  20
63.038852
  40
83.409264
  50
168.370453
  51
173.231929
  8
XTRKCAD17
  6
CONTINUOUS
  0
ARC
  10
88.591149
  20
63.038852
  40
82.759664
  50
168.370453
  51
173.231929
  8
XTRKCAD17
  6
CONTINUOUS
  0
LINE
  8
XTRKCAD17
  10
6.085673
  20
72.830406
  11
5.802878
  21
70.496829
  6
DASHED
  0
LINE
  8
XTRKCAD17
  10
6.408114
  20
72.791331
  11
6.125319
  21
70.457754
  6
CONTINUOUS
  0
LINE
  8
XTRKCAD17
  10
5.763232
  20
72.869481
  11
5.480437
  21
70.535904
  6
CONTINUOUS
  0
LINE
  8
XTRKCAD3
  10
42.334707
  20
54.068881
  11
45.796623
  21
58.969405
  6
DASHED
  0
LINE
  8
XTRKCAD3
  10
42.069425
  20
54.256286
  11
45.531341
  21
59.156810
  6
CONTINUOUS
  0
LINE
  8
XTRKCAD3
  10
42.599989
  20
53.881476
  11
46.061905
  21
58.782000
  6
CONTINUOUS
  0
ARC
  10
-132.651785
  20
86.425921
  40
183.826531
  50
355.559608
  51
357.045684
  8
XTRKCAD3
  6
DASHED
  0
ARC
  10
-132.651785
  20
86.425921
  40
184.151331
  50
355.559608
  51
357.045684
  8
XTRKCAD3
  6
CONTINUOUS
  0
ARC
  10
-132.651785
  20
86.425921
  40
183.501731
  50
355.559608
  51
357.045684
  8
XTRKCAD3
  6
CONTINUOUS
  0
ARC
  10
17.572620
  20
74.599317
  40
33.137788
  50
347.593415
  51
355.837024
  8
XTRKCAD3
  6
DASHED
  0
ARC
  10
17.572620
  20
74.599317
  40
33.462588
  50
347.593415
  51
355.837024
  8
XTRKCAD3
  6
CONTINUOUS
  0
ARC
  10
17.572620
  20
74.599317
  40
32.812988
  50
347.593415
  51
355.837024
  8
XTRKCAD3
  6
CONTINUOUS
  0
ARC
  10
30.469312
  20
71.943699
  40
19.972497
  50
333.408139
  51
347.085012
  8
XTRKCAD3
  6
DASHED
  0
ARC
  10
30.469312
  20
71.943699
  40
20.297297
  50
333.408139
  51
347.085012
  8
XTRKCAD3
  6
CONTINUOUS
  0
ARC
  10
30.469312
  20
71.943699
  40
19.647697
  50
333.408139
  51
347.085012
  8
XTRKCAD3
  6
CONTINUOUS
  0
ARC
  10
24.483754
  20
75.356130
  40
26.854981
  50
324.987016
  51
332.614167
  8
XTRKCAD3
  6
DASHED
  0
ARC
  10
24.483754
  20
75.356130
  40
27.179781
  50
324.987016
  51
332.614167
  8
XTRKCAD3
  6
CONTINUOUS
  0
ARC
  10
24.483754
  20
75.356130
  40
26.530181
  50
324.987016
  51
332.614167
  8
XTRKCAD3
  6
CONTINUOUS
  0
LINE
  8
XTRKCAD3
  10
46.478576
  20
59.947761
  11
45.796623
  21
58.969405
  6
DASHED
  0
LINE
  8
XTRKCAD3
  10
46.745033
  20
59.762030
  11
46.063080
  21
58.783674
  6
CONTINUOUS
  0
LINE
  8
XTRKCAD3
  10
46.212120
  20
60.133492
  11
45.530166
  21
59.155136
  6
CONTINUOUS
  0
ARC
  10
51.276494
  20
71.281561
  40
46.881891
  50
175.747878
  51
180.971282
  8
XTRKCAD17
  6
DASHED
  0
ARC
  10
51.276494
  20
71.281561
  40
47.206691
  50
175.747878
  51
180.971282
  8
XTRKCAD17
  6
CONTINUOUS
  0
ARC
  10
51.276494
  20
71.281561
  40
46.557091
  50
175.747878
  51
180.971282
  8
XTRKCAD17
  6
CONTINUOUS
  0
ARC
  10
63.223647
  20
69.202515
  40
58.962270
  50
170.440508
  51
174.593866
  8
XTRKCAD17
  6
DASHED
  0
ARC
  10
63.223647
  20
69.202515
  40
59.287070
  50
170.440508
  51
174.593866
  8
XTRKCAD17
  6
CONTINUOUS
  0
ARC
  10
63.223647
  20
69.202515
  40
58.637470
  50
170.440508
  51
174.593866
  8
XTRKCAD17
  6
CONTINUOUS
  0
ARC
  10
-57.269708
  20
89.501997
  40
63.229046
  50
350.434099
  51
354.307187
  8
XTRKCAD17
  6
DASHED
  0
ARC
  10
-57.269708
  20
89.501997
  40
63.553846
  50
350.434099
  51
354.307187
  8
XTRKCAD17
  6
CONTINUOUS
  0
ARC
  10
-57.269708
  20
89.501997
  40
62.904246
  50
350.434099
  51
354.307187
  8
XTRKCAD17
  6
CONTINUOUS
  0
ARC
  10
-42.254673
  20
87.043418
  40
48.053718
  50
355.448365
  51
360.544403
  8
XTRKCAD17
  6
DASHED
  0
ARC
  10
-42.254673
  20
87.043418
  40
48.378518
  50
355.448365
  51
360.544403
  8
XTRKCAD17
  6
CONTINUOUS
  0
ARC
  10
-42.254673
  20
87.043418
  40
47.728918
  50
355.448365
  51
360.544403
  8
XTRKCAD17
  6
CONTINUOUS
  0
LINE
  8
XTRKCAD17
  10
12.286413
  20
29.414320
  11
28.117308
  21
12.723382
  6
DASHED
  0
LINE
  8
XTRKCAD17
  10
12.522072
  20
29.637837
  11
28.352967
  21
12.946899
  6
CONTINUOUS
  0
LINE
  8
XTRKCAD17
  10
12.050754
  20
29.190803
  11
27.881649
  21
12.499865
  6
CONTINUOUS
  0
LINE
  8
XTRKCAD17
  10
59.762795
  20
3.281250
  11
51.142554
  21
3.258036
  6
DASHED
  0
LINE
  8
XTRKCAD17
  10
59.763670
  20
2.956451
  11
51.143429
  21
2.933237
  6
CONTINUOUS
  0
LINE
  8
XTRKCAD17
  10
59.761920
  20
3.606049
  11
51.141679
  21
3.582835
  6
CONTINUOUS
  0
ARC
  10
51.277114
  20
72.050242
  40
68.792337
  50
266.295586
  51
269.887928
  8
XTRKCAD17
  6
DASHED
  0
ARC
  10
51.277114
  20
72.050242
  40
69.117137
  50
266.295586
  51
269.887928
  8
XTRKCAD17
  6
CONTINUOUS
  0
ARC
  10
51.277114
  20
72.050242
  40
68.467537
  50
266.295586
  51
269.887928
  8
XTRKCAD17
  6
CONTINUOUS
  0
ARC
  10
49.090453
  20
38.322181
  40
34.993468
  50
259.248233
  51
266.300416
  8
XTRKCAD17
  6
DASHED
  0
ARC
  10
49.090453
  20
38.322181
  40
35.318268
  50
259.248233
  51
266.300416
  8
XTRKCAD17
  6
CONTINUOUS
  0
ARC
  10
49.090453
  20
38.322181
  40
34.668668
  50
259.248233
  51
266.300416
  8
XTRKCAD17
  6
CONTINUOUS
  0
ARC
  10
46.848433
  20
26.753025
  40
23.209197
  50
238.081399
  51
259.357803
  8
XTRKCAD17
  6
DASHED
  0
ARC
  10
46.848433
  20
26.753025
  40
23.533997
  50
238.081399
  51
259.357803
  8
XTRKCAD17
  6
CONTINUOUS
  0
ARC
  10
46.848433
  20
26.753025
  40
22.884397
  50
238.081399
  51
259.357803
  8
XTRKCAD17
  6
CONTINUOUS
  0
ARC
  10
48.176415
  20
28.275764
  40
25.205878
  50
227.551947
  51
237.349216
  8
XTRKCAD17
  6
DASHED
  0
ARC
  10
48.176415
  20
28.275764
  40
25.530678
  50
227.551947
  51
237.349216
  8
XTRKCAD17
  6
CONTINUOUS
  0
ARC
  10
48.176415
  20
28.275764
  40
24.881078
  50
227.551947
  51
237.349216
  8
XTRKCAD17
  6
CONTINUOUS
  0
ARC
  10
69.876711
  20
51.440408
  40
56.946078
  50
222.834988
  51
227.171515
  8
XTRKCAD17
  6
DASHED
  0
ARC
  10
69.876711
  20
51.440408
  40
57.270878
  50
222.834988
  51
227.171515
  8
XTRKCAD17
  6
CONTINUOUS
  0
ARC
  10
69.876711
  20
51.440408
  40
56.621278
  50
222.834988
  51
227.171515
  8
XTRKCAD17
  6
CONTINUOUS
  0
LINE
  8
XTRKCAD3
  10
132.356313
  20
3.281250
  11
133.005913
  21
3.281250
  6
DASHED
  0
LINE
  8
XTRKCAD3
  10
132.356313
  20
3.606050
  11
133.005913
  21
3.606050
  6
CONTINUOUS
  0
LINE
  8
XTRKCAD3
  10
132.356313
  20
2.956450
  11
133.005913
  21
2.956450
  6
CONTINUOUS
  0
LINE
  8
XTRKCAD3
  10
133.005913
  20
3.281250
  11
146.218518
  21
3.281250
  6
DASHED
  0
LINE
  8
XTRKCAD3
  10
133.005913
  20
3.606050
  11
146.218518
  21
3.606050
  6
CONTINUOUS
  0
LINE
  8
XTRKCAD3
  10
133.005913
  20
2.956450
  11
146.218518
  21
2.956450
  6
CONTINUOUS
  0
ARC
  10
133.005913
  20
35.405946
  40
32.124696
  50
270.000000
  51
277.125015
  8
XTRKCAD3
  6
DASHED
  0
ARC
  10
133.005913
  20
35.405946
  40
32.449496
  50
270.000000
  51
277.125015
  8
XTRKCAD3
  6
CONTINUOUS
  0
ARC
  10
133.005913
  20
35.405946
  40
31.799896
  50
270.000000
  51
277.125015
  8
XTRKCAD3
  6
CONTINUOUS
  0
LINE
  8
XTRKCAD3
  10
136.990490
  20
3.529321
  11
146.218518
  21
4.682824
  6
DASHED
  0
LINE
  8
XTRKCAD3
  10
136.950204
  20
3.851613
  11
146.178232
  21
5.005116
  6
CONTINUOUS
  0
LINE
  8
XTRKCAD3
  10
137.030776
  20
3.207029
  11
146.258804
  21
4.360532
  6
CONTINUOUS
  0
LINE
  8
XTRKCAD3
  10
146.218518
  20
3.281250
  11
175.866313
  21
3.331713
  6
DASHED
  0
LINE
  8
XTRKCAD3
  10
146.217965
  20
3.606050
  11
175.865760
  21
3.656512
  6
CONTINUOUS
  0
LINE
  8
XTRKCAD3
  10
146.219071
  20
2.956450
  11
175.866866
  21
3.006913
  6
CONTINUOUS
  0
LINE
  8
XTRKCAD3
  10
175.866313
  20
3.331713
  11
185.748849
  21
3.310364
  6
DASHED
  0
LINE
  8
XTRKCAD3
  10
175.867015
  20
3.656512
  11
185.749551
  21
3.635163
  6
CONTINUOUS
  0
LINE
  8
XTRKCAD3
  10
175.865612
  20
3.006914
  11
185.748147
  21
2.985565
  6
CONTINUOUS
  0
LINE
  8
XTRKCAD3
  10
176.125000
  20
21.358482
  11
188.676923
  21
21.358482
  6
DASHED
  0
LINE
  8
XTRKCAD3
  10
176.125000
  20
21.683282
  11
188.676923
  21
21.683282
  6
CONTINUOUS
  0
LINE
  8
XTRKCAD3
  10
176.125000
  20
21.033682
  11
188.676923
  21
21.033682
  6
CONTINUOUS
  0
LINE
  8
XTRKCAD3
  10
188.676923
  20
20.708882
  11
188.676923
  21
22.008082
  6
CONTINUOUS
  0
LINE
  8
XTRKCAD3
  10
188.476923
  20
20.708882
  11
188.476923
  21
22.008082
  6
CONTINUOUS
  0
LINE
  8
XTRKCAD17
  10
157.371710
  20
19.113151
  11
164.357718
  21
20.365269
  6
DASHED
  0
LINE
  8
XTRKCAD17
  10
157.314408
  20
19.432856
  11
164.300417
  21
20.684975
  6
CONTINUOUS
  0
LINE
  8
XTRKCAD17
  10
157.429012
  20
18.793446
  11
164.415020
  21
20.045564
  6
CONTINUOUS
  0
ARC
  10
183.998849
  20
-94.517203
  40
116.549373
  50
98.539007
  51
99.701895
  8
XTRKCAD17
  6
DASHED
  0
ARC
  10
183.998849
  20
-94.517203
  40
116.874173
  50
98.539007
  51
99.701895
  8
XTRKCAD17
  6
CONTINUOUS
  0
ARC
  10
183.998849
  20
-94.517203
  40
116.224573
  50
98.539007
  51
99.701895
  8
XTRKCAD17
  6
CONTINUOUS
  0
ARC
  10
175.077321
  20
-37.343677
  40
58.685869
  50
91.286916
  51
98.213547
  8
XTRKCAD17
  6
DASHED
  0
ARC
  10
175.077321
  20
-37.343677
  40
59.010669
  50
91.286916
  51
98.213547
  8
XTRKCAD17
  6
CONTINUOUS
  0
ARC
  10
175.077321
  20
-37.343677
  40
58.361069
  50
91.286916
  51
98.213547
  8
XTRKCAD17
  6
CONTINUOUS
  0
ARC
  10
176.078992
  20
-65.156536
  40
86.515031
  50
89.969530
  51
91.536437
  8
XTRKCAD17
  6
DASHED
  0
ARC
  10
176.078992
  20
-65.156536
  40
86.839831
  50
89.969530
  51
91.536437
  8
XTRKCAD17
  6
CONTINUOUS
  0
ARC
  10
176.078992
  20
-65.156536
  40
86.190231
  50
89.969530
  51
91.536437
  8
XTRKCAD17
  6
CONTINUOUS
  0
LINE
  8
XTRKCAD17
  10
170.000000
  20
25.500000
  11
179.994178
  21
29.369304
  6
DASHED
  0
LINE
  8
XTRKCAD17
  10
169.882734
  20
25.802892
  11
179.876911
  21
29.672196
  6
CONTINUOUS
  0
LINE
  8
XTRKCAD17
  10
170.117266
  20
25.197108
  11
180.111444
  21
29.066412
  6
CONTINUOUS
  0
ENDSEC
  0
EOF
