  0
SECTION
  2
HEADER
  9
$ACADVER
  1
AC1009
  9
$MEASUREMENT
  70
0
  9
$INSUNITS
  70
1
  9
$DIMTXT
  40
1.0
  9
$DIMASZ
  40
0.8
  9
$EXTMIN
  10
0.000000
  20
0.000000
  9
$EXTMAX
  10
240.000000
  20
151.000000
  9
$TEXTSTYLE
  7
STANDARD
  0
ENDSEC
  0
SECTION
  2
TABLES
  0
TABLE
  2
LTYPE
  0
LTYPE
  2
CONTINUOUS
  70
0
  3
Solid line
  72
65
  73
0
  40
0
  0
LTYPE
  2
DASHED
  70
0
  3
__ __ __ __ __ __ __ __ __ __ __ __ __ __ __
  72
65
  73
2
  40
0.15
  49
0.1
  49
-0.05
  0
LTYPE
  2
DOT
  70
0
  3
...............................................
  72
65
  73
2
  40
0.1
  49
0
  49
-0.05
  0
ENDTAB
  0
TABLE
  2
LAYER
  70
0
  0
LAYER
  2
XTRKCAD1
  6
CONTINUOUS
  62
7
  70
0
  0
LAYER
  2
XTRKCAD2
  6
CONTINUOUS
  62
7
  70
0
  0
LAYER
  2
XTRKCAD3
  6
CONTINUOUS
  62
7
  70
0
  0
LAYER
  2
XTRKCAD4
  6
CONTINUOUS
  62
7
  70
0
  0
LAYER
  2
XTRKCAD5
  6
CONTINUOUS
  62
7
  70
0
  0
LAYER
  2
XTRKCAD6
  6
CONTINUOUS
  62
7
  70
0
  0
LAYER
  2
XTRKCAD7
  6
CONTINUOUS
  62
7
  70
0
  0
LAYER
  2
XTRKCAD8
  6
CONTINUOUS
  62
7
  70
0
  0
LAYER
  2
XTRKCAD9
  6
CONTINUOUS
  62
7
  70
0
  0
LAYER
  2
XTRKCAD10
  6
CONTINUOUS
  62
7
  70
0
  0
ENDTAB
  0
ENDSEC
  0
SECTION
  2
ENTITIES
  0
LINE
  8
XTRKCAD3
  10
17.247844
  20
78.573986
  11
25.486634
  21
90.792408
  6
DASHED
  0
LINE
  8
XTRKCAD3
  10
16.978546
  20
78.755572
  11
25.217336
  21
90.973994
  6
CONTINUOUS
  0
LINE
  8
XTRKCAD3
  10
17.517142
  20
78.392400
  11
25.755932
  21
90.610822
  6
CONTINUOUS
  0
LINE
  8
XTRKCAD3
  10
26.025231
  20
90.429236
  11
24.948037
  21
91.155580
  6
CONTINUOUS
  0
LINE
  8
XTRKCAD3
  10
25.913417
  20
90.263412
  11
24.836223
  21
90.989756
  6
CONTINUOUS
  0
ARC
  10
-25.969138
  20
86.725744
  40
76.265741
  50
349.098916
  51
352.655121
  8
XTRKCAD3
  6
DASHED
  0
ARC
  10
-25.969138
  20
86.725744
  40
76.590541
  50
349.098916
  51
352.655121
  8
XTRKCAD3
  6
CONTINUOUS
  0
ARC
  10
-25.969138
  20
86.725744
  40
75.940941
  50
349.098916
  51
352.655121
  8
XTRKCAD3
  6
CONTINUOUS
  0
ARC
  10
19.266621
  20
78.008656
  40
30.197732
  50
340.150169
  51
349.108542
  8
XTRKCAD3
  6
DASHED
  0
ARC
  10
19.266621
  20
78.008656
  40
30.522532
  50
340.150169
  51
349.108542
  8
XTRKCAD3
  6
CONTINUOUS
  0
ARC
  10
19.266621
  20
78.008656
  40
29.872932
  50
340.150169
  51
349.108542
  8
XTRKCAD3
  6
CONTINUOUS
  0
ARC
  10
22.934905
  20
76.965305
  40
26.394443
  50
329.313055
  51
339.576588
  8
XTRKCAD3
  6
DASHED
  0
ARC
  10
22.934905
  20
76.965305
  40
26.719243
  50
329.313055
  51
339.576588
  8
XTRKCAD3
  6
CONTINUOUS
  0
ARC
  10
22.934905
  20
76.965305
  40
26.069643
  50
329.313055
  51
339.576588
  8
XTRKCAD3
  6
CONTINUOUS
  0
ARC
  10
1.181676
  20
90.536455
  40
52.030643
  50
323.479870
  51
328.686389
  8
XTRKCAD3
  6
DASHED
  0
ARC
  10
1.181676
  20
90.536455
  40
52.355443
  50
323.479870
  51
328.686389
  8
XTRKCAD3
  6
CONTINUOUS
  0
ARC
  10
1.181676
  20
90.536455
  40
51.705843
  50
323.479870
  51
328.686389
  8
XTRKCAD3
  6
CONTINUOUS
  0
LINE
  8
XTRKCAD3
  10
16.718759
  20
52.031447
  11
16.654214
  21
72.756709
  6
DASHED
  0
LINE
  8
XTRKCAD3
  10
16.393961
  20
52.030435
  11
16.329416
  21
72.755697
  6
CONTINUOUS
  0
LINE
  8
XTRKCAD3
  10
17.043557
  20
52.032459
  11
16.979012
  21
72.757721
  6
CONTINUOUS
  0
LINE
  8
XTRKCAD3
  10
17.303811
  20
72.758732
  11
16.004617
  21
72.754686
  6
CONTINUOUS
  0
LINE
  8
XTRKCAD3
  10
17.304434
  20
72.558733
  11
16.005240
  21
72.554687
  6
CONTINUOUS
  0
LINE
  8
XTRKCAD17
  10
97.249000
  20
4.592450
  11
102.553780
  21
5.260790
  6
DASHED
  0
LINE
  8
XTRKCAD17
  10
97.208400
  20
4.914703
  11
102.513180
  21
5.583043
  6
CONTINUOUS
  0
LINE
  8
XTRKCAD17
  10
97.289600
  20
4.270197
  11
102.594380
  21
4.938537
  6
CONTINUOUS
  0
LINE
  8
XTRKCAD17
  10
73.625000
  20
3.281250
  11
83.377454
  21
3.281250
  6
DASHED
  0
LINE
  8
XTRKCAD17
  10
73.625000
  20
3.606050
  11
83.377454
  21
3.606050
  6
CONTINUOUS
  0
LINE
  8
XTRKCAD17
  10
73.625000
  20
2.956450
  11
83.377454
  21
2.956450
  6
CONTINUOUS
  0
LINE
  8
XTRKCAD3
  10
102.588917
  20
6.662232
  11
88.084037
  21
6.669192
  6
DASHED
  0
LINE
  8
XTRKCAD3
  10
102.588761
  20
6.337432
  11
88.083881
  21
6.344392
  6
CONTINUOUS
  0
LINE
  8
XTRKCAD3
  10
102.589073
  20
6.987032
  11
88.084193
  21
6.993992
  6
CONTINUOUS
  0
ARC
  10
89.783896
  20
437.723163
  40
431.057323
  50
269.131415
  51
269.774056
  8
XTRKCAD3
  6
DASHED
  0
ARC
  10
89.783896
  20
437.723163
  40
431.382123
  50
269.131415
  51
269.774056
  8
XTRKCAD3
  6
CONTINUOUS
  0
ARC
  10
89.783896
  20
437.723163
  40
430.732523
  50
269.131415
  51
269.774056
  8
XTRKCAD3
  6
CONTINUOUS
  0
LINE
  8
XTRKCAD3
  10
68.562553
  20
12.629471
  11
83.375486
  21
12.617831
  6
DASHED
  0
LINE
  8
XTRKCAD3
  10
68.562808
  20
12.954271
  11
83.375741
  21
12.942631
  6
CONTINUOUS
  0
LINE
  8
XTRKCAD3
  10
68.562298
  20
12.304671
  11
83.375231
  21
12.293031
  6
CONTINUOUS
  0
LINE
  8
XTRKCAD3
  10
68.342069
  20
15.379247
  11
83.312347
  21
15.367483
  6
DASHED
  0
LINE
  8
XTRKCAD3
  10
68.342324
  20
15.704047
  11
83.312602
  21
15.692283
  6
CONTINUOUS
  0
LINE
  8
XTRKCAD3
  10
68.341814
  20
15.054447
  11
83.312092
  21
15.042683
  6
CONTINUOUS
  0
LINE
  8
XTRKCAD3
  10
40.830280
  20
56.567154
  11
36.367776
  21
50.374044
  6
DASHED
  0
LINE
  8
XTRKCAD3
  10
41.093796
  20
56.377275
  11
36.631292
  21
50.184165
  6
CONTINUOUS
  0
LINE
  8
XTRKCAD3
  10
40.566764
  20
56.757033
  11
36.104260
  21
50.563923
  6
CONTINUOUS
  0
LINE
  8
XTRKCAD3
  10
42.995990
  20
59.572750
  11
40.830280
  21
56.567154
  6
DASHED
  0
LINE
  8
XTRKCAD3
  10
43.259506
  20
59.382871
  11
41.093796
  21
56.377275
  6
CONTINUOUS
  0
LINE
  8
XTRKCAD3
  10
42.732474
  20
59.762629
  11
40.566764
  21
56.757033
  6
CONTINUOUS
  0
LINE
  8
XTRKCAD3
  10
48.481498
  20
6.503036
  11
47.843450
  21
6.625001
  6
DASHED
  0
LINE
  8
XTRKCAD3
  10
48.420515
  20
6.184012
  11
47.782468
  21
6.305977
  6
CONTINUOUS
  0
LINE
  8
XTRKCAD3
  10
48.542481
  20
6.822060
  11
47.904433
  21
6.944025
  6
CONTINUOUS
  0
ARC
  10
51.514708
  20
25.830813
  40
19.553551
  50
220.247044
  51
259.178259
  8
XTRKCAD3
  6
DASHED
  0
ARC
  10
51.514708
  20
25.830813
  40
19.878351
  50
220.247044
  51
259.178259
  8
XTRKCAD3
  6
CONTINUOUS
  0
ARC
  10
51.514708
  20
25.830813
  40
19.228751
  50
220.247044
  51
259.178259
  8
XTRKCAD3
  6
CONTINUOUS
  0
LINE
  8
XTRKCAD3
  10
36.590152
  20
13.197565
  11
35.644963
  21
14.314184
  6
DASHED
  0
LINE
  8
XTRKCAD3
  10
36.342243
  20
12.987717
  11
35.397054
  21
14.104336
  6
CONTINUOUS
  0
LINE
  8
XTRKCAD3
  10
36.838061
  20
13.407413
  11
35.892871
  21
14.524032
  6
CONTINUOUS
  0
ARC
  10
52.670004
  20
31.874626
  40
25.706793
  50
227.546052
  51
259.178259
  8
XTRKCAD3
  6
DASHED
  0
ARC
  10
52.670004
  20
31.874626
  40
26.031593
  50
227.546052
  51
259.178259
  8
XTRKCAD3
  6
CONTINUOUS
  0
ARC
  10
52.670004
  20
31.874626
  40
25.381993
  50
227.546052
  51
259.178259
  8
XTRKCAD3
  6
CONTINUOUS
  0
LINE
  8
XTRKCAD3
  10
35.317986
  20
12.907637
  11
34.838686
  21
13.346127
  6
DASHED
  0
LINE
  8
XTRKCAD3
  10
35.098747
  20
12.667994
  11
34.619447
  21
13.106483
  6
CONTINUOUS
  0
LINE
  8
XTRKCAD3
  10
35.537225
  20
13.147281
  11
35.057925
  21
13.585771
  6
CONTINUOUS
  0
ARC
  10
82.324235
  20
180.383635
  40
177.143426
  50
258.986102
  51
262.682789
  8
XTRKCAD3
  6
DASHED
  0
ARC
  10
82.324235
  20
180.383635
  40
177.468226
  50
258.986102
  51
262.682789
  8
XTRKCAD3
  6
CONTINUOUS
  0
ARC
  10
82.324235
  20
180.383635
  40
176.818626
  50
258.986102
  51
262.682789
  8
XTRKCAD3
  6
CONTINUOUS
  0
ARC
  10
84.982616
  20
57.097288
  40
65.303889
  50
216.512595
  51
220.930166
  8
XTRKCAD17
  6
DASHED
  0
ARC
  10
84.982616
  20
57.097288
  40
65.628689
  50
216.512595
  51
220.930166
  8
XTRKCAD17
  6
CONTINUOUS
  0
ARC
  10
84.982616
  20
57.097288
  40
64.979089
  50
216.512595
  51
220.930166
  8
XTRKCAD17
  6
CONTINUOUS
  0
ARC
  10
53.973043
  20
33.971023
  40
26.620921
  50
205.382040
  51
216.218800
  8
XTRKCAD17
  6
DASHED
  0
ARC
  10
53.973043
  20
33.971023
  40
26.945721
  50
205.382040
  51
216.218800
  8
XTRKCAD17
  6
CONTINUOUS
  0
ARC
  10
53.973043
  20
33.971023
  40
26.296121
  50
205.382040
  51
216.218800
  8
XTRKCAD17
  6
CONTINUOUS
  0
ARC
  10
48.495883
  20
31.271162
  40
20.515376
  50
191.064789
  51
205.126644
  8
XTRKCAD17
  6
DASHED
  0
ARC
  10
48.495883
  20
31.271162
  40
20.840176
  50
191.064789
  51
205.126644
  8
XTRKCAD17
  6
CONTINUOUS
  0
ARC
  10
48.495883
  20
31.271162
  40
20.190576
  50
191.064789
  51
205.126644
  8
XTRKCAD17
  6
CONTINUOUS
  0
ARC
  10
47.680561
  20
31.036732
  40
19.670357
  50
176.184445
  51
190.850417
  8
XTRKCAD17
  6
DASHED
  0
ARC
  10
47.680561
  20
31.036732
  40
19.995157
  50
176.184445
  51
190.850417
  8
XTRKCAD17
  6
CONTINUOUS
  0
ARC
  10
47.680561
  20
31.036732
  40
19.345557
  50
176.184445
  51
190.850417
  8
XTRKCAD17
  6
CONTINUOUS
  0
ARC
  10
49.833188
  20
30.829835
  40
21.832072
  50
162.804712
  51
176.018603
  8
XTRKCAD17
  6
DASHED
  0
ARC
  10
49.833188
  20
30.829835
  40
22.156872
  50
162.804712
  51
176.018603
  8
XTRKCAD17
  6
CONTINUOUS
  0
ARC
  10
49.833188
  20
30.829835
  40
21.507272
  50
162.804712
  51
176.018603
  8
XTRKCAD17
  6
CONTINUOUS
  0
ARC
  10
55.809761
  20
28.922688
  40
28.105371
  50
152.427957
  51
162.692483
  8
XTRKCAD17
  6
DASHED
  0
ARC
  10
55.809761
  20
28.922688
  40
28.430171
  50
152.427957
  51
162.692483
  8
XTRKCAD17
  6
CONTINUOUS
  0
ARC
  10
55.809761
  20
28.922688
  40
27.780571
  50
152.427957
  51
162.692483
  8
XTRKCAD17
  6
CONTINUOUS
  0
ARC
  10
70.953801
  20
20.958858
  40
45.215689
  50
145.989024
  51
152.364916
  8
XTRKCAD17
  6
DASHED
  0
ARC
  10
70.953801
  20
20.958858
  40
45.540489
  50
145.989024
  51
152.364916
  8
XTRKCAD17
  6
CONTINUOUS
  0
ARC
  10
70.953801
  20
20.958858
  40
44.890889
  50
145.989024
  51
152.364916
  8
XTRKCAD17
  6
CONTINUOUS
  0
ARC
  10
146.385269
  20
-29.930408
  40
136.208126
  50
143.873382
  51
145.992835
  8
XTRKCAD17
  6
DASHED
  0
ARC
  10
146.385269
  20
-29.930408
  40
136.532926
  50
143.873382
  51
145.992835
  8
XTRKCAD17
  6
CONTINUOUS
  0
ARC
  10
146.385269
  20
-29.930408
  40
135.883326
  50
143.873382
  51
145.992835
  8
XTRKCAD17
  6
CONTINUOUS
  0
LINE
  8
XTRKCAD17
  10
34.838687
  20
13.346127
  11
25.054145
  21
22.297550
  6
DASHED
  0
LINE
  8
XTRKCAD17
  10
34.619448
  20
13.106483
  11
24.834906
  21
22.057906
  6
CONTINUOUS
  0
LINE
  8
XTRKCAD17
  10
35.057926
  20
13.585771
  11
25.273384
  21
22.537194
  6
CONTINUOUS
  0
ARC
  10
61.607219
  20
63.108698
  40
54.787563
  50
224.023465
  51
228.150343
  8
XTRKCAD17
  6
DASHED
  0
ARC
  10
61.607219
  20
63.108698
  40
55.112363
  50
224.023465
  51
228.150343
  8
XTRKCAD17
  6
CONTINUOUS
  0
ARC
  10
61.607219
  20
63.108698
  40
54.462763
  50
224.023465
  51
228.150343
  8
XTRKCAD17
  6
CONTINUOUS
  0
ARC
  10
40.460434
  20
42.340968
  40
25.150379
  50
220.488671
  51
223.483254
  8
XTRKCAD17
  6
DASHED
  0
ARC
  10
40.460434
  20
42.340968
  40
25.475179
  50
220.488671
  51
223.483254
  8
XTRKCAD17
  6
CONTINUOUS
  0
ARC
  10
40.460434
  20
42.340968
  40
24.825579
  50
220.488671
  51
223.483254
  8
XTRKCAD17
  6
CONTINUOUS
  0
ARC
  10
35.621919
  20
38.346307
  40
18.877082
  50
204.836315
  51
220.802999
  8
XTRKCAD17
  6
DASHED
  0
ARC
  10
35.621919
  20
38.346307
  40
19.201882
  50
204.836315
  51
220.802999
  8
XTRKCAD17
  6
CONTINUOUS
  0
ARC
  10
35.621919
  20
38.346307
  40
18.552282
  50
204.836315
  51
220.802999
  8
XTRKCAD17
  6
CONTINUOUS
  0
ARC
  10
35.358875
  20
37.953874
  40
18.475168
  50
187.760527
  51
204.074469
  8
XTRKCAD17
  6
DASHED
  0
ARC
  10
35.358875
  20
37.953874
  40
18.799968
  50
187.760527
  51
204.074469
  8
XTRKCAD17
  6
CONTINUOUS
  0
ARC
  10
35.358875
  20
37.953874
  40
18.150368
  50
187.760527
  51
204.074469
  8
XTRKCAD17
  6
CONTINUOUS
  0
ARC
  10
49.323319
  20
39.681569
  40
32.545473
  50
180.509786
  51
187.454572
  8
XTRKCAD17
  6
DASHED
  0
ARC
  10
49.323319
  20
39.681569
  40
32.870273
  50
180.509786
  51
187.454572
  8
XTRKCAD17
  6
CONTINUOUS
  0
ARC
  10
49.323319
  20
39.681569
  40
32.220673
  50
180.509786
  51
187.454572
  8
XTRKCAD17
  6
CONTINUOUS
  0
LINE
  8
XTRKCAD17
  10
16.779135
  20
39.392001
  11
16.761654
  21
40.707728
  6
DASHED
  0
LINE
  8
XTRKCAD17
  10
16.454363
  20
39.387686
  11
16.436883
  21
40.703413
  6
CONTINUOUS
  0
LINE
  8
XTRKCAD17
  10
17.103906
  20
39.396316
  11
17.086425
  21
40.712043
  6
CONTINUOUS
  0
LINE
  8
XTRKCAD3
  10
19.191225
  20
60.876374
  11
19.149520
  21
74.267786
  6
DASHED
  0
LINE
  8
XTRKCAD3
  10
18.866427
  20
60.875362
  11
18.824722
  21
74.266774
  6
CONTINUOUS
  0
LINE
  8
XTRKCAD3
  10
19.516023
  20
60.877386
  11
19.474318
  21
74.268798
  6
CONTINUOUS
  0
LINE
  8
XTRKCAD3
  10
19.799117
  20
74.269809
  11
18.499923
  21
74.265763
  6
CONTINUOUS
  0
LINE
  8
XTRKCAD3
  10
19.799740
  20
74.069810
  11
18.500546
  21
74.065764
  6
CONTINUOUS
  0
ARC
  10
309.531971
  20
2.225567
  40
295.695487
  50
169.437465
  51
170.303146
  8
XTRKCAD3
  6
DASHED
  0
ARC
  10
309.531971
  20
2.225567
  40
296.020287
  50
169.437465
  51
170.303146
  8
XTRKCAD3
  6
CONTINUOUS
  0
ARC
  10
309.531971
  20
2.225567
  40
295.370687
  50
169.437465
  51
170.303146
  8
XTRKCAD3
  6
CONTINUOUS
  0
ARC
  10
-6.430763
  20
60.623037
  40
25.623240
  50
350.579576
  51
360.566493
  8
XTRKCAD3
  6
DASHED
  0
ARC
  10
-6.430763
  20
60.623037
  40
25.948040
  50
350.579576
  51
360.566493
  8
XTRKCAD3
  6
CONTINUOUS
  0
ARC
  10
-6.430763
  20
60.623037
  40
25.298440
  50
350.579576
  51
360.566493
  8
XTRKCAD3
  6
CONTINUOUS
  0
LINE
  8
XTRKCAD17
  10
32.813694
  20
11.132667
  11
23.029153
  21
20.084090
  6
DASHED
  0
LINE
  8
XTRKCAD17
  10
32.594455
  20
10.893023
  11
22.809914
  21
19.844446
  6
CONTINUOUS
  0
LINE
  8
XTRKCAD17
  10
33.032933
  20
11.372311
  11
23.248392
  21
20.323734
  6
CONTINUOUS
  0
ARC
  10
72.440146
  20
53.872983
  40
58.283706
  50
227.165028
  51
230.740910
  8
XTRKCAD3
  6
DASHED
  0
ARC
  10
72.440146
  20
53.872983
  40
58.608506
  50
227.165028
  51
230.740910
  8
XTRKCAD3
  6
CONTINUOUS
  0
ARC
  10
72.440146
  20
53.872983
  40
57.958906
  50
227.165028
  51
230.740910
  8
XTRKCAD3
  6
CONTINUOUS
  0
ARC
  10
51.546756
  20
28.304019
  40
25.263929
  50
230.733720
  51
238.966072
  8
XTRKCAD3
  6
DASHED
  0
ARC
  10
51.546756
  20
28.304019
  40
25.588729
  50
230.733720
  51
238.966072
  8
XTRKCAD3
  6
CONTINUOUS
  0
ARC
  10
51.546756
  20
28.304019
  40
24.939129
  50
230.733720
  51
238.966072
  8
XTRKCAD3
  6
CONTINUOUS
  0
ARC
  10
49.852737
  20
25.995374
  40
22.413918
  50
239.634111
  51
258.212010
  8
XTRKCAD3
  6
DASHED
  0
ARC
  10
49.852737
  20
25.995374
  40
22.738718
  50
239.634111
  51
258.212010
  8
XTRKCAD3
  6
CONTINUOUS
  0
ARC
  10
49.852737
  20
25.995374
  40
22.089118
  50
239.634111
  51
258.212010
  8
XTRKCAD3
  6
CONTINUOUS
  0
ARC
  10
52.223624
  20
38.190477
  40
34.836597
  50
258.492371
  51
267.456484
  8
XTRKCAD3
  6
DASHED
  0
ARC
  10
52.223624
  20
38.190477
  40
35.161397
  50
258.492371
  51
267.456484
  8
XTRKCAD3
  6
CONTINUOUS
  0
ARC
  10
52.223624
  20
38.190477
  40
34.511797
  50
258.492371
  51
267.456484
  8
XTRKCAD3
  6
CONTINUOUS
  0
ARC
  10
54.084128
  20
68.155124
  40
64.856445
  50
266.989240
  51
268.595505
  8
XTRKCAD3
  6
DASHED
  0
ARC
  10
54.084128
  20
68.155124
  40
65.181245
  50
266.989240
  51
268.595505
  8
XTRKCAD3
  6
CONTINUOUS
  0
ARC
  10
54.084128
  20
68.155124
  40
64.531645
  50
266.989240
  51
268.595505
  8
XTRKCAD3
  6
CONTINUOUS
  0
ARC
  10
57.576387
  20
288.363251
  40
285.090385
  50
268.978610
  51
270.439416
  8
XTRKCAD3
  6
DASHED
  0
ARC
  10
57.576387
  20
288.363251
  40
285.415185
  50
268.978610
  51
270.439416
  8
XTRKCAD3
  6
CONTINUOUS
  0
ARC
  10
57.576387
  20
288.363251
  40
284.765585
  50
268.978610
  51
270.439416
  8
XTRKCAD3
  6
CONTINUOUS
  0
LINE
  8
XTRKCAD3
  10
47.196416
  20
91.263871
  11
47.546118
  21
90.716433
  6
DASHED
  0
LINE
  8
XTRKCAD3
  10
47.470135
  20
91.438722
  11
47.819837
  21
90.891284
  6
CONTINUOUS
  0
LINE
  8
XTRKCAD3
  10
46.922697
  20
91.089020
  11
47.272399
  21
90.541582
  6
CONTINUOUS
  0
ARC
  10
33.498899
  20
81.743114
  40
16.668677
  50
352.213771
  51
392.570311
  8
XTRKCAD3
  6
DASHED
  0
ARC
  10
33.498899
  20
81.743114
  40
16.993477
  50
352.213771
  51
392.570311
  8
XTRKCAD3
  6
CONTINUOUS
  0
ARC
  10
33.498899
  20
81.743114
  40
16.343877
  50
352.213771
  51
392.570311
  8
XTRKCAD3
  6
CONTINUOUS
  0
LINE
  8
XTRKCAD3
  10
50.013899
  20
79.484884
  11
49.670813
  21
76.975816
  6
DASHED
  0
LINE
  8
XTRKCAD3
  10
50.335704
  20
79.440881
  11
49.992619
  21
76.931813
  6
CONTINUOUS
  0
LINE
  8
XTRKCAD3
  10
49.692093
  20
79.528887
  11
49.349008
  21
77.019819
  6
CONTINUOUS
  0
ARC
  10
29.011284
  20
78.876197
  40
21.993891
  50
356.673704
  51
392.570845
  8
XTRKCAD3
  6
DASHED
  0
ARC
  10
29.011284
  20
78.876197
  40
22.318691
  50
356.673704
  51
392.570845
  8
XTRKCAD3
  6
CONTINUOUS
  0
ARC
  10
29.011284
  20
78.876197
  40
21.669091
  50
356.673704
  51
392.570845
  8
XTRKCAD3
  6
CONTINUOUS
  0
LINE
  8
XTRKCAD3
  10
50.968122
  20
77.600063
  11
50.930431
  21
76.951557
  6
DASHED
  0
LINE
  8
XTRKCAD3
  10
51.292374
  20
77.581217
  11
51.254684
  21
76.932712
  6
CONTINUOUS
  0
LINE
  8
XTRKCAD3
  10
50.643869
  20
77.618908
  11
50.606178
  21
76.970402
  6
CONTINUOUS
  0
LINE
  8
XTRKCAD3
  10
12.286413
  20
29.414320
  11
11.839380
  21
29.885639
  6
DASHED
  0
LINE
  8
XTRKCAD3
  10
12.050754
  20
29.190803
  11
11.603720
  21
29.662122
  6
CONTINUOUS
  0
LINE
  8
XTRKCAD3
  10
12.522072
  20
29.637837
  11
12.075039
  21
30.109156
  6
CONTINUOUS
  0
ARC
  10
23.933382
  20
41.356467
  40
16.668677
  50
183.128621
  51
223.485161
  8
XTRKCAD3
  6
DASHED
  0
ARC
  10
23.933382
  20
41.356467
  40
16.993477
  50
183.128621
  51
223.485161
  8
XTRKCAD3
  6
CONTINUOUS
  0
ARC
  10
23.933382
  20
41.356467
  40
16.343877
  50
183.128621
  51
223.485161
  8
XTRKCAD3
  6
CONTINUOUS
  0
LINE
  8
XTRKCAD3
  10
7.289549
  20
40.446731
  11
7.151336
  21
42.975372
  6
DASHED
  0
LINE
  8
XTRKCAD3
  10
6.965233
  20
40.429004
  11
6.827020
  21
42.957646
  6
CONTINUOUS
  0
LINE
  8
XTRKCAD3
  10
7.613865
  20
40.464458
  11
7.475652
  21
42.993099
  6
CONTINUOUS
  0
ARC
  10
27.796964
  20
45.021251
  40
21.993891
  50
187.588554
  51
223.485695
  8
XTRKCAD3
  6
DASHED
  0
ARC
  10
27.796964
  20
45.021251
  40
22.318691
  50
187.588554
  51
223.485695
  8
XTRKCAD3
  6
CONTINUOUS
  0
ARC
  10
27.796964
  20
45.021251
  40
21.669091
  50
187.588554
  51
223.485695
  8
XTRKCAD3
  6
CONTINUOUS
  0
LINE
  8
XTRKCAD3
  10
5.995698
  20
42.116773
  11
5.909912
  21
42.760684
  6
DASHED
  0
LINE
  8
XTRKCAD3
  10
5.673742
  20
42.073880
  11
5.587957
  21
42.717791
  6
CONTINUOUS
  0
LINE
  8
XTRKCAD3
  10
6.317653
  20
42.159666
  11
6.231867
  21
42.803577
  6
CONTINUOUS
  0
LINE
  8
XTRKCAD3
  10
42.334707
  20
54.068881
  11
41.959897
  21
53.538318
  6
DASHED
  0
LINE
  8
XTRKCAD3
  10
42.599989
  20
53.881476
  11
42.225179
  21
53.350913
  6
CONTINUOUS
  0
LINE
  8
XTRKCAD3
  10
42.069425
  20
54.256286
  11
41.694615
  21
53.725723
  6
CONTINUOUS
  0
ARC
  10
55.574106
  20
43.920724
  40
16.668677
  50
144.761167
  51
185.117707
  8
XTRKCAD3
  6
DASHED
  0
ARC
  10
55.574106
  20
43.920724
  40
16.993477
  50
144.761167
  51
185.117707
  8
XTRKCAD3
  6
CONTINUOUS
  0
ARC
  10
55.574106
  20
43.920724
  40
16.343877
  50
144.761167
  51
185.117707
  8
XTRKCAD3
  6
CONTINUOUS
  0
LINE
  8
XTRKCAD3
  10
38.971878
  20
42.433843
  11
39.197775
  21
39.911522
  6
DASHED
  0
LINE
  8
XTRKCAD3
  10
39.295383
  20
42.462815
  11
39.521280
  21
39.940495
  6
CONTINUOUS
  0
LINE
  8
XTRKCAD3
  10
38.648372
  20
42.404870
  11
38.874269
  21
39.882549
  6
CONTINUOUS
  0
ARC
  10
59.923378
  20
40.847983
  40
21.993891
  50
144.760633
  51
180.657774
  8
XTRKCAD3
  6
DASHED
  0
ARC
  10
59.923378
  20
40.847983
  40
22.318691
  50
144.760633
  51
180.657774
  8
XTRKCAD3
  6
CONTINUOUS
  0
ARC
  10
59.923378
  20
40.847983
  40
21.669091
  50
144.760633
  51
180.657774
  8
XTRKCAD3
  6
CONTINUOUS
  0
LINE
  8
XTRKCAD3
  10
37.930937
  20
40.595492
  11
37.938394
  21
39.945934
  6
DASHED
  0
LINE
  8
XTRKCAD3
  10
38.255715
  20
40.599220
  11
38.263172
  21
39.949663
  6
CONTINUOUS
  0
LINE
  8
XTRKCAD3
  10
37.606158
  20
40.591763
  11
37.613615
  21
39.942206
  6
CONTINUOUS
  0
ARC
  10
-36.963967
  20
-46.589980
  40
89.691728
  50
48.019218
  51
52.568200
  8
XTRKCAD17
  6
DASHED
  0
ARC
  10
-36.963967
  20
-46.589980
  40
90.016528
  50
48.019218
  51
52.568200
  8
XTRKCAD17
  6
CONTINUOUS
  0
ARC
  10
-36.963967
  20
-46.589980
  40
89.366928
  50
48.019218
  51
52.568200
  8
XTRKCAD17
  6
CONTINUOUS
  0
ARC
  10
46.686950
  20
62.003608
  40
47.386270
  50
223.451233
  51
232.059986
  8
XTRKCAD17
  6
DASHED
  0
ARC
  10
46.686950
  20
62.003608
  40
47.711070
  50
223.451233
  51
232.059986
  8
XTRKCAD17
  6
CONTINUOUS
  0
ARC
  10
46.686950
  20
62.003608
  40
47.061470
  50
223.451233
  51
232.059986
  8
XTRKCAD17
  6
CONTINUOUS
  0
LINE
  8
XTRKCAD3
  10
39.197775
  20
39.911522
  11
39.255721
  21
39.264512
  6
DASHED
  0
LINE
  8
XTRKCAD3
  10
39.521280
  20
39.940495
  11
39.579226
  21
39.293484
  6
CONTINUOUS
  0
LINE
  8
XTRKCAD3
  10
38.874270
  20
39.882549
  11
38.932215
  21
39.235539
  6
CONTINUOUS
  0
ARC
  10
55.857949
  20
40.751393
  40
16.668677
  50
185.117707
  51
225.474247
  8
XTRKCAD3
  6
DASHED
  0
ARC
  10
55.857949
  20
40.751393
  40
16.993477
  50
185.117707
  51
225.474247
  8
XTRKCAD3
  6
CONTINUOUS
  0
ARC
  10
55.857949
  20
40.751393
  40
16.343877
  50
185.117707
  51
225.474247
  8
XTRKCAD3
  6
CONTINUOUS
  0
LINE
  8
XTRKCAD3
  10
44.169376
  20
28.867704
  11
45.974825
  21
27.091898
  6
DASHED
  0
LINE
  8
XTRKCAD3
  10
44.397135
  20
29.099265
  11
46.202584
  21
27.323460
  6
CONTINUOUS
  0
LINE
  8
XTRKCAD3
  10
43.941617
  20
28.636142
  11
45.747066
  21
26.860337
  6
CONTINUOUS
  0
ARC
  10
61.161952
  20
41.226209
  40
21.993891
  50
185.117173
  51
221.014314
  8
XTRKCAD3
  6
DASHED
  0
ARC
  10
61.161952
  20
41.226209
  40
22.318691
  50
185.117173
  51
221.014314
  8
XTRKCAD3
  6
CONTINUOUS
  0
ARC
  10
61.161952
  20
41.226209
  40
21.669091
  50
185.117173
  51
221.014314
  8
XTRKCAD3
  6
CONTINUOUS
  0
LINE
  8
XTRKCAD3
  10
44.566558
  20
26.792772
  11
44.992856
  21
26.302619
  6
DASHED
  0
LINE
  8
XTRKCAD3
  10
44.811634
  20
27.005921
  11
45.237932
  21
26.515768
  6
CONTINUOUS
  0
LINE
  8
XTRKCAD3
  10
44.321481
  20
26.579623
  11
44.747779
  21
26.089470
  6
CONTINUOUS
  0
LINE
  8
XTRKCAD3
  10
54.274109
  20
19.948459
  11
54.800035
  21
19.567169
  6
DASHED
  0
LINE
  8
XTRKCAD3
  10
54.464754
  20
20.211422
  11
54.990680
  21
19.830132
  6
CONTINUOUS
  0
LINE
  8
XTRKCAD3
  10
54.083464
  20
19.685496
  11
54.609390
  21
19.304206
  6
CONTINUOUS
  0
ARC
  10
64.583895
  20
33.062386
  40
16.668677
  50
234.058369
  51
274.414909
  8
XTRKCAD3
  6
DASHED
  0
ARC
  10
64.583895
  20
33.062386
  40
16.993477
  50
234.058369
  51
274.414909
  8
XTRKCAD3
  6
CONTINUOUS
  0
ARC
  10
64.583895
  20
33.062386
  40
16.343877
  50
234.058369
  51
274.414909
  8
XTRKCAD3
  6
CONTINUOUS
  0
LINE
  8
XTRKCAD3
  10
65.867024
  20
16.443169
  11
68.391926
  21
16.638111
  6
DASHED
  0
LINE
  8
XTRKCAD3
  10
65.842022
  20
16.767005
  11
68.366923
  21
16.961947
  6
CONTINUOUS
  0
LINE
  8
XTRKCAD3
  10
65.892027
  20
16.119333
  11
68.416928
  21
16.314275
  6
CONTINUOUS
  0
ARC
  10
67.709752
  20
37.373641
  40
21.993891
  50
234.057835
  51
269.954976
  8
XTRKCAD3
  6
DASHED
  0
ARC
  10
67.709752
  20
37.373641
  40
22.318691
  50
234.057835
  51
269.954976
  8
XTRKCAD3
  6
CONTINUOUS
  0
ARC
  10
67.709752
  20
37.373641
  40
21.669091
  50
234.057835
  51
269.954976
  8
XTRKCAD3
  6
CONTINUOUS
  0
LINE
  8
XTRKCAD3
  10
67.692469
  20
15.379758
  11
68.342069
  21
15.379247
  6
DASHED
  0
LINE
  8
XTRKCAD3
  10
67.692724
  20
15.704557
  11
68.342324
  21
15.704046
  6
CONTINUOUS
  0
LINE
  8
XTRKCAD3
  10
67.692213
  20
15.054958
  11
68.341813
  21
15.054447
  6
CONTINUOUS
  0
ARC
  10
111.772284
  20
92.677346
  40
92.901865
  50
224.907542
  51
228.288838
  8
XTRKCAD17
  6
DASHED
  0
ARC
  10
111.772284
  20
92.677346
  40
93.226665
  50
224.907542
  51
228.288838
  8
XTRKCAD17
  6
CONTINUOUS
  0
ARC
  10
111.772284
  20
92.677346
  40
92.577065
  50
224.907542
  51
228.288838
  8
XTRKCAD17
  6
CONTINUOUS
  0
ARC
  10
89.285767
  20
69.149542
  40
60.386776
  50
229.362528
  51
234.564217
  8
XTRKCAD17
  6
DASHED
  0
ARC
  10
89.285767
  20
69.149542
  40
60.711576
  50
229.362528
  51
234.564217
  8
XTRKCAD17
  6
CONTINUOUS
  0
ARC
  10
89.285767
  20
69.149542
  40
60.061976
  50
229.362528
  51
234.564217
  8
XTRKCAD17
  6
CONTINUOUS
  0
ARC
  10
87.895657
  20
423.767184
  40
417.077693
  50
268.236521
  51
269.361718
  8
XTRKCAD17
  6
DASHED
  0
ARC
  10
87.895657
  20
423.767184
  40
417.402493
  50
268.236521
  51
269.361718
  8
XTRKCAD17
  6
CONTINUOUS
  0
ARC
  10
87.895657
  20
423.767184
  40
416.752893
  50
268.236521
  51
269.361718
  8
XTRKCAD17
  6
CONTINUOUS
  0
ARC
  10
78.472621
  20
117.785706
  40
110.951153
  50
264.010690
  51
268.237762
  8
XTRKCAD17
  6
DASHED
  0
ARC
  10
78.472621
  20
117.785706
  40
111.275953
  50
264.010690
  51
268.237762
  8
XTRKCAD17
  6
CONTINUOUS
  0
ARC
  10
78.472621
  20
117.785706
  40
110.626353
  50
264.010690
  51
268.237762
  8
XTRKCAD17
  6
CONTINUOUS
  0
ARC
  10
72.115373
  20
58.723839
  40
51.548597
  50
255.087737
  51
264.188372
  8
XTRKCAD17
  6
DASHED
  0
ARC
  10
72.115373
  20
58.723839
  40
51.873397
  50
255.087737
  51
264.188372
  8
XTRKCAD17
  6
CONTINUOUS
  0
ARC
  10
72.115373
  20
58.723839
  40
51.223797
  50
255.087737
  51
264.188372
  8
XTRKCAD17
  6
CONTINUOUS
  0
ARC
  10
67.389489
  20
40.855229
  40
33.065641
  50
240.845513
  51
255.033016
  8
XTRKCAD17
  6
DASHED
  0
ARC
  10
67.389489
  20
40.855229
  40
33.390441
  50
240.845513
  51
255.033016
  8
XTRKCAD17
  6
CONTINUOUS
  0
ARC
  10
67.389489
  20
40.855229
  40
32.740841
  50
240.845513
  51
255.033016
  8
XTRKCAD17
  6
CONTINUOUS
  0
ARC
  10
64.057643
  20
34.699059
  40
26.066390
  50
222.652417
  51
240.649125
  8
XTRKCAD17
  6
DASHED
  0
ARC
  10
64.057643
  20
34.699059
  40
26.391190
  50
222.652417
  51
240.649125
  8
XTRKCAD17
  6
CONTINUOUS
  0
ARC
  10
64.057643
  20
34.699059
  40
25.741590
  50
222.652417
  51
240.649125
  8
XTRKCAD17
  6
CONTINUOUS
  0
ARC
  10
63.104765
  20
33.625451
  40
24.638568
  50
203.278246
  51
222.317567
  8
XTRKCAD17
  6
DASHED
  0
ARC
  10
63.104765
  20
33.625451
  40
24.963368
  50
203.278246
  51
222.317567
  8
XTRKCAD17
  6
CONTINUOUS
  0
ARC
  10
63.104765
  20
33.625451
  40
24.313768
  50
203.278246
  51
222.317567
  8
XTRKCAD17
  6
CONTINUOUS
  0
ARC
  10
66.543542
  20
34.976343
  40
28.331532
  50
190.623272
  51
203.039472
  8
XTRKCAD17
  6
DASHED
  0
ARC
  10
66.543542
  20
34.976343
  40
28.656332
  50
190.623272
  51
203.039472
  8
XTRKCAD17
  6
CONTINUOUS
  0
ARC
  10
66.543542
  20
34.976343
  40
28.006732
  50
190.623272
  51
203.039472
  8
XTRKCAD17
  6
CONTINUOUS
  0
ARC
  10
72.352234
  20
36.218964
  40
34.270074
  50
187.451044
  51
190.874871
  8
XTRKCAD17
  6
DASHED
  0
ARC
  10
72.352234
  20
36.218964
  40
34.594874
  50
187.451044
  51
190.874871
  8
XTRKCAD17
  6
CONTINUOUS
  0
ARC
  10
72.352234
  20
36.218964
  40
33.945274
  50
187.451044
  51
190.874871
  8
XTRKCAD17
  6
CONTINUOUS
  0
ARC
  10
94.016510
  20
38.504609
  40
56.050449
  50
180.619682
  51
186.895912
  8
XTRKCAD17
  6
DASHED
  0
ARC
  10
94.016510
  20
38.504609
  40
56.375249
  50
180.619682
  51
186.895912
  8
XTRKCAD17
  6
CONTINUOUS
  0
ARC
  10
94.016510
  20
38.504609
  40
55.725649
  50
180.619682
  51
186.895912
  8
XTRKCAD17
  6
CONTINUOUS
  0
LINE
  8
XTRKCAD17
  10
37.969340
  20
37.898407
  11
37.938393
  21
39.945935
  6
DASHED
  0
LINE
  8
XTRKCAD17
  10
37.644577
  20
37.893498
  11
37.613630
  21
39.941026
  6
CONTINUOUS
  0
LINE
  8
XTRKCAD17
  10
38.294103
  20
37.903315
  11
38.263156
  21
39.950844
  6
CONTINUOUS
  0
LINE
  8
XTRKCAD3
  10
7.379028
  20
49.944113
  11
7.456747
  21
50.589047
  6
DASHED
  0
LINE
  8
XTRKCAD3
  10
7.056561
  20
49.982972
  11
7.134280
  21
50.627906
  6
CONTINUOUS
  0
LINE
  8
XTRKCAD3
  10
7.701495
  20
49.905254
  11
7.779214
  21
50.550188
  6
CONTINUOUS
  0
LINE
  8
XTRKCAD3
  10
7.456747
  20
50.589047
  11
8.732311
  21
61.174071
  6
DASHED
  0
LINE
  8
XTRKCAD3
  10
7.134280
  20
50.627906
  11
8.409844
  21
61.212931
  6
CONTINUOUS
  0
LINE
  8
XTRKCAD3
  10
7.779214
  20
50.550188
  11
9.054778
  21
61.135212
  6
CONTINUOUS
  0
ARC
  10
34.473744
  20
47.333324
  40
27.212458
  50
163.666281
  51
173.128621
  8
XTRKCAD3
  6
DASHED
  0
ARC
  10
34.473744
  20
47.333324
  40
27.537258
  50
163.666281
  51
173.128621
  8
XTRKCAD3
  6
CONTINUOUS
  0
ARC
  10
34.473744
  20
47.333324
  40
26.887658
  50
163.666281
  51
173.128621
  8
XTRKCAD3
  6
CONTINUOUS
  0
LINE
  8
XTRKCAD3
  10
8.359582
  20
54.986325
  11
10.123818
  21
61.006386
  6
DASHED
  0
LINE
  8
XTRKCAD3
  10
8.047891
  20
55.077669
  11
9.812127
  21
61.097730
  6
CONTINUOUS
  0
LINE
  8
XTRKCAD3
  10
8.671273
  20
54.894981
  11
10.435509
  21
60.915042
  6
CONTINUOUS
  0
LINE
  8
XTRKCAD3
  10
4.500000
  20
56.625000
  11
4.495377
  21
57.274584
  6
DASHED
  0
LINE
  8
XTRKCAD3
  10
4.175208
  20
56.622688
  11
4.170585
  21
57.272272
  6
CONTINUOUS
  0
LINE
  8
XTRKCAD3
  10
4.824792
  20
56.627312
  11
4.820168
  21
57.276895
  6
CONTINUOUS
  0
LINE
  8
XTRKCAD3
  10
4.495377
  20
57.274584
  11
4.401339
  21
70.486854
  6
DASHED
  0
LINE
  8
XTRKCAD3
  10
4.170585
  20
57.272272
  11
4.076547
  21
70.484542
  6
CONTINUOUS
  0
LINE
  8
XTRKCAD3
  10
4.820168
  20
57.276895
  11
4.726131
  21
70.489166
  6
CONTINUOUS
  0
ARC
  10
36.619259
  20
57.503223
  40
32.124696
  50
173.282777
  51
180.407792
  8
XTRKCAD3
  6
DASHED
  0
ARC
  10
36.619259
  20
57.503223
  40
32.449496
  50
173.282777
  51
180.407792
  8
XTRKCAD3
  6
CONTINUOUS
  0
ARC
  10
36.619259
  20
57.503223
  40
31.799896
  50
173.282777
  51
180.407792
  8
XTRKCAD3
  6
CONTINUOUS
  0
LINE
  8
XTRKCAD3
  10
4.715082
  20
61.260825
  11
5.802878
  21
70.496829
  6
DASHED
  0
LINE
  8
XTRKCAD3
  10
4.392512
  20
61.298817
  11
5.480307
  21
70.534821
  6
CONTINUOUS
  0
LINE
  8
XTRKCAD3
  10
5.037653
  20
61.222834
  11
6.125448
  21
70.458838
  6
CONTINUOUS
  0
LINE
  8
XTRKCAD3
  10
4.500000
  20
56.625000
  11
4.504623
  21
55.975416
  6
DASHED
  0
LINE
  8
XTRKCAD3
  10
4.824792
  20
56.627312
  11
4.829415
  21
55.977728
  6
CONTINUOUS
  0
LINE
  8
XTRKCAD3
  10
4.175208
  20
56.622688
  11
4.179832
  21
55.973105
  6
CONTINUOUS
  0
LINE
  8
XTRKCAD3
  10
4.504623
  20
55.975416
  11
4.598661
  21
42.763146
  6
DASHED
  0
LINE
  8
XTRKCAD3
  10
4.829415
  20
55.977728
  11
4.923453
  21
42.765458
  6
CONTINUOUS
  0
LINE
  8
XTRKCAD3
  10
4.179832
  20
55.973105
  11
4.273869
  21
42.760834
  6
CONTINUOUS
  0
ARC
  10
36.628506
  20
56.204056
  40
32.124696
  50
180.407792
  51
187.532807
  8
XTRKCAD3
  6
DASHED
  0
ARC
  10
36.628506
  20
56.204056
  40
32.449496
  50
180.407792
  51
187.532807
  8
XTRKCAD3
  6
CONTINUOUS
  0
ARC
  10
36.628506
  20
56.204056
  40
31.799896
  50
180.407792
  51
187.532807
  8
XTRKCAD3
  6
CONTINUOUS
  0
LINE
  8
XTRKCAD3
  10
4.781047
  20
51.992706
  11
6.000199
  21
42.773121
  6
DASHED
  0
LINE
  8
XTRKCAD3
  10
5.103044
  20
52.035285
  11
6.322196
  21
42.815701
  6
CONTINUOUS
  0
LINE
  8
XTRKCAD3
  10
4.459050
  20
51.950127
  11
5.678202
  21
42.730542
  6
CONTINUOUS
  0
LINE
  8
XTRKCAD3
  10
73.625000
  20
3.281250
  11
72.975400
  21
3.281250
  6
DASHED
  0
LINE
  8
XTRKCAD3
  10
73.625000
  20
2.956450
  11
72.975400
  21
2.956450
  6
CONTINUOUS
  0
LINE
  8
XTRKCAD3
  10
73.625000
  20
3.606050
  11
72.975400
  21
3.606050
  6
CONTINUOUS
  0
LINE
  8
XTRKCAD3
  10
72.975400
  20
3.281250
  11
59.762795
  21
3.281250
  6
DASHED
  0
LINE
  8
XTRKCAD3
  10
72.975400
  20
2.956450
  11
59.762795
  21
2.956450
  6
CONTINUOUS
  0
LINE
  8
XTRKCAD3
  10
72.975400
  20
3.606050
  11
59.762795
  21
3.606050
  6
CONTINUOUS
  0
ARC
  10
72.975400
  20
35.405946
  40
32.124696
  50
262.874985
  51
270.000000
  8
XTRKCAD3
  6
DASHED
  0
ARC
  10
72.975400
  20
35.405946
  40
32.449496
  50
262.874985
  51
270.000000
  8
XTRKCAD3
  6
CONTINUOUS
  0
ARC
  10
72.975400
  20
35.405946
  40
31.799896
  50
262.874985
  51
270.000000
  8
XTRKCAD3
  6
CONTINUOUS
  0
LINE
  8
XTRKCAD3
  10
68.990823
  20
3.529321
  11
59.762795
  21
4.682824
  6
DASHED
  0
LINE
  8
XTRKCAD3
  10
68.950537
  20
3.207029
  11
59.722509
  21
4.360532
  6
CONTINUOUS
  0
LINE
  8
XTRKCAD3
  10
69.031109
  20
3.851613
  11
59.803081
  21
5.005116
  6
CONTINUOUS
  0
LINE
  8
XTRKCAD3
  10
83.377454
  20
3.281250
  11
84.027054
  21
3.281250
  6
DASHED
  0
LINE
  8
XTRKCAD3
  10
83.377454
  20
3.606050
  11
84.027054
  21
3.606050
  6
CONTINUOUS
  0
LINE
  8
XTRKCAD3
  10
83.377454
  20
2.956450
  11
84.027054
  21
2.956450
  6
CONTINUOUS
  0
LINE
  8
XTRKCAD3
  10
84.027054
  20
3.281250
  11
97.239659
  21
3.281250
  6
DASHED
  0
LINE
  8
XTRKCAD3
  10
84.027054
  20
3.606050
  11
97.239659
  21
3.606050
  6
CONTINUOUS
  0
LINE
  8
XTRKCAD3
  10
84.027054
  20
2.956450
  11
97.239659
  21
2.956450
  6
CONTINUOUS
  0
ARC
  10
84.027054
  20
35.405946
  40
32.124696
  50
270.000000
  51
277.125015
  8
XTRKCAD3
  6
DASHED
  0
ARC
  10
84.027054
  20
35.405946
  40
32.449496
  50
270.000000
  51
277.125015
  8
XTRKCAD3
  6
CONTINUOUS
  0
ARC
  10
84.027054
  20
35.405946
  40
31.799896
  50
270.000000
  51
277.125015
  8
XTRKCAD3
  6
CONTINUOUS
  0
LINE
  8
XTRKCAD3
  10
88.011631
  20
3.529321
  11
97.239659
  21
4.682824
  6
DASHED
  0
LINE
  8
XTRKCAD3
  10
87.971345
  20
3.851613
  11
97.199373
  21
5.005116
  6
CONTINUOUS
  0
LINE
  8
XTRKCAD3
  10
88.051917
  20
3.207029
  11
97.279945
  21
4.360532
  6
CONTINUOUS
  0
LINE
  8
XTRKCAD3
  10
116.450940
  20
6.591151
  11
115.801349
  21
6.594482
  6
DASHED
  0
LINE
  8
XTRKCAD3
  10
116.449275
  20
6.266355
  11
115.799683
  21
6.269686
  6
CONTINUOUS
  0
LINE
  8
XTRKCAD3
  10
116.452605
  20
6.915947
  11
115.803014
  21
6.919278
  6
CONTINUOUS
  0
LINE
  8
XTRKCAD3
  10
115.801349
  20
6.594482
  11
102.588917
  21
6.662232
  6
DASHED
  0
LINE
  8
XTRKCAD3
  10
115.799683
  20
6.269686
  11
102.587252
  21
6.337436
  6
CONTINUOUS
  0
LINE
  8
XTRKCAD3
  10
115.803014
  20
6.919278
  11
102.590583
  21
6.987028
  6
CONTINUOUS
  0
ARC
  10
115.636623
  20
-25.529792
  40
32.124696
  50
89.706204
  51
96.831219
  8
XTRKCAD3
  6
DASHED
  0
ARC
  10
115.636623
  20
-25.529792
  40
32.449496
  50
89.706204
  51
96.831219
  8
XTRKCAD3
  6
CONTINUOUS
  0
ARC
  10
115.636623
  20
-25.529792
  40
31.799896
  50
89.706204
  51
96.831219
  8
XTRKCAD3
  6
CONTINUOUS
  0
LINE
  8
XTRKCAD3
  10
111.815552
  20
6.366846
  11
102.581730
  21
5.260676
  6
DASHED
  0
LINE
  8
XTRKCAD3
  10
111.854185
  20
6.044352
  11
102.620364
  21
4.938182
  6
CONTINUOUS
  0
LINE
  8
XTRKCAD3
  10
111.776919
  20
6.689340
  11
102.543097
  21
5.583171
  6
CONTINUOUS
  0
ARC
  10
47.091717
  20
45.158476
  40
40.000000
  50
173.128621
  51
183.128621
  8
XTRKCAD17
  6
DASHED
  0
ARC
  10
47.091717
  20
45.158476
  40
40.324800
  50
173.128621
  51
183.128621
  8
XTRKCAD17
  6
CONTINUOUS
  0
ARC
  10
47.091717
  20
45.158476
  40
39.675200
  50
173.128621
  51
183.128621
  8
XTRKCAD17
  6
CONTINUOUS
  0
LINE
  8
XTRKCAD17
  10
10.123818
  20
61.006386
  11
11.422941
  21
65.597022
  6
DASHED
  0
LINE
  8
XTRKCAD17
  10
9.811291
  20
61.094829
  11
11.110415
  21
65.685465
  6
CONTINUOUS
  0
LINE
  8
XTRKCAD17
  10
10.436345
  20
60.917943
  11
11.735468
  21
65.508579
  6
CONTINUOUS
  0
ARC
  10
87.245161
  20
44.438888
  40
78.718966
  50
160.937317
  51
164.408279
  8
XTRKCAD17
  6
DASHED
  0
ARC
  10
87.245161
  20
44.438888
  40
79.043766
  50
160.937317
  51
164.408279
  8
XTRKCAD17
  6
CONTINUOUS
  0
ARC
  10
87.245161
  20
44.438888
  40
78.394166
  50
160.937317
  51
164.408279
  8
XTRKCAD17
  6
CONTINUOUS
  0
ARC
  10
42.884497
  20
59.714530
  40
31.801938
  50
152.253612
  51
160.846614
  8
XTRKCAD17
  6
DASHED
  0
ARC
  10
42.884497
  20
59.714530
  40
32.126738
  50
152.253612
  51
160.846614
  8
XTRKCAD17
  6
CONTINUOUS
  0
ARC
  10
42.884497
  20
59.714530
  40
31.477138
  50
152.253612
  51
160.846614
  8
XTRKCAD17
  6
CONTINUOUS
  0
ARC
  10
54.627262
  20
52.639402
  40
45.495313
  50
145.246318
  51
151.252782
  8
XTRKCAD17
  6
DASHED
  0
ARC
  10
54.627262
  20
52.639402
  40
45.820113
  50
145.246318
  51
151.252782
  8
XTRKCAD17
  6
CONTINUOUS
  0
ARC
  10
54.627262
  20
52.639402
  40
45.170513
  50
145.246318
  51
151.252782
  8
XTRKCAD17
  6
CONTINUOUS
  0
ARC
  10
26.223113
  20
42.917057
  40
21.625000
  50
180.407792
  51
198.891030
  8
XTRKCAD17
  6
DASHED
  0
ARC
  10
26.223113
  20
42.917057
  40
21.949800
  50
180.407792
  51
198.891030
  8
XTRKCAD17
  6
CONTINUOUS
  0
ARC
  10
26.223113
  20
42.917057
  40
21.300200
  50
180.407792
  51
198.891030
  8
XTRKCAD17
  6
CONTINUOUS
  0
LINE
  8
XTRKCAD3
  10
9.010811
  20
26.424385
  11
14.235380
  21
11.156869
  6
DASHED
  0
LINE
  8
XTRKCAD3
  10
9.318116
  20
26.529545
  11
14.542685
  21
11.262029
  6
CONTINUOUS
  0
LINE
  8
XTRKCAD3
  10
8.703506
  20
26.319225
  11
13.928075
  21
11.051709
  6
CONTINUOUS
  0
LINE
  8
XTRKCAD3
  10
13.620770
  20
10.946548
  11
14.849990
  21
11.367190
  6
CONTINUOUS
  0
LINE
  8
XTRKCAD3
  10
13.556016
  20
11.135776
  11
14.785236
  21
11.556417
  6
CONTINUOUS
  0
LINE
  8
XTRKCAD3
  10
9.009351
  20
19.275412
  11
11.884998
  21
10.872041
  6
DASHED
  0
LINE
  8
XTRKCAD3
  10
9.316656
  20
19.380572
  11
12.192303
  21
10.977201
  6
CONTINUOUS
  0
LINE
  8
XTRKCAD3
  10
8.702046
  20
19.170252
  11
11.577693
  21
10.766881
  6
CONTINUOUS
  0
LINE
  8
XTRKCAD3
  10
11.270388
  20
10.661720
  11
12.499608
  21
11.082362
  6
CONTINUOUS
  0
LINE
  8
XTRKCAD3
  10
11.205634
  20
10.850948
  11
12.434854
  21
11.271589
  6
CONTINUOUS
  0
ARC
  10
113.245238
  20
38.432454
  40
106.293548
  50
186.732842
  51
188.577141
  8
XTRKCAD3
  6
DASHED
  0
ARC
  10
113.245238
  20
38.432454
  40
106.618348
  50
186.732842
  51
188.577141
  8
XTRKCAD3
  6
CONTINUOUS
  0
ARC
  10
113.245238
  20
38.432454
  40
105.968748
  50
186.732842
  51
188.577141
  8
XTRKCAD3
  6
CONTINUOUS
  0
ARC
  10
28.509575
  20
26.169369
  40
20.682973
  50
189.994558
  51
199.470141
  8
XTRKCAD3
  6
DASHED
  0
ARC
  10
28.509575
  20
26.169369
  40
21.007773
  50
189.994558
  51
199.470141
  8
XTRKCAD3
  6
CONTINUOUS
  0
ARC
  10
28.509575
  20
26.169369
  40
20.358173
  50
189.994558
  51
199.470141
  8
XTRKCAD3
  6
CONTINUOUS
  0
LINE
  8
XTRKCAD17
  10
44.992855
  20
26.302619
  11
46.328410
  21
24.767014
  6
DASHED
  0
LINE
  8
XTRKCAD17
  10
45.237931
  20
26.515768
  11
46.573486
  21
24.980163
  6
CONTINUOUS
  0
LINE
  8
XTRKCAD17
  10
44.747779
  20
26.089470
  11
46.083334
  21
24.553865
  6
CONTINUOUS
  0
ARC
  10
168.368728
  20
129.464490
  40
160.796147
  50
220.626046
  51
222.397966
  8
XTRKCAD17
  6
DASHED
  0
ARC
  10
168.368728
  20
129.464490
  40
161.120947
  50
220.626046
  51
222.397966
  8
XTRKCAD17
  6
CONTINUOUS
  0
ARC
  10
168.368728
  20
129.464490
  40
160.471347
  50
220.626046
  51
222.397966
  8
XTRKCAD17
  6
CONTINUOUS
  0
ARC
  10
92.479704
  20
60.649801
  40
58.354631
  50
222.743521
  51
224.370661
  8
XTRKCAD17
  6
DASHED
  0
ARC
  10
92.479704
  20
60.649801
  40
58.679431
  50
222.743521
  51
224.370661
  8
XTRKCAD17
  6
CONTINUOUS
  0
ARC
  10
92.479704
  20
60.649801
  40
58.029831
  50
222.743521
  51
224.370661
  8
XTRKCAD17
  6
CONTINUOUS
  0
ARC
  10
73.205348
  20
41.462356
  40
31.159899
  50
223.934371
  51
233.079587
  8
XTRKCAD17
  6
DASHED
  0
ARC
  10
73.205348
  20
41.462356
  40
31.484699
  50
223.934371
  51
233.079587
  8
XTRKCAD17
  6
CONTINUOUS
  0
ARC
  10
73.205348
  20
41.462356
  40
30.835099
  50
223.934371
  51
233.079587
  8
XTRKCAD17
  6
CONTINUOUS
  0
ARC
  10
67.420069
  20
34.039102
  40
21.750613
  50
233.516803
  51
237.879464
  8
XTRKCAD17
  6
DASHED
  0
ARC
  10
67.420069
  20
34.039102
  40
22.075413
  50
233.516803
  51
237.879464
  8
XTRKCAD17
  6
CONTINUOUS
  0
ARC
  10
67.420069
  20
34.039102
  40
21.425813
  50
233.516803
  51
237.879464
  8
XTRKCAD17
  6
CONTINUOUS
  0
ARC
  10
65.920799
  20
31.634117
  40
18.916592
  50
237.852334
  51
257.930373
  8
XTRKCAD17
  6
DASHED
  0
ARC
  10
65.920799
  20
31.634117
  40
19.241392
  50
237.852334
  51
257.930373
  8
XTRKCAD17
  6
CONTINUOUS
  0
ARC
  10
65.920799
  20
31.634117
  40
18.591792
  50
237.852334
  51
257.930373
  8
XTRKCAD17
  6
CONTINUOUS
  0
ARC
  10
66.507248
  20
35.379369
  40
22.702647
  50
258.459481
  51
266.815329
  8
XTRKCAD17
  6
DASHED
  0
ARC
  10
66.507248
  20
35.379369
  40
23.027447
  50
258.459481
  51
266.815329
  8
XTRKCAD17
  6
CONTINUOUS
  0
ARC
  10
66.507248
  20
35.379369
  40
22.377847
  50
258.459481
  51
266.815329
  8
XTRKCAD17
  6
CONTINUOUS
  0
ARC
  10
68.235644
  20
66.314432
  40
53.685956
  50
266.807699
  51
270.348892
  8
XTRKCAD17
  6
DASHED
  0
ARC
  10
68.235644
  20
66.314432
  40
54.010756
  50
266.807699
  51
270.348892
  8
XTRKCAD17
  6
CONTINUOUS
  0
ARC
  10
68.235644
  20
66.314432
  40
53.361156
  50
266.807699
  51
270.348892
  8
XTRKCAD17
  6
CONTINUOUS
  0
LINE
  8
XTRKCAD3
  10
68.391926
  20
16.638111
  11
69.039598
  21
16.688116
  6
DASHED
  0
LINE
  8
XTRKCAD3
  10
68.366923
  20
16.961947
  11
69.014596
  21
17.011952
  6
CONTINUOUS
  0
LINE
  8
XTRKCAD3
  10
68.416929
  20
16.314275
  11
69.064601
  21
16.364280
  6
CONTINUOUS
  0
LINE
  8
XTRKCAD3
  10
69.039598
  20
16.688116
  11
79.669567
  21
17.508830
  6
DASHED
  0
LINE
  8
XTRKCAD3
  10
69.014596
  20
17.011952
  11
79.644564
  21
17.832666
  6
CONTINUOUS
  0
LINE
  8
XTRKCAD3
  10
69.064601
  20
16.364280
  11
79.694569
  21
17.184994
  6
CONTINUOUS
  0
ARC
  10
66.944825
  20
43.819828
  40
27.212458
  50
274.414909
  51
283.877249
  8
XTRKCAD3
  6
DASHED
  0
ARC
  10
66.944825
  20
43.819828
  40
27.537258
  50
274.414909
  51
283.877249
  8
XTRKCAD3
  6
CONTINUOUS
  0
ARC
  10
66.944825
  20
43.819828
  40
26.887658
  50
274.414909
  51
283.877249
  8
XTRKCAD3
  6
CONTINUOUS
  0
LINE
  8
XTRKCAD3
  10
73.471531
  20
17.401653
  11
79.561676
  21
18.906245
  6
DASHED
  0
LINE
  8
XTRKCAD3
  10
73.393630
  20
17.716973
  11
79.483775
  21
19.221565
  6
CONTINUOUS
  0
LINE
  8
XTRKCAD3
  10
73.549432
  20
17.086333
  11
79.639577
  21
18.590926
  6
CONTINUOUS
  0
LINE
  8
XTRKCAD3
  10
79.669567
  20
17.508830
  11
84.609503
  21
17.935148
  6
DASHED
  0
LINE
  8
XTRKCAD3
  10
79.641640
  20
17.832427
  11
84.581576
  21
18.258745
  6
CONTINUOUS
  0
LINE
  8
XTRKCAD3
  10
79.697494
  20
17.185233
  11
84.637429
  21
17.611551
  6
CONTINUOUS
  0
ARC
  10
89.314002
  20
-41.457975
  40
59.579153
  50
89.760981
  51
94.528914
  8
XTRKCAD3
  6
DASHED
  0
ARC
  10
89.314002
  20
-41.457975
  40
59.903953
  50
89.760981
  51
94.528914
  8
XTRKCAD3
  6
CONTINUOUS
  0
ARC
  10
89.314002
  20
-41.457975
  40
59.254353
  50
89.760981
  51
94.528914
  8
XTRKCAD3
  6
CONTINUOUS
  0
LINE
  8
XTRKCAD3
  10
61.963579
  20
22.853863
  11
89.500139
  21
22.847458
  6
DASHED
  0
LINE
  8
XTRKCAD3
  10
61.963655
  20
23.178663
  11
89.500215
  21
23.172258
  6
CONTINUOUS
  0
LINE
  8
XTRKCAD3
  10
61.963503
  20
22.529063
  11
89.500063
  21
22.522658
  6
CONTINUOUS
  0
LINE
  8
XTRKCAD3
  10
61.963730
  20
23.503463
  11
61.963428
  21
22.204263
  6
CONTINUOUS
  0
LINE
  8
XTRKCAD3
  10
62.163730
  20
23.503416
  11
62.163428
  21
22.204217
  6
CONTINUOUS
  0
LINE
  8
XTRKCAD3
  10
100.811343
  20
22.844827
  11
100.161743
  21
22.844978
  6
DASHED
  0
LINE
  8
XTRKCAD3
  10
100.811267
  20
22.520027
  11
100.161667
  21
22.520178
  6
CONTINUOUS
  0
LINE
  8
XTRKCAD3
  10
100.811419
  20
23.169627
  11
100.161819
  21
23.169778
  6
CONTINUOUS
  0
LINE
  8
XTRKCAD3
  10
100.161743
  20
22.844978
  11
89.500139
  21
22.847458
  6
DASHED
  0
LINE
  8
XTRKCAD3
  10
100.161667
  20
22.520178
  11
89.500064
  21
22.522658
  6
CONTINUOUS
  0
LINE
  8
XTRKCAD3
  10
100.161819
  20
23.169778
  11
89.500215
  21
23.172258
  6
CONTINUOUS
  0
ARC
  10
100.155414
  20
-4.367479
  40
27.212458
  50
89.986674
  51
99.449014
  8
XTRKCAD3
  6
DASHED
  0
ARC
  10
100.155414
  20
-4.367479
  40
27.537258
  50
89.986674
  51
99.449014
  8
XTRKCAD3
  6
CONTINUOUS
  0
ARC
  10
100.155414
  20
-4.367479
  40
26.887658
  50
89.986674
  51
99.449014
  8
XTRKCAD3
  6
CONTINUOUS
  0
LINE
  8
XTRKCAD3
  10
95.687948
  20
22.475763
  11
89.499813
  21
21.445884
  6
DASHED
  0
LINE
  8
XTRKCAD3
  10
95.741270
  20
22.155369
  11
89.553136
  21
21.125491
  6
CONTINUOUS
  0
LINE
  8
XTRKCAD3
  10
95.634626
  20
22.796156
  11
89.446491
  21
21.766277
  6
CONTINUOUS
  0
ARC
  10
53.531398
  20
120.871064
  40
105.234973
  50
284.320983
  51
287.115435
  8
XTRKCAD3
  6
DASHED
  0
ARC
  10
53.531398
  20
120.871064
  40
105.559773
  50
284.320983
  51
287.115435
  8
XTRKCAD3
  6
CONTINUOUS
  0
ARC
  10
53.531398
  20
120.871064
  40
104.910173
  50
284.320983
  51
287.115435
  8
XTRKCAD3
  6
CONTINUOUS
  0
ARC
  10
96.107105
  20
-18.728421
  40
40.714016
  50
99.339577
  51
106.561479
  8
XTRKCAD3
  6
DASHED
  0
ARC
  10
96.107105
  20
-18.728421
  40
41.038816
  50
99.339577
  51
106.561479
  8
XTRKCAD3
  6
CONTINUOUS
  0
ARC
  10
96.107105
  20
-18.728421
  40
40.389216
  50
99.339577
  51
106.561479
  8
XTRKCAD3
  6
CONTINUOUS
  0
LINE
  8
XTRKCAD3
  10
5.796875
  20
102.875000
  11
5.796875
  21
90.475805
  6
DASHED
  0
LINE
  8
XTRKCAD3
  10
6.121675
  20
102.875000
  11
6.121675
  21
90.475805
  6
CONTINUOUS
  0
LINE
  8
XTRKCAD3
  10
5.472075
  20
102.875000
  11
5.472075
  21
90.475805
  6
CONTINUOUS
  0
LINE
  8
XTRKCAD3
  10
6.446475
  20
102.875000
  11
5.147275
  21
102.875000
  6
CONTINUOUS
  0
LINE
  8
XTRKCAD3
  10
6.446475
  20
102.675000
  11
5.147275
  21
102.675000
  6
CONTINUOUS
  0
ARC
  10
68.386799
  20
71.483768
  40
63.993226
  50
176.402504
  51
180.892614
  8
XTRKCAD17
  6
DASHED
  0
ARC
  10
68.386799
  20
71.483768
  40
64.318026
  50
176.402504
  51
180.892614
  8
XTRKCAD17
  6
CONTINUOUS
  0
ARC
  10
68.386799
  20
71.483768
  40
63.668426
  50
176.402504
  51
180.892614
  8
XTRKCAD17
  6
CONTINUOUS
  0
ARC
  10
84.459498
  20
69.083944
  40
80.196822
  50
171.828842
  51
175.411825
  8
XTRKCAD17
  6
DASHED
  0
ARC
  10
84.459498
  20
69.083944
  40
80.521622
  50
171.828842
  51
175.411825
  8
XTRKCAD17
  6
CONTINUOUS
  0
ARC
  10
84.459498
  20
69.083944
  40
79.872022
  50
171.828842
  51
175.411825
  8
XTRKCAD17
  6
CONTINUOUS
  0
ARC
  10
-81.041559
  20
92.857792
  40
87.003046
  50
351.822443
  51
355.125133
  8
XTRKCAD17
  6
DASHED
  0
ARC
  10
-81.041559
  20
92.857792
  40
87.327846
  50
351.822443
  51
355.125133
  8
XTRKCAD17
  6
CONTINUOUS
  0
ARC
  10
-81.041559
  20
92.857792
  40
86.678246
  50
351.822443
  51
355.125133
  8
XTRKCAD17
  6
CONTINUOUS
  0
ARC
  10
-60.062787
  20
89.940454
  40
65.861838
  50
356.103002
  51
360.465728
  8
XTRKCAD17
  6
DASHED
  0
ARC
  10
-60.062787
  20
89.940454
  40
66.186638
  50
356.103002
  51
360.465728
  8
XTRKCAD17
  6
CONTINUOUS
  0
ARC
  10
-60.062787
  20
89.940454
  40
65.537038
  50
356.103002
  51
360.465728
  8
XTRKCAD17
  6
CONTINUOUS
  0
LINE
  8
XTRKCAD3
  10
5.762921
  20
35.915546
  11
5.973242
  21
35.300936
  6
DASHED
  0
LINE
  8
XTRKCAD3
  10
6.070226
  20
36.020706
  11
6.280547
  21
35.406096
  6
CONTINUOUS
  0
LINE
  8
XTRKCAD3
  10
5.455616
  20
35.810386
  11
5.665937
  21
35.195776
  6
CONTINUOUS
  0
LINE
  8
XTRKCAD3
  10
5.973242
  20
35.300936
  11
9.010811
  21
26.424386
  6
DASHED
  0
LINE
  8
XTRKCAD3
  10
6.280547
  20
35.406096
  11
9.318116
  21
26.529546
  6
CONTINUOUS
  0
LINE
  8
XTRKCAD3
  10
5.665937
  20
35.195776
  11
8.703506
  21
26.319226
  6
CONTINUOUS
  0
ARC
  10
-16.764940
  20
27.519893
  40
24.032676
  50
7.567690
  51
18.891030
  8
XTRKCAD3
  6
DASHED
  0
ARC
  10
-16.764940
  20
27.519893
  40
24.357476
  50
7.567690
  51
18.891030
  8
XTRKCAD3
  6
CONTINUOUS
  0
ARC
  10
-16.764940
  20
27.519893
  40
23.707876
  50
7.567690
  51
18.891030
  8
XTRKCAD3
  6
CONTINUOUS
  0
LINE
  8
XTRKCAD3
  10
7.058411
  20
30.684934
  11
7.684732
  21
25.970599
  6
DASHED
  0
LINE
  8
XTRKCAD3
  10
7.380382
  20
30.727710
  11
8.006703
  21
26.013375
  6
CONTINUOUS
  0
LINE
  8
XTRKCAD3
  10
6.736440
  20
30.642159
  11
7.362761
  21
25.927824
  6
CONTINUOUS
  0
LINE
  8
XTRKCAD3
  10
15.175043
  20
79.971660
  11
23.413833
  21
92.190082
  6
DASHED
  0
LINE
  8
XTRKCAD3
  10
14.905745
  20
80.153246
  11
23.144535
  21
92.371668
  6
CONTINUOUS
  0
LINE
  8
XTRKCAD3
  10
15.444341
  20
79.790074
  11
23.683131
  21
92.008496
  6
CONTINUOUS
  0
LINE
  8
XTRKCAD3
  10
23.952430
  20
91.826910
  11
22.875236
  21
92.553254
  6
CONTINUOUS
  0
LINE
  8
XTRKCAD3
  10
23.840616
  20
91.661086
  11
22.763422
  21
92.387430
  6
CONTINUOUS
  0
ARC
  10
115.550649
  20
49.135882
  40
107.494536
  50
170.882550
  51
173.570023
  8
XTRKCAD17
  6
DASHED
  0
ARC
  10
115.550649
  20
49.135882
  40
107.819336
  50
170.882550
  51
173.570023
  8
XTRKCAD17
  6
CONTINUOUS
  0
ARC
  10
115.550649
  20
49.135882
  40
107.169736
  50
170.882550
  51
173.570023
  8
XTRKCAD17
  6
CONTINUOUS
  0
ARC
  10
44.735107
  20
60.505593
  40
35.772077
  50
162.831952
  51
170.890105
  8
XTRKCAD17
  6
DASHED
  0
ARC
  10
44.735107
  20
60.505593
  40
36.096877
  50
162.831952
  51
170.890105
  8
XTRKCAD17
  6
CONTINUOUS
  0
ARC
  10
44.735107
  20
60.505593
  40
35.447277
  50
162.831952
  51
170.890105
  8
XTRKCAD17
  6
CONTINUOUS
  0
ARC
  10
36.627197
  20
62.771109
  40
27.357661
  50
151.804752
  51
162.353011
  8
XTRKCAD17
  6
DASHED
  0
ARC
  10
36.627197
  20
62.771109
  40
27.682461
  50
151.804752
  51
162.353011
  8
XTRKCAD17
  6
CONTINUOUS
  0
ARC
  10
36.627197
  20
62.771109
  40
27.032861
  50
151.804752
  51
162.353011
  8
XTRKCAD17
  6
CONTINUOUS
  0
ARC
  10
48.542754
  20
56.035922
  40
41.042717
  50
146.104509
  51
151.377330
  8
XTRKCAD17
  6
DASHED
  0
ARC
  10
48.542754
  20
56.035922
  40
41.367517
  50
146.104509
  51
151.377330
  8
XTRKCAD17
  6
CONTINUOUS
  0
ARC
  10
48.542754
  20
56.035922
  40
40.717917
  50
146.104509
  51
151.377330
  8
XTRKCAD17
  6
CONTINUOUS
  0
LINE
  8
XTRKCAD17
  10
14.474993
  20
78.924616
  11
15.175043
  21
79.971660
  6
DASHED
  0
LINE
  8
XTRKCAD17
  10
14.204984
  20
79.105143
  11
14.905034
  21
80.152187
  6
CONTINUOUS
  0
LINE
  8
XTRKCAD17
  10
14.745003
  20
78.744089
  11
15.445052
  21
79.791133
  6
CONTINUOUS
  0
LINE
  8
XTRKCAD3
  10
16.761654
  20
40.707728
  11
16.755796
  21
41.357302
  6
DASHED
  0
LINE
  8
XTRKCAD3
  10
16.436867
  20
40.704799
  11
16.431009
  21
41.354373
  6
CONTINUOUS
  0
LINE
  8
XTRKCAD3
  10
17.086441
  20
40.710657
  11
17.080583
  21
41.360231
  6
CONTINUOUS
  0
LINE
  8
XTRKCAD3
  10
16.755796
  20
41.357302
  11
16.659652
  21
52.018472
  6
DASHED
  0
LINE
  8
XTRKCAD3
  10
16.431009
  20
41.354373
  11
16.334865
  21
52.015543
  6
CONTINUOUS
  0
LINE
  8
XTRKCAD3
  10
17.080583
  20
41.360231
  11
16.984438
  21
52.021401
  6
CONTINUOUS
  0
ARC
  10
43.967148
  20
41.602699
  40
27.212458
  50
171.054350
  51
180.516690
  8
XTRKCAD3
  6
DASHED
  0
ARC
  10
43.967148
  20
41.602699
  40
27.537258
  50
171.054350
  51
180.516690
  8
XTRKCAD3
  6
CONTINUOUS
  0
ARC
  10
43.967148
  20
41.602699
  40
26.887658
  50
171.054350
  51
180.516690
  8
XTRKCAD3
  6
CONTINUOUS
  0
LINE
  8
XTRKCAD3
  10
17.085694
  20
45.834168
  11
18.061169
  21
52.031111
  6
DASHED
  0
LINE
  8
XTRKCAD3
  10
16.764845
  20
45.884673
  11
17.740319
  21
52.081617
  6
CONTINUOUS
  0
LINE
  8
XTRKCAD3
  10
17.406543
  20
45.783662
  11
18.382018
  21
51.980606
  6
CONTINUOUS
  0
ARC
  10
6.703443
  20
66.063701
  40
47.694124
  50
31.895425
  51
36.886546
  8
XTRKCAD3
  6
DASHED
  0
ARC
  10
6.703443
  20
66.063701
  40
48.018924
  50
31.895425
  51
36.886546
  8
XTRKCAD3
  6
CONTINUOUS
  0
ARC
  10
6.703443
  20
66.063701
  40
47.369324
  50
31.895425
  51
36.886546
  8
XTRKCAD3
  6
CONTINUOUS
  0
ARC
  10
26.750606
  20
80.807134
  40
22.811674
  50
37.491326
  51
40.966606
  8
XTRKCAD3
  6
DASHED
  0
ARC
  10
26.750606
  20
80.807134
  40
23.136474
  50
37.491326
  51
40.966606
  8
XTRKCAD3
  6
CONTINUOUS
  0
ARC
  10
26.750606
  20
80.807134
  40
22.486874
  50
37.491326
  51
40.966606
  8
XTRKCAD3
  6
CONTINUOUS
  0
ARC
  10
29.753641
  20
83.492858
  40
18.783387
  50
40.786265
  51
57.679943
  8
XTRKCAD3
  6
DASHED
  0
ARC
  10
29.753641
  20
83.492858
  40
19.108187
  50
40.786265
  51
57.679943
  8
XTRKCAD3
  6
CONTINUOUS
  0
ARC
  10
29.753641
  20
83.492858
  40
18.458587
  50
40.786265
  51
57.679943
  8
XTRKCAD3
  6
CONTINUOUS
  0
ARC
  10
29.996991
  20
83.592203
  40
18.569954
  50
58.150579
  51
75.239164
  8
XTRKCAD3
  6
DASHED
  0
ARC
  10
29.996991
  20
83.592203
  40
18.894754
  50
58.150579
  51
75.239164
  8
XTRKCAD3
  6
CONTINUOUS
  0
ARC
  10
29.996991
  20
83.592203
  40
18.245154
  50
58.150579
  51
75.239164
  8
XTRKCAD3
  6
CONTINUOUS
  0
ARC
  10
29.329316
  20
81.103769
  40
21.146380
  50
75.207667
  51
90.214907
  8
XTRKCAD3
  6
DASHED
  0
ARC
  10
29.329316
  20
81.103769
  40
21.471180
  50
75.207667
  51
90.214907
  8
XTRKCAD3
  6
CONTINUOUS
  0
ARC
  10
29.329316
  20
81.103769
  40
20.821580
  50
75.207667
  51
90.214907
  8
XTRKCAD3
  6
CONTINUOUS
  0
ARC
  10
29.254263
  20
80.173641
  40
22.076359
  50
90.011064
  51
107.220177
  8
XTRKCAD3
  6
DASHED
  0
ARC
  10
29.254263
  20
80.173641
  40
22.401159
  50
90.011064
  51
107.220177
  8
XTRKCAD3
  6
CONTINUOUS
  0
ARC
  10
29.254263
  20
80.173641
  40
21.751559
  50
90.011064
  51
107.220177
  8
XTRKCAD3
  6
CONTINUOUS
  0
ARC
  10
28.250583
  20
83.400847
  40
18.696682
  50
107.210086
  51
127.526396
  8
XTRKCAD3
  6
DASHED
  0
ARC
  10
28.250583
  20
83.400847
  40
19.021482
  50
107.210086
  51
127.526396
  8
XTRKCAD3
  6
CONTINUOUS
  0
ARC
  10
28.250583
  20
83.400847
  40
18.371882
  50
107.210086
  51
127.526396
  8
XTRKCAD3
  6
CONTINUOUS
  0
ARC
  10
29.038169
  20
82.615982
  40
19.799419
  50
127.950431
  51
145.079131
  8
XTRKCAD3
  6
DASHED
  0
ARC
  10
29.038169
  20
82.615982
  40
20.124219
  50
127.950431
  51
145.079131
  8
XTRKCAD3
  6
CONTINUOUS
  0
ARC
  10
29.038169
  20
82.615982
  40
19.474619
  50
127.950431
  51
145.079131
  8
XTRKCAD3
  6
CONTINUOUS
  0
ARC
  10
33.891793
  20
79.332171
  40
25.659059
  50
145.270925
  51
155.181850
  8
XTRKCAD3
  6
DASHED
  0
ARC
  10
33.891793
  20
79.332171
  40
25.983859
  50
145.270925
  51
155.181850
  8
XTRKCAD3
  6
CONTINUOUS
  0
ARC
  10
33.891793
  20
79.332171
  40
25.334259
  50
145.270925
  51
155.181850
  8
XTRKCAD3
  6
CONTINUOUS
  0
ARC
  10
44.053379
  20
74.388583
  40
36.957854
  50
154.837991
  51
157.133266
  8
XTRKCAD3
  6
DASHED
  0
ARC
  10
44.053379
  20
74.388583
  40
37.282654
  50
154.837991
  51
157.133266
  8
XTRKCAD3
  6
CONTINUOUS
  0
ARC
  10
44.053379
  20
74.388583
  40
36.633054
  50
154.837991
  51
157.133266
  8
XTRKCAD3
  6
CONTINUOUS
  0
ARC
  10
55.833112
  20
69.579464
  40
49.680818
  50
157.301989
  51
168.143116
  8
XTRKCAD3
  6
DASHED
  0
ARC
  10
55.833112
  20
69.579464
  40
50.005618
  50
157.301989
  51
168.143116
  8
XTRKCAD3
  6
CONTINUOUS
  0
ARC
  10
55.833112
  20
69.579464
  40
49.356018
  50
157.301989
  51
168.143116
  8
XTRKCAD3
  6
CONTINUOUS
  0
ARC
  10
88.591149
  20
63.038852
  40
83.084464
  50
168.370453
  51
173.231929
  8
XTRKCAD3
  6
DASHED
  0
ARC
  10
88.591149
  20
63.038852
  40
83.409264
  50
168.370453
  51
173.231929
  8
XTRKCAD3
  6
CONTINUOUS
  0
ARC
  10
88.591149
  20
63.038852
  40
82.759664
  50
168.370453
  51
173.231929
  8
XTRKCAD3
  6
CONTINUOUS
  0
LINE
  8
XTRKCAD3
  10
6.085673
  20
72.830406
  11
5.802878
  21
70.496829
  6
DASHED
  0
LINE
  8
XTRKCAD3
  10
6.408114
  20
72.791331
  11
6.125319
  21
70.457754
  6
CONTINUOUS
  0
LINE
  8
XTRKCAD3
  10
5.763232
  20
72.869481
  11
5.480437
  21
70.535904
  6
CONTINUOUS
  0
LINE
  8
XTRKCAD3
  10
42.334707
  20
54.068881
  11
45.796623
  21
58.969405
  6
DASHED
  0
LINE
  8
XTRKCAD3
  10
42.069425
  20
54.256286
  11
45.531341
  21
59.156810
  6
CONTINUOUS
  0
LINE
  8
XTRKCAD3
  10
42.599989
  20
53.881476
  11
46.061905
  21
58.782000
  6
CONTINUOUS
  0
ARC
  10
-132.651801
  20
86.425922
  40
183.826547
  50
355.559608
  51
357.045684
  8
XTRKCAD3
  6
DASHED
  0
ARC
  10
-132.651801
  20
86.425922
  40
184.151347
  50
355.559608
  51
357.045684
  8
XTRKCAD3
  6
CONTINUOUS
  0
ARC
  10
-132.651801
  20
86.425922
  40
183.501747
  50
355.559608
  51
357.045684
  8
XTRKCAD3
  6
CONTINUOUS
  0
ARC
  10
17.572619
  20
74.599317
  40
33.137788
  50
347.593416
  51
355.837024
  8
XTRKCAD3
  6
DASHED
  0
ARC
  10
17.572619
  20
74.599317
  40
33.462588
  50
347.593416
  51
355.837024
  8
XTRKCAD3
  6
CONTINUOUS
  0
ARC
  10
17.572619
  20
74.599317
  40
32.812988
  50
347.593416
  51
355.837024
  8
XTRKCAD3
  6
CONTINUOUS
  0
ARC
  10
30.469312
  20
71.943699
  40
19.972497
  50
333.408139
  51
347.085013
  8
XTRKCAD3
  6
DASHED
  0
ARC
  10
30.469312
  20
71.943699
  40
20.297297
  50
333.408139
  51
347.085013
  8
XTRKCAD3
  6
CONTINUOUS
  0
ARC
  10
30.469312
  20
71.943699
  40
19.647697
  50
333.408139
  51
347.085013
  8
XTRKCAD3
  6
CONTINUOUS
  0
ARC
  10
24.483755
  20
75.356130
  40
26.854981
  50
324.987016
  51
332.614167
  8
XTRKCAD3
  6
DASHED
  0
ARC
  10
24.483755
  20
75.356130
  40
27.179781
  50
324.987016
  51
332.614167
  8
XTRKCAD3
  6
CONTINUOUS
  0
ARC
  10
24.483755
  20
75.356130
  40
26.530181
  50
324.987016
  51
332.614167
  8
XTRKCAD3
  6
CONTINUOUS
  0
LINE
  8
XTRKCAD3
  10
46.478576
  20
59.947761
  11
45.796623
  21
58.969405
  6
DASHED
  0
LINE
  8
XTRKCAD3
  10
46.745033
  20
59.762030
  11
46.063080
  21
58.783674
  6
CONTINUOUS
  0
LINE
  8
XTRKCAD3
  10
46.212120
  20
60.133492
  11
45.530167
  21
59.155136
  6
CONTINUOUS
  0
ENDSEC
  0
EOF
