  0
SECTION
  2
HEADER
  9
$ACADVER
  1
AC1009
  9
$DWGCODEPAGE
  3
ANSI_1252
  9
$EXTMIN
 10
1e+20
 20
1e+20
 30
1e+20
  9
$EXTMAX
 10
-1e+20
 20
-1e+20
 30
-1e+20
  9
$LIMMIN
 10
0.0
 20
0.0
  9
$LIMMAX
 10
420.0
 20
297.0
  9
$TEXTSTYLE
  7
STANDARD
  9
$DIMASZ
 40
0.8
  9
$DIMTXT
 40
1.0
  9
$TDCREATE
 40
2460715.465648148
  9
$TDUPDATE
 40
2460715.465648148
  9
$PEXTMIN
 10
1e+20
 20
1e+20
 30
1e+20
  9
$PEXTMAX
 10
-1e+20
 20
-1e+20
 30
-1e+20
  9
$PLIMMIN
 10
0.0
 20
0.0
  9
$PLIMMAX
 10
420.0
 20
297.0
  0
ENDSEC
  0
SECTION
  2
TABLES
  0
TABLE
  2
VPORT
 70
1
  0
VPORT
  2
*Active
 70
0
 10
0.0
 20
0.0
 11
1.0
 21
1.0
 12
0.0
 22
0.0
 13
0.0
 23
0.0
 14
0.5
 24
0.5
 15
0.5
 25
0.5
 16
0.0
 26
0.0
 36
1.0
 17
0.0
 27
0.0
 37
0.0
 40
1000.0
 41
1.34
 42
50.0
 43
0.0
 44
0.0
 50
0.0
 51
0.0
 71
0
 72
1000
 73
1
 74
3
 75
0
 76
0
 77
0
 78
0
  0
ENDTAB
  0
TABLE
  2
LTYPE
 70
5
  0
LTYPE
  2
CONTINUOUS
 70
0
  3
Solid line
 72
65
 73
0
 40
0.0
  0
LTYPE
  2
DASHED
 70
0
  3
__ __ __ __ __ __ __ __ __ __ __ __ __ __ __
 72
65
 73
2
 40
0.15
 49
0.1
 49
-0.05
  0
LTYPE
  2
DOT
 70
0
  3
...............................................
 72
65
 73
2
 40
0.1
 49
0.0
 49
-0.05
  0
LTYPE
  2
ByBlock
 70
0
  3

 72
65
 73
0
 40
0.0
  0
LTYPE
  2
ByLayer
 70
0
  3

 72
65
 73
0
 40
0.0
  0
ENDTAB
  0
TABLE
  2
LAYER
 70
12
  0
LAYER
  2
XTRKCAD1
 70
0
 62
7
  6
CONTINUOUS
  0
LAYER
  2
XTRKCAD2
 70
0
 62
7
  6
CONTINUOUS
  0
LAYER
  2
XTRKCAD3
 70
0
 62
7
  6
CONTINUOUS
  0
LAYER
  2
XTRKCAD4
 70
0
 62
7
  6
CONTINUOUS
  0
LAYER
  2
XTRKCAD5
 70
0
 62
7
  6
CONTINUOUS
  0
LAYER
  2
XTRKCAD6
 70
0
 62
7
  6
CONTINUOUS
  0
LAYER
  2
XTRKCAD7
 70
0
 62
7
  6
CONTINUOUS
  0
LAYER
  2
XTRKCAD8
 70
0
 62
7
  6
CONTINUOUS
  0
LAYER
  2
XTRKCAD9
 70
0
 62
7
  6
CONTINUOUS
  0
LAYER
  2
XTRKCAD10
 70
0
 62
7
  6
CONTINUOUS
  0
LAYER
  2
0
 70
0
 62
7
  6
Continuous
  0
LAYER
  2
Defpoints
 70
0
 62
7
  6
Continuous
  0
ENDTAB
  0
TABLE
  2
STYLE
 70
1
  0
STYLE
  2
Standard
 70
0
 40
0.0
 41
1.0
 50
0.0
 71
0
 42
2.5
  3
txt
  4

  0
ENDTAB
  0
TABLE
  2
VIEW
 70
0
  0
ENDTAB
  0
TABLE
  2
UCS
 70
0
  0
ENDTAB
  0
TABLE
  2
APPID
 70
3
  0
APPID
  2
ACAD
 70
0
  0
APPID
  2
HATCHBACKGROUNDCOLOR
 70
0
  0
APPID
  2
EZDXF
 70
0
  0
ENDTAB
  0
TABLE
  2
DIMSTYLE
 70
1
  0
DIMSTYLE
  2
Standard
 70
0
  3

  4

  5

  6

  7

 40
1.0
 41
2.5
 42
0.625
 43
3.75
 44
1.25
 45
0.0
 46
0.0
 47
0.0
 48
0.0
140
2.5
141
2.5
142
0.0
143
0.03937007874
144
1.0
145
0.0
146
1.0
147
0.625
 71
0
 72
0
 73
0
 74
0
 75
0
 76
0
 77
1
 78
8
170
0
171
3
172
1
173
0
174
0
175
0
176
0
177
0
178
0
  0
ENDTAB
  0
ENDSEC
  0
SECTION
  2
BLOCKS
  0
BLOCK
  8
0
  2
$Model_Space
 70
0
 10
0.0
 20
0.0
 30
0.0
  3
$Model_Space
  1

1001
EZDXF
1000
WRITTEN_BY_EZDXF
1000
1.3.5 @ 2025-02-08T16:10:32.396781+00:00
  0
ENDBLK
  8
0
  0
BLOCK
  8
0
  2
$Paper_Space
 70
0
 10
0.0
 20
0.0
 30
0.0
  3
$Paper_Space
  1

  0
ENDBLK
  8
0
  0
ENDSEC
  0
SECTION
  2
ENTITIES
  0
LINE
  8
XTRKCAD3
  6
DASHED
 10
17.247844
 20
78.573986
 30
0.0
 11
25.486634
 21
90.792408
 31
0.0
  0
LINE
  8
XTRKCAD3
  6
DASHED
 10
15.171577
 20
79.966521
 30
0.0
 11
25.749777
 21
95.654372
 31
0.0
  0
LINE
  8
XTRKCAD3
  6
DASHED
 10
25.486634
 20
90.792408
 30
0.0
 11
27.583146
 21
93.90161
 31
0.0
  0
LINE
  8
XTRKCAD3
  6
DASHED
 10
12.286413
 20
29.41432
 30
0.0
 11
11.83938
 21
29.885639
 31
0.0
  0
ARC
  8
XTRKCAD3
  6
DASHED
 10
23.933382
 20
41.356467
 30
0.0
 40
16.668677
 50
183.128621
 51
223.485161
  0
LINE
  8
XTRKCAD3
  6
DASHED
 10
7.289549
 20
40.446731
 30
0.0
 11
7.151336
 21
42.975372
 31
0.0
  0
ARC
  8
XTRKCAD3
  6
DASHED
 10
27.796964
 20
45.021251
 30
0.0
 40
21.993891
 50
187.588554
 51
223.485695
  0
LINE
  8
XTRKCAD3
  6
DASHED
 10
5.995698
 20
42.116773
 30
0.0
 11
5.909912
 21
42.760684
 31
0.0
  0
LINE
  8
XTRKCAD3
  6
DASHED
 10
7.379028
 20
49.944113
 30
0.0
 11
7.456747
 21
50.589047
 31
0.0
  0
LINE
  8
XTRKCAD3
  6
DASHED
 10
7.456747
 20
50.589047
 30
0.0
 11
8.732311
 21
61.174071
 31
0.0
  0
ARC
  8
XTRKCAD3
  6
DASHED
 10
34.473744
 20
47.333324
 30
0.0
 40
27.212458
 50
163.666281
 51
173.128621
  0
LINE
  8
XTRKCAD3
  6
DASHED
 10
8.359582
 20
54.986325
 30
0.0
 11
10.123818
 21
61.006386
 31
0.0
  0
LINE
  8
XTRKCAD3
  6
DASHED
 10
4.5
 20
56.625
 30
0.0
 11
4.495377
 21
57.274584
 31
0.0
  0
LINE
  8
XTRKCAD3
  6
DASHED
 10
4.495377
 20
57.274584
 30
0.0
 11
4.401339
 21
70.486854
 31
0.0
  0
ARC
  8
XTRKCAD3
  6
DASHED
 10
36.619259
 20
57.503223
 30
0.0
 40
32.124696
 50
173.282777
 51
180.407792
  0
LINE
  8
XTRKCAD3
  6
DASHED
 10
4.715082
 20
61.260825
 30
0.0
 11
5.802878
 21
70.496829
 31
0.0
  0
LINE
  8
XTRKCAD3
  6
DASHED
 10
4.5
 20
56.625
 30
0.0
 11
4.504623
 21
55.975416
 31
0.0
  0
LINE
  8
XTRKCAD3
  6
DASHED
 10
4.504623
 20
55.975416
 30
0.0
 11
4.598661
 21
42.763146
 31
0.0
  0
ARC
  8
XTRKCAD3
  6
DASHED
 10
36.628506
 20
56.204056
 30
0.0
 40
32.124696
 50
180.407792
 51
187.532807
  0
LINE
  8
XTRKCAD3
  6
DASHED
 10
4.781047
 20
51.992706
 30
0.0
 11
6.000199
 21
42.773121
 31
0.0
  0
ARC
  8
XTRKCAD17
  6
DASHED
 10
47.091717
 20
45.158476
 30
0.0
 40
40.0
 50
173.128621
 51
183.128621
  0
ARC
  8
XTRKCAD17
  6
DASHED
 10
115.182663
 20
49.176987
 30
0.0
 40
107.124262
 50
170.871157
 51
173.569829
  0
ARC
  8
XTRKCAD17
  6
DASHED
 10
44.719634
 20
60.504507
 30
0.0
 40
35.756545
 50
162.811394
 51
170.878729
  0
ARC
  8
XTRKCAD17
  6
DASHED
 10
36.667687
 20
62.754934
 30
0.0
 40
27.40014
 50
151.791961
 51
162.331319
  0
ARC
  8
XTRKCAD17
  6
DASHED
 10
48.63887
 20
55.987185
 30
0.0
 40
41.149668
 50
146.103718
 51
151.366559
  0
LINE
  8
XTRKCAD17
  6
DASHED
 10
14.482651
 20
78.935994
 30
0.0
 11
15.183208
 21
79.98377
 31
0.0
  0
LINE
  8
XTRKCAD17
  6
DASHED
 10
10.123818
 20
61.006386
 30
0.0
 11
11.422941
 21
65.597022
 31
0.0
  0
ARC
  8
XTRKCAD17
  6
DASHED
 10
87.245161
 20
44.438888
 30
0.0
 40
78.718966
 50
160.937317
 51
164.408279
  0
ARC
  8
XTRKCAD17
  6
DASHED
 10
42.884497
 20
59.71453
 30
0.0
 40
31.801938
 50
152.253612
 51
160.846614
  0
ARC
  8
XTRKCAD17
  6
DASHED
 10
54.627262
 20
52.639402
 30
0.0
 40
45.495313
 50
145.246318
 51
151.252782
  0
ARC
  8
XTRKCAD17
  6
DASHED
 10
26.223113
 20
42.917057
 30
0.0
 40
21.625
 50
180.407792
 51
198.89103
  0
LINE
  8
XTRKCAD3
  6
DASHED
 10
9.010811
 20
26.424385
 30
0.0
 11
13.415919
 21
13.551544
 31
0.0
  0
LINE
  8
XTRKCAD3
  6
DASHED
 10
9.009351
 20
19.275412
 30
0.0
 11
11.195953
 21
12.885605
 31
0.0
  0
ARC
  8
XTRKCAD3
  6
DASHED
 10
113.245238
 20
38.432454
 30
0.0
 40
106.293548
 50
186.732842
 51
188.577141
  0
ARC
  8
XTRKCAD3
  6
DASHED
 10
28.509575
 20
26.169369
 30
0.0
 40
20.682973
 50
189.994558
 51
199.470141
  0
LINE
  8
XTRKCAD3
  6
DASHED
 10
13.415919
 20
13.551544
 30
0.0
 11
14.630054
 21
10.003534
 31
0.0
  0
LINE
  8
XTRKCAD3
  6
DASHED
 10
11.195953
 20
12.885605
 30
0.0
 11
12.410088
 21
9.337595
 31
0.0
  0
LINE
  8
XTRKCAD3
  6
DASHED
 10
5.046875
 20
100.625
 30
0.0
 11
5.046875
 21
88.225805
 31
0.0
  0
ARC
  8
XTRKCAD17
  6
DASHED
 10
117.586117
 20
71.060173
 30
0.0
 40
113.18623
 50
175.79641
 51
180.29022
  0
ARC
  8
XTRKCAD17
  6
DASHED
 10
-119.435081
 20
88.591949
 30
0.0
 40
124.482495
 50
355.745413
 51
359.831474
  0
LINE
  8
XTRKCAD3
  6
DASHED
 10
5.762921
 20
35.915546
 30
0.0
 11
5.973242
 21
35.300936
 31
0.0
  0
LINE
  8
XTRKCAD3
  6
DASHED
 10
5.973242
 20
35.300936
 30
0.0
 11
9.010811
 21
26.424386
 31
0.0
  0
ARC
  8
XTRKCAD3
  6
DASHED
 10
-16.76494
 20
27.519893
 30
0.0
 40
24.032676
 50
7.56769
 51
18.89103
  0
LINE
  8
XTRKCAD3
  6
DASHED
 10
7.058411
 20
30.684934
 30
0.0
 11
7.684732
 21
25.970599
 31
0.0
  0
ENDSEC
  0
EOF
