  0
SECTION
  2
HEADER
  9
$ACADVER
  1
AC1009
  9
$DWGCODEPAGE
  3
ANSI_1252
  9
$EXTMIN
 10
1e+20
 20
1e+20
 30
1e+20
  9
$EXTMAX
 10
-1e+20
 20
-1e+20
 30
-1e+20
  9
$LIMMIN
 10
0.0
 20
0.0
  9
$LIMMAX
 10
420.0
 20
297.0
  9
$TEXTSTYLE
  7
STANDARD
  9
$DIMASZ
 40
0.8
  9
$DIMTXT
 40
1.0
  9
$TDCREATE
 40
2460753.437175926
  9
$TDUPDATE
 40
2460753.437175926
  9
$PEXTMIN
 10
1e+20
 20
1e+20
 30
1e+20
  9
$PEXTMAX
 10
-1e+20
 20
-1e+20
 30
-1e+20
  9
$PLIMMIN
 10
0.0
 20
0.0
  9
$PLIMMAX
 10
420.0
 20
297.0
  0
ENDSEC
  0
SECTION
  2
TABLES
  0
TABLE
  2
VPORT
 70
1
  0
VPORT
  2
*Active
 70
0
 10
0.0
 20
0.0
 11
1.0
 21
1.0
 12
0.0
 22
0.0
 13
0.0
 23
0.0
 14
0.5
 24
0.5
 15
0.5
 25
0.5
 16
0.0
 26
0.0
 36
1.0
 17
0.0
 27
0.0
 37
0.0
 40
1000.0
 41
1.34
 42
50.0
 43
0.0
 44
0.0
 50
0.0
 51
0.0
 71
0
 72
1000
 73
1
 74
3
 75
0
 76
0
 77
0
 78
0
  0
ENDTAB
  0
TABLE
  2
LTYPE
 70
5
  0
LTYPE
  2
CONTINUOUS
 70
0
  3
Solid line
 72
65
 73
0
 40
0.0
  0
LTYPE
  2
DASHED
 70
0
  3
__ __ __ __ __ __ __ __ __ __ __ __ __ __ __
 72
65
 73
2
 40
0.15
 49
0.1
 49
-0.05
  0
LTYPE
  2
DOT
 70
0
  3
...............................................
 72
65
 73
2
 40
0.1
 49
0.0
 49
-0.05
  0
LTYPE
  2
ByBlock
 70
0
  3

 72
65
 73
0
 40
0.0
  0
LTYPE
  2
ByLayer
 70
0
  3

 72
65
 73
0
 40
0.0
  0
ENDTAB
  0
TABLE
  2
LAYER
 70
12
  0
LAYER
  2
XTRKCAD1
 70
0
 62
7
  6
CONTINUOUS
  0
LAYER
  2
XTRKCAD2
 70
0
 62
7
  6
CONTINUOUS
  0
LAYER
  2
XTRKCAD3
 70
0
 62
7
  6
CONTINUOUS
  0
LAYER
  2
XTRKCAD4
 70
0
 62
7
  6
CONTINUOUS
  0
LAYER
  2
XTRKCAD5
 70
0
 62
7
  6
CONTINUOUS
  0
LAYER
  2
XTRKCAD6
 70
0
 62
7
  6
CONTINUOUS
  0
LAYER
  2
XTRKCAD7
 70
0
 62
7
  6
CONTINUOUS
  0
LAYER
  2
XTRKCAD8
 70
0
 62
7
  6
CONTINUOUS
  0
LAYER
  2
XTRKCAD9
 70
0
 62
7
  6
CONTINUOUS
  0
LAYER
  2
XTRKCAD10
 70
0
 62
7
  6
CONTINUOUS
  0
LAYER
  2
0
 70
0
 62
7
  6
Continuous
  0
LAYER
  2
Defpoints
 70
0
 62
7
  6
Continuous
  0
ENDTAB
  0
TABLE
  2
STYLE
 70
1
  0
STYLE
  2
Standard
 70
0
 40
0.0
 41
1.0
 50
0.0
 71
0
 42
2.5
  3
txt
  4

  0
ENDTAB
  0
TABLE
  2
VIEW
 70
0
  0
ENDTAB
  0
TABLE
  2
UCS
 70
0
  0
ENDTAB
  0
TABLE
  2
APPID
 70
3
  0
APPID
  2
ACAD
 70
0
  0
APPID
  2
HATCHBACKGROUNDCOLOR
 70
0
  0
APPID
  2
EZDXF
 70
0
  0
ENDTAB
  0
TABLE
  2
DIMSTYLE
 70
1
  0
DIMSTYLE
  2
Standard
 70
0
  3

  4

  5

  6

  7

 40
1.0
 41
2.5
 42
0.625
 43
3.75
 44
1.25
 45
0.0
 46
0.0
 47
0.0
 48
0.0
140
2.5
141
2.5
142
0.0
143
0.03937007874
144
1.0
145
0.0
146
1.0
147
0.625
 71
0
 72
0
 73
0
 74
0
 75
0
 76
0
 77
1
 78
8
170
0
171
3
172
1
173
0
174
0
175
0
176
0
177
0
178
0
  0
ENDTAB
  0
ENDSEC
  0
SECTION
  2
BLOCKS
  0
BLOCK
  8
0
  2
$Model_Space
 70
0
 10
0.0
 20
0.0
 30
0.0
  3
$Model_Space
  1

1001
EZDXF
1000
WRITTEN_BY_EZDXF
1000
1.3.5 @ 2025-03-18T14:29:32.021061+00:00
  0
ENDBLK
  8
0
  0
BLOCK
  8
0
  2
$Paper_Space
 70
0
 10
0.0
 20
0.0
 30
0.0
  3
$Paper_Space
  1

  0
ENDBLK
  8
0
  0
ENDSEC
  0
SECTION
  2
ENTITIES
  0
LINE
  8
XTRKCAD3
  6
DASHED
 10
83.375486
 20
12.617831
 30
0.0
 11
119.624874
 21
12.589345
 31
0.0
  0
LINE
  8
XTRKCAD3
  6
DASHED
 10
183.348358
 20
24.795982
 30
0.0
 11
206.780953
 21
24.795982
 31
0.0
  0
LINE
  8
XTRKCAD3
  6
DASHED
 10
83.312347
 20
15.367483
 30
0.0
 11
120.187766
 21
15.338506
 31
0.0
  0
ARC
  8
XTRKCAD17
  6
DASHED
 10
198.020093
 20
18.262612
 30
0.0
 40
27.531367
 50
85.650483
 51
102.231139
  0
ARC
  8
XTRKCAD17
  6
DASHED
 10
198.169691
 20
21.467769
 30
0.0
 40
24.324277
 50
79.179226
 51
85.42927
  0
ARC
  8
XTRKCAD17
  6
DASHED
 10
198.452205
 20
22.840904
 30
0.0
 40
22.922527
 50
65.954549
 51
79.228472
  0
ARC
  8
XTRKCAD17
  6
DASHED
 10
199.075485
 20
24.269416
 30
0.0
 40
21.364019
 50
51.677801
 51
65.920034
  0
ARC
  8
XTRKCAD17
  6
DASHED
 10
199.720971
 20
25.108766
 30
0.0
 40
20.305269
 50
36.653308
 51
51.63813
  0
ARC
  8
XTRKCAD17
  6
DASHED
 10
200.232377
 20
25.508199
 30
0.0
 40
19.656543
 50
21.129788
 51
36.609135
  0
ARC
  8
XTRKCAD17
  6
DASHED
 10
200.4882
 20
25.624352
 30
0.0
 40
19.376055
 50
5.378693
 51
21.082107
  0
ARC
  8
XTRKCAD17
  6
DASHED
 10
200.401621
 20
25.633236
 30
0.0
 40
19.461427
 50
349.694232
 51
365.32876
  0
ARC
  8
XTRKCAD17
  6
DASHED
 10
199.922033
 20
25.738418
 30
0.0
 40
19.952103
 50
334.3934
 51
349.643444
  0
ARC
  8
XTRKCAD17
  6
DASHED
 10
199.034606
 20
26.184107
 30
0.0
 40
20.945001
 50
319.815988
 51
334.343125
  0
ARC
  8
XTRKCAD17
  6
DASHED
 10
197.756217
 20
27.288955
 30
0.0
 40
22.634564
 50
306.324597
 51
319.767376
  0
ARC
  8
XTRKCAD17
  6
DASHED
 10
196.127748
 20
29.538455
 30
0.0
 40
25.411575
 50
294.304628
 51
306.278384
  0
ARC
  8
XTRKCAD17
  6
DASHED
 10
193.580848
 20
35.60516
 30
0.0
 40
31.989345
 50
279.72692
 51
293.989727
  0
ARC
  8
XTRKCAD17
  6
DASHED
 10
191.598914
 20
45.436988
 30
0.0
 40
42.015701
 50
276.501629
 51
280.125566
  0
ARC
  8
XTRKCAD17
  6
DASHED
 10
189.744391
 20
63.829061
 30
0.0
 40
60.499954
 50
271.247231
 51
276.274372
  0
ARC
  8
XTRKCAD17
  6
DASHED
 10
187.34325
 20
173.866784
 30
0.0
 40
170.563873
 50
269.464401
 51
271.249054
  0
ARC
  8
XTRKCAD3
  6
DASHED
 10
241.316497
 20
-73.260352
 30
0.0
 40
129.202616
 50
118.251904
 51
121.691226
  0
ARC
  8
XTRKCAD3
  6
DASHED
 10
210.356227
 20
-16.555307
 30
0.0
 40
64.598984
 50
115.577675
 51
117.869756
  0
ARC
  8
XTRKCAD3
  6
DASHED
 10
203.571683
 20
-1.619286
 30
0.0
 40
48.198681
 50
106.746686
 51
115.968451
  0
ARC
  8
XTRKCAD3
  6
DASHED
 10
199.417398
 20
11.348274
 30
0.0
 40
34.584926
 50
102.066705
 51
106.346416
  0
LINE
  8
XTRKCAD3
  6
DASHED
 10
17.247844
 20
78.573986
 30
0.0
 11
25.486634
 21
90.792408
 31
0.0
  0
ARC
  8
XTRKCAD17
  6
DASHED
 10
-25.969138
 20
86.725744
 30
0.0
 40
76.265741
 50
349.098916
 51
352.655121
  0
ARC
  8
XTRKCAD17
  6
DASHED
 10
19.266621
 20
78.008656
 30
0.0
 40
30.197732
 50
340.150169
 51
349.108542
  0
ARC
  8
XTRKCAD17
  6
DASHED
 10
22.934905
 20
76.965305
 30
0.0
 40
26.394443
 50
329.313055
 51
339.576588
  0
ARC
  8
XTRKCAD17
  6
DASHED
 10
1.181676
 20
90.536455
 30
0.0
 40
52.030643
 50
323.47987
 51
328.686389
  0
LINE
  8
XTRKCAD3
  6
DASHED
 10
16.718759
 20
52.031447
 30
0.0
 11
16.654214
 21
72.756709
 31
0.0
  0
LINE
  8
XTRKCAD3
  6
DASHED
 10
158.014731
 20
26.279414
 30
0.0
 11
161.703853
 21
29.164006
 31
0.0
  0
ARC
  8
XTRKCAD17
  6
DASHED
 10
117.265268
 20
85.730603
 30
0.0
 40
79.143641
 50
269.410459
 51
272.182688
  0
ARC
  8
XTRKCAD17
  6
DASHED
 10
118.969309
 20
41.073422
 30
0.0
 40
34.453961
 50
272.179369
 51
278.53949
  0
ARC
  8
XTRKCAD17
  6
DASHED
 10
119.688519
 20
35.286555
 30
0.0
 40
28.624835
 50
278.835852
 51
294.156574
  0
LINE
  8
XTRKCAD3
  6
DASHED
 10
169.375
 20
7.28125
 30
0.0
 11
186.0
 21
7.28125
 31
0.0
  0
LINE
  8
XTRKCAD3
  6
DASHED
 10
100.811343
 20
22.844827
 30
0.0
 11
121.940762
 21
22.839913
 31
0.0
  0
LINE
  8
XTRKCAD3
  6
DASHED
 10
120.875075
 20
18.096053
 30
0.0
 11
89.562546
 21
18.120659
 31
0.0
  0
LINE
  8
XTRKCAD3
  6
DASHED
 10
97.249
 20
4.59245
 30
0.0
 11
102.55378
 21
5.26079
 31
0.0
  0
LINE
  8
XTRKCAD3
  6
DASHED
 10
73.625
 20
3.28125
 30
0.0
 11
83.377454
 21
3.28125
 31
0.0
  0
LINE
  8
XTRKCAD17
  6
DASHED
 10
97.249
 20
3.28125
 30
0.0
 11
132.359389
 21
3.28125
 31
0.0
  0
ARC
  8
XTRKCAD17
  6
DASHED
 10
112.262167
 20
50.594766
 30
0.0
 40
45.634478
 50
294.798703
 51
300.866777
  0
LINE
  8
XTRKCAD17
  6
DASHED
 10
135.674644
 20
11.423839
 30
0.0
 11
137.063437
 21
12.24208
 31
0.0
  0
LINE
  8
XTRKCAD3
  6
DASHED
 10
102.588917
 20
6.662232
 30
0.0
 11
88.084037
 21
6.669192
 31
0.0
  0
ARC
  8
XTRKCAD3
  6
DASHED
 10
89.783896
 20
437.723163
 30
0.0
 40
431.057323
 50
269.131415
 51
269.774056
  0
LINE
  8
XTRKCAD3
  6
DASHED
 10
68.562553
 20
12.629471
 30
0.0
 11
83.375486
 21
12.617831
 31
0.0
  0
LINE
  8
XTRKCAD3
  6
DASHED
 10
68.342069
 20
15.379247
 30
0.0
 11
83.312347
 21
15.367483
 31
0.0
  0
LINE
  8
XTRKCAD17
  6
DASHED
 10
40.83028
 20
56.567154
 30
0.0
 11
36.367776
 21
50.374044
 31
0.0
  0
LINE
  8
XTRKCAD17
  6
DASHED
 10
42.99599
 20
59.57275
 30
0.0
 11
40.83028
 21
56.567154
 31
0.0
  0
LINE
  8
XTRKCAD3
  6
DASHED
 10
48.481498
 20
6.503036
 30
0.0
 11
47.84345
 21
6.625001
 31
0.0
  0
ARC
  8
XTRKCAD3
  6
DASHED
 10
51.514708
 20
25.830813
 30
0.0
 40
19.553551
 50
220.247044
 51
259.178259
  0
LINE
  8
XTRKCAD3
  6
DASHED
 10
36.590152
 20
13.197565
 30
0.0
 11
35.644963
 21
14.314184
 31
0.0
  0
ARC
  8
XTRKCAD3
  6
DASHED
 10
52.670004
 20
31.874626
 30
0.0
 40
25.706793
 50
227.546052
 51
259.178259
  0
LINE
  8
XTRKCAD3
  6
DASHED
 10
35.317986
 20
12.907637
 30
0.0
 11
34.838686
 21
13.346127
 31
0.0
  0
ARC
  8
XTRKCAD3
  6
DASHED
 10
82.324235
 20
180.383635
 30
0.0
 40
177.143426
 50
258.986102
 51
262.682789
  0
ARC
  8
XTRKCAD3
  6
DASHED
 10
84.982616
 20
57.097288
 30
0.0
 40
65.303889
 50
216.512595
 51
220.930166
  0
ARC
  8
XTRKCAD3
  6
DASHED
 10
53.973043
 20
33.971023
 30
0.0
 40
26.620921
 50
205.38204
 51
216.2188
  0
ARC
  8
XTRKCAD3
  6
DASHED
 10
48.495883
 20
31.271162
 30
0.0
 40
20.515376
 50
191.064789
 51
205.126644
  0
ARC
  8
XTRKCAD3
  6
DASHED
 10
47.680561
 20
31.036732
 30
0.0
 40
19.670357
 50
176.184445
 51
190.850417
  0
ARC
  8
XTRKCAD3
  6
DASHED
 10
49.833188
 20
30.829835
 30
0.0
 40
21.832072
 50
162.804712
 51
176.018603
  0
ARC
  8
XTRKCAD3
  6
DASHED
 10
55.809761
 20
28.922688
 30
0.0
 40
28.105371
 50
152.427957
 51
162.692483
  0
ARC
  8
XTRKCAD3
  6
DASHED
 10
70.953801
 20
20.958858
 30
0.0
 40
45.215689
 50
145.989024
 51
152.364916
  0
ARC
  8
XTRKCAD3
  6
DASHED
 10
146.385269
 20
-29.930408
 30
0.0
 40
136.208126
 50
143.873382
 51
145.992835
  0
LINE
  8
XTRKCAD17
  6
DASHED
 10
34.838687
 20
13.346127
 30
0.0
 11
25.054145
 21
22.29755
 31
0.0
  0
ARC
  8
XTRKCAD17
  6
DASHED
 10
61.607219
 20
63.108698
 30
0.0
 40
54.787563
 50
224.023465
 51
228.150343
  0
ARC
  8
XTRKCAD17
  6
DASHED
 10
40.460434
 20
42.340968
 30
0.0
 40
25.150379
 50
220.488671
 51
223.483254
  0
ARC
  8
XTRKCAD17
  6
DASHED
 10
35.621919
 20
38.346307
 30
0.0
 40
18.877082
 50
204.836315
 51
220.802999
  0
ARC
  8
XTRKCAD17
  6
DASHED
 10
35.358875
 20
37.953874
 30
0.0
 40
18.475168
 50
187.760527
 51
204.074469
  0
ARC
  8
XTRKCAD17
  6
DASHED
 10
49.323319
 20
39.681569
 30
0.0
 40
32.545473
 50
180.509786
 51
187.454572
  0
LINE
  8
XTRKCAD17
  6
DASHED
 10
16.779135
 20
39.392001
 30
0.0
 11
16.761654
 21
40.707728
 31
0.0
  0
LINE
  8
XTRKCAD3
  6
DASHED
 10
19.191225
 20
60.876374
 30
0.0
 11
19.14952
 21
74.267786
 31
0.0
  0
ARC
  8
XTRKCAD3
  6
DASHED
 10
309.531971
 20
2.225567
 30
0.0
 40
295.695487
 50
169.437465
 51
170.303146
  0
ARC
  8
XTRKCAD3
  6
DASHED
 10
-6.430763
 20
60.623037
 30
0.0
 40
25.62324
 50
350.579576
 51
360.566493
  0
LINE
  8
XTRKCAD3
  6
DASHED
 10
47.196416
 20
91.263871
 30
0.0
 11
47.546118
 21
90.716433
 31
0.0
  0
ARC
  8
XTRKCAD3
  6
DASHED
 10
33.498899
 20
81.743114
 30
0.0
 40
16.668677
 50
352.213771
 51
392.570311
  0
LINE
  8
XTRKCAD3
  6
DASHED
 10
50.013899
 20
79.484884
 30
0.0
 11
49.670813
 21
76.975816
 31
0.0
  0
ARC
  8
XTRKCAD3
  6
DASHED
 10
29.011284
 20
78.876197
 30
0.0
 40
21.993891
 50
356.673704
 51
392.570845
  0
LINE
  8
XTRKCAD3
  6
DASHED
 10
50.968122
 20
77.600063
 30
0.0
 11
50.930431
 21
76.951557
 31
0.0
  0
LINE
  8
XTRKCAD3
  6
DASHED
 10
12.286413
 20
29.41432
 30
0.0
 11
11.83938
 21
29.885639
 31
0.0
  0
ARC
  8
XTRKCAD3
  6
DASHED
 10
23.933382
 20
41.356467
 30
0.0
 40
16.668677
 50
183.128621
 51
223.485161
  0
LINE
  8
XTRKCAD3
  6
DASHED
 10
7.289549
 20
40.446731
 30
0.0
 11
7.151336
 21
42.975372
 31
0.0
  0
ARC
  8
XTRKCAD3
  6
DASHED
 10
27.796964
 20
45.021251
 30
0.0
 40
21.993891
 50
187.588554
 51
223.485695
  0
LINE
  8
XTRKCAD3
  6
DASHED
 10
5.995698
 20
42.116773
 30
0.0
 11
5.909912
 21
42.760684
 31
0.0
  0
LINE
  8
XTRKCAD3
  6
DASHED
 10
42.334707
 20
54.068881
 30
0.0
 11
41.959897
 21
53.538318
 31
0.0
  0
ARC
  8
XTRKCAD3
  6
DASHED
 10
55.574106
 20
43.920724
 30
0.0
 40
16.668677
 50
144.761167
 51
185.117707
  0
LINE
  8
XTRKCAD3
  6
DASHED
 10
38.971878
 20
42.433843
 30
0.0
 11
39.197775
 21
39.911522
 31
0.0
  0
ARC
  8
XTRKCAD3
  6
DASHED
 10
59.923378
 20
40.847983
 30
0.0
 40
21.993891
 50
144.760633
 51
180.657774
  0
LINE
  8
XTRKCAD3
  6
DASHED
 10
37.930937
 20
40.595492
 30
0.0
 11
37.938394
 21
39.945934
 31
0.0
  0
LINE
  8
XTRKCAD3
  6
DASHED
 10
203.858308
 20
48.589287
 30
0.0
 11
203.242906
 21
48.797279
 31
0.0
  0
ARC
  8
XTRKCAD3
  6
DASHED
 10
197.905848
 20
33.006123
 30
0.0
 40
16.668677
 50
71.325895
 51
111.682435
  0
LINE
  8
XTRKCAD3
  6
DASHED
 10
191.747407
 20
48.495423
 30
0.0
 11
189.39417
 21
47.559791
 31
0.0
  0
ARC
  8
XTRKCAD3
  6
DASHED
 10
196.200601
 20
27.96132
 30
0.0
 40
21.993891
 50
71.325361
 51
107.222502
  0
LINE
  8
XTRKCAD3
  6
DASHED
 10
189.68858
 20
48.969052
 30
0.0
 11
189.068106
 21
48.776717
 31
0.0
  0
LINE
  8
XTRKCAD3
  6
DASHED
 10
39.197775
 20
39.911522
 30
0.0
 11
39.255721
 21
39.264512
 31
0.0
  0
ARC
  8
XTRKCAD3
  6
DASHED
 10
55.857949
 20
40.751393
 30
0.0
 40
16.668677
 50
185.117707
 51
225.474247
  0
LINE
  8
XTRKCAD3
  6
DASHED
 10
44.169376
 20
28.867704
 30
0.0
 11
45.974825
 21
27.091898
 31
0.0
  0
ARC
  8
XTRKCAD3
  6
DASHED
 10
61.161952
 20
41.226209
 30
0.0
 40
21.993891
 50
185.117173
 51
221.014314
  0
LINE
  8
XTRKCAD3
  6
DASHED
 10
44.566558
 20
26.792772
 30
0.0
 11
44.992856
 21
26.302619
 31
0.0
  0
LINE
  8
XTRKCAD3
  6
DASHED
 10
54.274109
 20
19.948459
 30
0.0
 11
54.800035
 21
19.567169
 31
0.0
  0
ARC
  8
XTRKCAD3
  6
DASHED
 10
64.583895
 20
33.062386
 30
0.0
 40
16.668677
 50
234.058369
 51
274.414909
  0
LINE
  8
XTRKCAD3
  6
DASHED
 10
65.867024
 20
16.443169
 30
0.0
 11
68.391926
 21
16.638111
 31
0.0
  0
ARC
  8
XTRKCAD3
  6
DASHED
 10
67.709752
 20
37.373641
 30
0.0
 40
21.993891
 50
234.057835
 51
269.954976
  0
LINE
  8
XTRKCAD3
  6
DASHED
 10
67.692469
 20
15.379758
 30
0.0
 11
68.342069
 21
15.379247
 31
0.0
  0
ARC
  8
XTRKCAD17
  6
DASHED
 10
111.772284
 20
92.677346
 30
0.0
 40
92.901865
 50
224.907542
 51
228.288838
  0
ARC
  8
XTRKCAD17
  6
DASHED
 10
89.285767
 20
69.149542
 30
0.0
 40
60.386776
 50
229.362528
 51
234.564217
  0
ARC
  8
XTRKCAD17
  6
DASHED
 10
87.895657
 20
423.767184
 30
0.0
 40
417.077693
 50
268.236521
 51
269.361718
  0
ARC
  8
XTRKCAD17
  6
DASHED
 10
78.472621
 20
117.785706
 30
0.0
 40
110.951153
 50
264.01069
 51
268.237762
  0
ARC
  8
XTRKCAD17
  6
DASHED
 10
72.115373
 20
58.723839
 30
0.0
 40
51.548597
 50
255.087737
 51
264.188372
  0
ARC
  8
XTRKCAD17
  6
DASHED
 10
67.389489
 20
40.855229
 30
0.0
 40
33.065641
 50
240.845513
 51
255.033016
  0
ARC
  8
XTRKCAD17
  6
DASHED
 10
64.057643
 20
34.699059
 30
0.0
 40
26.06639
 50
222.652417
 51
240.649125
  0
ARC
  8
XTRKCAD17
  6
DASHED
 10
63.104765
 20
33.625451
 30
0.0
 40
24.638568
 50
203.278246
 51
222.317567
  0
ARC
  8
XTRKCAD17
  6
DASHED
 10
66.543542
 20
34.976343
 30
0.0
 40
28.331532
 50
190.623272
 51
203.039472
  0
ARC
  8
XTRKCAD17
  6
DASHED
 10
72.352234
 20
36.218964
 30
0.0
 40
34.270074
 50
187.451044
 51
190.874871
  0
ARC
  8
XTRKCAD17
  6
DASHED
 10
94.01651
 20
38.504609
 30
0.0
 40
56.050449
 50
180.619682
 51
186.895912
  0
LINE
  8
XTRKCAD17
  6
DASHED
 10
37.96934
 20
37.898407
 30
0.0
 11
37.938393
 21
39.945935
 31
0.0
  0
LINE
  8
XTRKCAD3
  6
DASHED
 10
7.379028
 20
49.944113
 30
0.0
 11
7.456747
 21
50.589047
 31
0.0
  0
LINE
  8
XTRKCAD3
  6
DASHED
 10
7.456747
 20
50.589047
 30
0.0
 11
8.732311
 21
61.174071
 31
0.0
  0
ARC
  8
XTRKCAD3
  6
DASHED
 10
34.473744
 20
47.333324
 30
0.0
 40
27.212458
 50
163.666281
 51
173.128621
  0
LINE
  8
XTRKCAD3
  6
DASHED
 10
8.359582
 20
54.986325
 30
0.0
 11
10.123818
 21
61.006386
 31
0.0
  0
LINE
  8
XTRKCAD3
  6
DASHED
 10
4.5
 20
56.625
 30
0.0
 11
4.495377
 21
57.274584
 31
0.0
  0
LINE
  8
XTRKCAD3
  6
DASHED
 10
4.495377
 20
57.274584
 30
0.0
 11
4.401339
 21
70.486854
 31
0.0
  0
ARC
  8
XTRKCAD3
  6
DASHED
 10
36.619259
 20
57.503223
 30
0.0
 40
32.124696
 50
173.282777
 51
180.407792
  0
LINE
  8
XTRKCAD3
  6
DASHED
 10
4.715082
 20
61.260825
 30
0.0
 11
5.802878
 21
70.496829
 31
0.0
  0
LINE
  8
XTRKCAD3
  6
DASHED
 10
4.5
 20
56.625
 30
0.0
 11
4.504623
 21
55.975416
 31
0.0
  0
LINE
  8
XTRKCAD3
  6
DASHED
 10
4.504623
 20
55.975416
 30
0.0
 11
4.598661
 21
42.763146
 31
0.0
  0
ARC
  8
XTRKCAD3
  6
DASHED
 10
36.628506
 20
56.204056
 30
0.0
 40
32.124696
 50
180.407792
 51
187.532807
  0
LINE
  8
XTRKCAD3
  6
DASHED
 10
4.781047
 20
51.992706
 30
0.0
 11
6.000199
 21
42.773121
 31
0.0
  0
LINE
  8
XTRKCAD3
  6
DASHED
 10
73.625
 20
3.28125
 30
0.0
 11
72.9754
 21
3.28125
 31
0.0
  0
LINE
  8
XTRKCAD3
  6
DASHED
 10
72.9754
 20
3.28125
 30
0.0
 11
59.762795
 21
3.28125
 31
0.0
  0
ARC
  8
XTRKCAD3
  6
DASHED
 10
72.9754
 20
35.405946
 30
0.0
 40
32.124696
 50
262.874985
 51
270.0
  0
LINE
  8
XTRKCAD3
  6
DASHED
 10
68.990823
 20
3.529321
 30
0.0
 11
59.762795
 21
4.682824
 31
0.0
  0
LINE
  8
XTRKCAD3
  6
DASHED
 10
83.377454
 20
3.28125
 30
0.0
 11
84.027054
 21
3.28125
 31
0.0
  0
LINE
  8
XTRKCAD3
  6
DASHED
 10
84.027054
 20
3.28125
 30
0.0
 11
97.239659
 21
3.28125
 31
0.0
  0
ARC
  8
XTRKCAD3
  6
DASHED
 10
84.027054
 20
35.405946
 30
0.0
 40
32.124696
 50
270.0
 51
277.125015
  0
LINE
  8
XTRKCAD3
  6
DASHED
 10
88.011631
 20
3.529321
 30
0.0
 11
97.239659
 21
4.682824
 31
0.0
  0
LINE
  8
XTRKCAD3
  6
DASHED
 10
116.45094
 20
6.591151
 30
0.0
 11
115.801349
 21
6.594482
 31
0.0
  0
LINE
  8
XTRKCAD3
  6
DASHED
 10
115.801349
 20
6.594482
 30
0.0
 11
102.588917
 21
6.662232
 31
0.0
  0
ARC
  8
XTRKCAD3
  6
DASHED
 10
115.636623
 20
-25.529792
 30
0.0
 40
32.124696
 50
89.706204
 51
96.831219
  0
LINE
  8
XTRKCAD3
  6
DASHED
 10
111.815552
 20
6.366846
 30
0.0
 11
102.58173
 21
5.260676
 31
0.0
  0
LINE
  8
XTRKCAD3
  6
DASHED
 10
137.063437
 20
12.24208
 30
0.0
 11
137.622422
 21
12.573012
 31
0.0
  0
LINE
  8
XTRKCAD3
  6
DASHED
 10
137.622422
 20
12.573012
 30
0.0
 11
146.796797
 21
18.004461
 31
0.0
  0
ARC
  8
XTRKCAD3
  6
DASHED
 10
151.485539
 20
-10.843475
 30
0.0
 40
27.212458
 50
111.164201
 51
120.626541
  0
LINE
  8
XTRKCAD3
  6
DASHED
 10
141.660699
 20
14.533491
 30
0.0
 11
147.510815
 21
16.798398
 31
0.0
  0
LINE
  8
XTRKCAD3
  6
DASHED
 10
161.705134
 20
29.167462
 30
0.0
 11
162.214306
 21
29.570852
 31
0.0
  0
LINE
  8
XTRKCAD3
  6
DASHED
 10
162.214306
 20
29.570852
 30
0.0
 11
172.570667
 21
37.775652
 31
0.0
  0
ARC
  8
XTRKCAD3
  6
DASHED
 10
182.163187
 20
4.390736
 30
0.0
 40
32.124696
 50
121.262918
 51
128.387933
  0
LINE
  8
XTRKCAD3
  6
DASHED
 10
165.491562
 20
31.850762
 30
0.0
 11
173.44102
 21
36.677064
 31
0.0
  0
LINE
  8
XTRKCAD3
  6
DASHED
 10
147.510815
 20
16.798398
 30
0.0
 11
148.116599
 21
17.032931
 31
0.0
  0
LINE
  8
XTRKCAD3
  6
DASHED
 10
148.116599
 20
17.032931
 30
0.0
 11
156.865682
 21
20.420189
 31
0.0
  0
ARC
  8
XTRKCAD3
  6
DASHED
 10
156.793404
 20
-5.378731
 30
0.0
 40
24.032676
 50
99.840861
 51
111.164201
  0
LINE
  8
XTRKCAD3
  6
DASHED
 10
152.685926
 20
18.300335
 30
0.0
 11
157.371709
 21
19.113152
 31
0.0
  0
ARC
  8
XTRKCAD17
  6
DASHED
 10
47.091717
 20
45.158476
 30
0.0
 40
40.0
 50
173.128621
 51
183.128621
  0
LINE
  8
XTRKCAD17
  6
DASHED
 10
10.123818
 20
61.006386
 30
0.0
 11
11.422941
 21
65.597022
 31
0.0
  0
ARC
  8
XTRKCAD17
  6
DASHED
 10
87.245161
 20
44.438888
 30
0.0
 40
78.718966
 50
160.937317
 51
164.408279
  0
ARC
  8
XTRKCAD17
  6
DASHED
 10
42.884497
 20
59.71453
 30
0.0
 40
31.801938
 50
152.253612
 51
160.846614
  0
ARC
  8
XTRKCAD17
  6
DASHED
 10
54.627262
 20
52.639402
 30
0.0
 40
45.495313
 50
145.246318
 51
151.252782
  0
ARC
  8
XTRKCAD17
  6
DASHED
 10
26.223113
 20
42.917057
 30
0.0
 40
21.625
 50
180.407792
 51
198.89103
  0
LINE
  8
XTRKCAD3
  6
DASHED
 10
9.010811
 20
26.424385
 30
0.0
 11
14.23538
 21
11.156869
 31
0.0
  0
LINE
  8
XTRKCAD3
  6
DASHED
 10
9.009351
 20
19.275412
 30
0.0
 11
11.884998
 21
10.872041
 31
0.0
  0
ARC
  8
XTRKCAD3
  6
DASHED
 10
113.245238
 20
38.432454
 30
0.0
 40
106.293548
 50
186.732842
 51
188.577141
  0
ARC
  8
XTRKCAD3
  6
DASHED
 10
28.509575
 20
26.169369
 30
0.0
 40
20.682973
 50
189.994558
 51
199.470141
  0
ARC
  8
XTRKCAD17
  6
DASHED
 10
211.497672
 20
-9.363197
 30
0.0
 40
61.06383
 50
111.221459
 51
116.113599
  0
ARC
  8
XTRKCAD17
  6
DASHED
 10
214.372975
 20
-13.50395
 30
0.0
 40
66.051843
 50
116.772205
 51
121.295209
  0
ARC
  8
XTRKCAD17
  6
DASHED
 10
223.554335
 20
-29.52418
 30
0.0
 40
84.511743
 50
120.972376
 51
124.059006
  0
ARC
  8
XTRKCAD17
  6
DASHED
 10
211.400294
 20
-10.658733
 30
0.0
 40
62.077609
 50
124.517148
 51
128.718993
  0
LINE
  8
XTRKCAD17
  6
DASHED
 10
44.992855
 20
26.302619
 30
0.0
 11
46.32841
 21
24.767014
 31
0.0
  0
ARC
  8
XTRKCAD17
  6
DASHED
 10
168.368728
 20
129.46449
 30
0.0
 40
160.796147
 50
220.626046
 51
222.397966
  0
ARC
  8
XTRKCAD17
  6
DASHED
 10
92.479704
 20
60.649801
 30
0.0
 40
58.354631
 50
222.743521
 51
224.370661
  0
ARC
  8
XTRKCAD17
  6
DASHED
 10
73.205348
 20
41.462356
 30
0.0
 40
31.159899
 50
223.934371
 51
233.079587
  0
ARC
  8
XTRKCAD17
  6
DASHED
 10
67.420069
 20
34.039102
 30
0.0
 40
21.750613
 50
233.516803
 51
237.879464
  0
ARC
  8
XTRKCAD17
  6
DASHED
 10
65.920799
 20
31.634117
 30
0.0
 40
18.916592
 50
237.852334
 51
257.930373
  0
ARC
  8
XTRKCAD17
  6
DASHED
 10
66.507248
 20
35.379369
 30
0.0
 40
22.702647
 50
258.459481
 51
266.815329
  0
ARC
  8
XTRKCAD17
  6
DASHED
 10
68.235644
 20
66.314432
 30
0.0
 40
53.685956
 50
266.807699
 51
270.348892
  0
LINE
  8
XTRKCAD3
  6
DASHED
 10
68.391926
 20
16.638111
 30
0.0
 11
69.039598
 21
16.688116
 31
0.0
  0
LINE
  8
XTRKCAD3
  6
DASHED
 10
69.039598
 20
16.688116
 30
0.0
 11
79.669567
 21
17.50883
 31
0.0
  0
ARC
  8
XTRKCAD3
  6
DASHED
 10
66.944825
 20
43.819828
 30
0.0
 40
27.212458
 50
274.414909
 51
283.877249
  0
LINE
  8
XTRKCAD3
  6
DASHED
 10
73.471531
 20
17.401653
 30
0.0
 11
79.561676
 21
18.906245
 31
0.0
  0
LINE
  8
XTRKCAD3
  6
DASHED
 10
79.669567
 20
17.50883
 30
0.0
 11
84.609503
 21
17.935148
 31
0.0
  0
ARC
  8
XTRKCAD3
  6
DASHED
 10
89.314002
 20
-41.457975
 30
0.0
 40
59.579153
 50
89.760981
 51
94.528914
  0
LINE
  8
XTRKCAD3
  6
DASHED
 10
61.963579
 20
22.853863
 30
0.0
 11
89.500139
 21
22.847458
 31
0.0
  0
LINE
  8
XTRKCAD3
  6
DASHED
 10
100.811343
 20
22.844827
 30
0.0
 11
100.161743
 21
22.844978
 31
0.0
  0
LINE
  8
XTRKCAD3
  6
DASHED
 10
100.161743
 20
22.844978
 30
0.0
 11
89.500139
 21
22.847458
 31
0.0
  0
ARC
  8
XTRKCAD3
  6
DASHED
 10
100.155414
 20
-4.367479
 30
0.0
 40
27.212458
 50
89.986674
 51
99.449014
  0
LINE
  8
XTRKCAD3
  6
DASHED
 10
95.687948
 20
22.475763
 30
0.0
 11
89.499813
 21
21.445884
 31
0.0
  0
LINE
  8
XTRKCAD3
  6
DASHED
 10
189.068107
 20
48.776717
 30
0.0
 11
181.426809
 21
46.408051
 31
0.0
  0
LINE
  8
XTRKCAD3
  6
DASHED
 10
181.426809
 20
46.408051
 30
0.0
 11
180.806336
 21
46.215715
 31
0.0
  0
LINE
  8
XTRKCAD3
  6
DASHED
 10
180.806336
 20
46.215715
 30
0.0
 11
170.622775
 21
43.058994
 31
0.0
  0
ARC
  8
XTRKCAD3
  6
DASHED
 10
188.863487
 20
20.223405
 30
0.0
 40
27.212458
 50
107.222502
 51
116.684842
  0
LINE
  8
XTRKCAD3
  6
DASHED
 10
176.642845
 20
44.537471
 30
0.0
 11
171.037758
 21
41.720263
 31
0.0
  0
ARC
  8
XTRKCAD3
  6
DASHED
 10
182.994583
 20
17.931086
 30
0.0
 40
26.625
 50
116.684842
 51
128.684842
  0
LINE
  8
XTRKCAD3
  6
DASHED
 10
151.890399
 20
34.486165
 30
0.0
 11
151.328416
 21
34.16035
 31
0.0
  0
LINE
  8
XTRKCAD3
  6
DASHED
 10
151.328416
 20
34.16035
 30
0.0
 11
142.104835
 21
28.812888
 31
0.0
  0
ARC
  8
XTRKCAD3
  6
DASHED
 10
164.977168
 20
10.618272
 30
0.0
 40
27.212458
 50
120.103437
 51
129.565777
  0
LINE
  8
XTRKCAD3
  6
DASHED
 10
147.643822
 20
31.596188
 30
0.0
 11
142.807812
 21
27.600356
 31
0.0
  0
ARC
  8
XTRKCAD3
  6
DASHED
 10
121.486203
 20
62.279677
 30
0.0
 40
44.18785
 50
269.207561
 51
275.197522
  0
ARC
  8
XTRKCAD3
  6
DASHED
 10
123.240753
 20
40.14475
 30
0.0
 40
21.986503
 50
275.869499
 51
279.877621
  0
ARC
  8
XTRKCAD3
  6
DASHED
 10
123.274584
 20
39.463448
 30
0.0
 40
21.309661
 50
280.102249
 51
296.658698
  0
ARC
  8
XTRKCAD3
  6
DASHED
 10
119.235474
 20
47.148857
 30
0.0
 40
29.990755
 50
296.967204
 51
305.789513
  0
ARC
  8
XTRKCAD3
  6
DASHED
 10
108.762133
 20
62.220949
 30
0.0
 40
48.342753
 50
305.411872
 51
307.237467
  0
ARC
  8
XTRKCAD3
  6
DASHED
 10
47.080643
 20
141.343427
 30
0.0
 40
148.664647
 50
307.710814
 51
310.08426
  0
ARC
  8
XTRKCAD3
  6
DASHED
 10
240.325555
 20
-115.120343
 30
0.0
 40
173.789769
 50
118.032986
 51
120.588114
  0
ARC
  8
XTRKCAD3
  6
DASHED
 10
190.580715
 20
-22.799065
 30
0.0
 40
68.922773
 50
115.454341
 51
117.601122
  0
ARC
  8
XTRKCAD3
  6
DASHED
 10
187.841291
 20
-18.271149
 30
0.0
 40
63.659194
 50
108.006795
 51
114.979616
  0
ARC
  8
XTRKCAD3
  6
DASHED
 10
206.874896
 20
-74.223549
 30
0.0
 40
122.75753
 50
107.176418
 51
108.382422
  0
LINE
  8
XTRKCAD3
  6
DASHED
 10
166.329478
 20
38.694912
 30
0.0
 11
165.822403
 21
38.288889
 31
0.0
  0
LINE
  8
XTRKCAD3
  6
DASHED
 10
165.822403
 20
38.288889
 30
0.0
 11
157.5
 21
31.625
 31
0.0
  0
ARC
  8
XTRKCAD3
  6
DASHED
 10
148.813633
 20
59.530819
 30
0.0
 40
27.212458
 50
299.222502
 51
308.684842
  0
LINE
  8
XTRKCAD3
  6
DASHED
 10
162.098821
 20
35.781679
 30
0.0
 11
156.623965
 21
32.719063
 31
0.0
  0
LINE
  8
XTRKCAD3
  6
DASHED
 10
157.5
 20
31.625
 30
0.0
 11
151.564776
 21
26.872567
 31
0.0
  0
ARC
  8
XTRKCAD3
  6
DASHED
 10
120.789719
 20
89.102091
 30
0.0
 40
73.766041
 50
269.532444
 51
272.54233
  0
ARC
  8
XTRKCAD3
  6
DASHED
 10
122.295282
 20
50.052338
 30
0.0
 40
34.688691
 50
272.919034
 51
275.051817
  0
ARC
  8
XTRKCAD3
  6
DASHED
 10
123.025886
 20
42.701928
 30
0.0
 40
27.302618
 50
274.882856
 51
285.724611
  0
ARC
  8
XTRKCAD3
  6
DASHED
 10
123.028425
 20
42.035595
 30
0.0
 40
26.661129
 50
286.107446
 51
297.210162
  0
ARC
  8
XTRKCAD3
  6
DASHED
 10
117.80002
 20
51.884665
 30
0.0
 40
37.811255
 50
297.431795
 51
305.260517
  0
ARC
  8
XTRKCAD3
  6
DASHED
 10
80.663966
 20
104.361551
 30
0.0
 40
102.098967
 50
305.276377
 51
308.175384
  0
ARC
  8
XTRKCAD3
  6
DASHED
 10
250.133495
 20
-111.188201
 30
0.0
 40
172.093698
 50
126.454726
 51
128.174992
  0
ARC
  8
XTRKCAD3
  6
DASHED
 10
193.05653
 20
-35.491131
 30
0.0
 40
77.299713
 50
120.022223
 51
125.765174
  0
ARC
  8
XTRKCAD3
  6
DASHED
 10
221.982711
 20
-84.279191
 30
0.0
 40
134.016256
 50
119.18904
 51
120.29361
  0
ARC
  8
XTRKCAD3
  6
DASHED
 10
120.163563
 20
89.752041
 30
0.0
 40
77.164576
 50
269.600013
 51
272.946799
  0
ARC
  8
XTRKCAD3
  6
DASHED
 10
122.407109
 20
46.23466
 30
0.0
 40
33.589401
 50
272.940985
 51
280.61562
  0
ARC
  8
XTRKCAD3
  6
DASHED
 10
122.719404
 20
42.736629
 30
0.0
 40
30.095599
 50
281.258077
 51
298.405069
  0
ARC
  8
XTRKCAD3
  6
DASHED
 10
114.033327
 20
58.374877
 30
0.0
 40
47.98351
 50
298.645298
 51
306.710844
  0
ARC
  8
XTRKCAD3
  6
DASHED
 10
87.529187
 20
95.116761
 30
0.0
 40
93.284412
 50
306.271024
 51
307.654872
  0
ARC
  8
XTRKCAD3
  6
DASHED
 10
-148.603006
 20
396.770087
 30
0.0
 40
476.366322
 50
307.97552
 51
309.058951
  0
LINE
  8
XTRKCAD3
  6
DASHED
 10
222.706694
 20
28.530352
 30
0.0
 11
222.823738
 21
27.891383
 31
0.0
  0
LINE
  8
XTRKCAD3
  6
DASHED
 10
222.823738
 20
27.891383
 30
0.0
 11
224.28361
 21
19.921618
 31
0.0
  0
ARC
  8
XTRKCAD3
  6
DASHED
 10
202.87991
 20
24.238147
 30
0.0
 40
20.27566
 50
356.344015
 51
370.380152
  0
LINE
  8
XTRKCAD3
  6
DASHED
 10
223.114308
 20
22.945256
 30
0.0
 11
222.904974
 21
19.669085
 31
0.0
  0
LINE
  8
XTRKCAD3
  6
DASHED
 10
224.9375
 20
0.747886
 30
0.0
 11
224.9375
 21
12.625
 31
0.0
  0
ARC
  8
XTRKCAD3
  6
DASHED
 10
179.409809
 20
-26.57199
 30
0.0
 40
79.037628
 50
67.967153
 51
71.981303
  0
ARC
  8
XTRKCAD3
  6
DASHED
 10
195.92375
 20
15.165044
 30
0.0
 40
34.155472
 50
64.287345
 51
67.381294
  0
ARC
  8
XTRKCAD3
  6
DASHED
 10
200.605638
 20
24.577284
 30
0.0
 40
23.644329
 50
51.194877
 51
64.613795
  0
ARC
  8
XTRKCAD3
  6
DASHED
 10
203.564484
 20
28.454244
 30
0.0
 40
18.769262
 50
45.189
 51
50.816919
  0
ARC
  8
XTRKCAD3
  6
DASHED
 10
203.629575
 20
28.650417
 30
0.0
 40
18.584444
 50
22.151019
 51
44.905121
  0
ARC
  8
XTRKCAD3
  6
DASHED
 10
197.793317
 20
26.39443
 30
0.0
 40
24.840812
 50
13.392349
 51
21.894818
  0
ARC
  8
XTRKCAD3
  6
DASHED
 10
162.010089
 20
17.865584
 30
0.0
 40
61.626416
 50
9.965499
 51
13.400604
  0
ARC
  8
XTRKCAD3
  6
DASHED
 10
185.477011
 20
12.36138
 30
0.0
 40
39.536177
 50
5.705556
 51
11.024183
  0
ARC
  8
XTRKCAD3
  6
DASHED
 10
183.379469
 20
13.098442
 30
0.0
 40
41.560727
 50
359.347297
 51
364.406881
  0
LINE
  8
XTRKCAD3
  6
DASHED
 10
222.4375
 20
0.747886
 30
0.0
 11
222.4375
 21
12.625
 31
0.0
  0
ARC
  8
XTRKCAD3
  6
DASHED
 10
114.568961
 20
27.258978
 30
0.0
 40
108.601557
 50
354.129383
 51
355.992473
  0
ARC
  8
XTRKCAD3
  6
DASHED
 10
259.097688
 20
12.692368
 30
0.0
 40
36.66025
 50
174.586583
 51
180.105288
  0
ARC
  8
XTRKCAD3
  6
DASHED
 10
53.531398
 20
120.871064
 30
0.0
 40
105.234973
 50
284.320983
 51
287.115435
  0
ARC
  8
XTRKCAD3
  6
DASHED
 10
96.107105
 20
-18.728421
 30
0.0
 40
40.714016
 50
99.339577
 51
106.561479
  0
ARC
  8
XTRKCAD3
  6
DASHED
 10
93.568694
 20
110.922416
 30
0.0
 40
95.38203
 50
297.371493
 51
300.587953
  0
ARC
  8
XTRKCAD3
  6
DASHED
 10
122.026093
 20
55.941902
 30
0.0
 40
33.473385
 50
288.242399
 51
297.382279
  0
ARC
  8
XTRKCAD3
  6
DASHED
 10
124.429795
 20
49.472733
 30
0.0
 40
26.578152
 50
276.1591
 51
287.686641
  0
ARC
  8
XTRKCAD3
  6
DASHED
 10
123.223389
 20
63.522317
 30
0.0
 40
40.677239
 50
270.076976
 51
275.725358
  0
LINE
  8
XTRKCAD3
  6
DASHED
 10
123.278038
 20
22.845114
 30
0.0
 11
121.940762
 21
22.839913
 31
0.0
  0
ARC
  8
XTRKCAD3
  6
DASHED
 10
120.307606
 20
63.343555
 30
0.0
 40
52.510101
 50
300.295444
 51
307.908839
  0
ARC
  8
XTRKCAD3
  6
DASHED
 10
-219.324502
 20
488.199452
 30
0.0
 40
596.429462
 50
308.574745
 51
309.077561
  0
LINE
  8
XTRKCAD3
  6
DASHED
 10
156.647831
 20
25.195232
 30
0.0
 11
158.014731
 21
26.279414
 31
0.0
  0
LINE
  8
XTRKCAD17
  6
DASHED
 10
156.865683
 20
20.420189
 30
0.0
 11
160.595881
 21
21.864357
 31
0.0
  0
LINE
  8
XTRKCAD3
  6
DASHED
 10
160.645133
 20
21.878209
 30
0.0
 11
161.250917
 21
22.112742
 31
0.0
  0
LINE
  8
XTRKCAD3
  6
DASHED
 10
161.250917
 20
22.112742
 30
0.0
 11
170.0
 21
25.5
 31
0.0
  0
ARC
  8
XTRKCAD3
  6
DASHED
 10
169.927722
 20
-0.29892
 30
0.0
 40
24.032676
 50
99.840861
 51
111.164201
  0
LINE
  8
XTRKCAD3
  6
DASHED
 10
165.820244
 20
23.380146
 30
0.0
 11
170.506027
 21
24.192963
 31
0.0
  0
ARC
  8
XTRKCAD17
  6
DASHED
 10
177.767406
 20
-15.702751
 30
0.0
 40
40.551148
 50
91.216081
 51
100.31543
  0
ARC
  8
XTRKCAD17
  6
DASHED
 10
177.989973
 20
-172.477894
 30
0.0
 40
197.320131
 50
88.911646
 51
90.314526
  0
LINE
  8
XTRKCAD17
  6
DASHED
 10
181.737913
 20
24.806639
 30
0.0
 11
183.348358
 21
24.795982
 31
0.0
  0
LINE
  8
XTRKCAD3
  6
DASHED
 10
179.994178
 20
29.369304
 30
0.0
 11
197.887949
 21
36.296981
 31
0.0
  0
LINE
  8
XTRKCAD3
  6
DASHED
 10
5.796875
 20
102.875
 30
0.0
 11
5.796875
 21
87.5
 31
0.0
  0
LINE
  8
XTRKCAD3
  6
DASHED
 10
5.762921
 20
35.915546
 30
0.0
 11
5.973242
 21
35.300936
 31
0.0
  0
LINE
  8
XTRKCAD3
  6
DASHED
 10
5.973242
 20
35.300936
 30
0.0
 11
9.010811
 21
26.424386
 31
0.0
  0
ARC
  8
XTRKCAD3
  6
DASHED
 10
-16.76494
 20
27.519893
 30
0.0
 40
24.032676
 50
7.56769
 51
18.89103
  0
LINE
  8
XTRKCAD3
  6
DASHED
 10
7.058411
 20
30.684934
 30
0.0
 11
7.684732
 21
25.970599
 31
0.0
  0
LINE
  8
XTRKCAD3
  6
DASHED
 10
15.175043
 20
79.97166
 30
0.0
 11
23.413833
 21
92.190082
 31
0.0
  0
ARC
  8
XTRKCAD17
  6
DASHED
 10
115.550649
 20
49.135882
 30
0.0
 40
107.494536
 50
170.88255
 51
173.570023
  0
ARC
  8
XTRKCAD17
  6
DASHED
 10
44.735107
 20
60.505593
 30
0.0
 40
35.772077
 50
162.831952
 51
170.890105
  0
ARC
  8
XTRKCAD17
  6
DASHED
 10
36.627197
 20
62.771109
 30
0.0
 40
27.357661
 50
151.804752
 51
162.353011
  0
ARC
  8
XTRKCAD17
  6
DASHED
 10
48.542754
 20
56.035922
 30
0.0
 40
41.042717
 50
146.104509
 51
151.37733
  0
LINE
  8
XTRKCAD17
  6
DASHED
 10
14.474993
 20
78.924616
 30
0.0
 11
15.175043
 21
79.97166
 31
0.0
  0
ARC
  8
XTRKCAD17
  6
DASHED
 10
113.938543
 20
250.693717
 30
0.0
 40
248.119642
 50
277.47528
 51
279.495884
  0
LINE
  8
XTRKCAD17
  6
DASHED
 10
154.872517
 20
5.973947
 30
0.0
 11
157.753223
 21
6.432998
 31
0.0
  0
ARC
  8
XTRKCAD17
  6
DASHED
 10
169.024303
 20
-67.95213
 30
0.0
 40
75.234197
 50
89.73292
 51
98.616105
  0
LINE
  8
XTRKCAD3
  6
DASHED
 10
16.761654
 20
40.707728
 30
0.0
 11
16.755796
 21
41.357302
 31
0.0
  0
LINE
  8
XTRKCAD3
  6
DASHED
 10
16.755796
 20
41.357302
 30
0.0
 11
16.659652
 21
52.018472
 31
0.0
  0
ARC
  8
XTRKCAD3
  6
DASHED
 10
43.967148
 20
41.602699
 30
0.0
 40
27.212458
 50
171.05435
 51
180.51669
  0
LINE
  8
XTRKCAD3
  6
DASHED
 10
17.085694
 20
45.834168
 30
0.0
 11
18.061169
 21
52.031111
 31
0.0
  0
ARC
  8
XTRKCAD17
  6
DASHED
 10
6.703443
 20
66.063701
 30
0.0
 40
47.694124
 50
31.895425
 51
36.886546
  0
ARC
  8
XTRKCAD17
  6
DASHED
 10
26.750606
 20
80.807134
 30
0.0
 40
22.811674
 50
37.491326
 51
40.966606
  0
ARC
  8
XTRKCAD17
  6
DASHED
 10
29.753641
 20
83.492858
 30
0.0
 40
18.783387
 50
40.786265
 51
57.679943
  0
ARC
  8
XTRKCAD17
  6
DASHED
 10
29.996991
 20
83.592203
 30
0.0
 40
18.569954
 50
58.150579
 51
75.239164
  0
ARC
  8
XTRKCAD17
  6
DASHED
 10
29.329316
 20
81.103769
 30
0.0
 40
21.14638
 50
75.207667
 51
90.214907
  0
ARC
  8
XTRKCAD17
  6
DASHED
 10
29.254263
 20
80.173641
 30
0.0
 40
22.076359
 50
90.011064
 51
107.220177
  0
ARC
  8
XTRKCAD17
  6
DASHED
 10
28.250583
 20
83.400847
 30
0.0
 40
18.696682
 50
107.210086
 51
127.526396
  0
ARC
  8
XTRKCAD17
  6
DASHED
 10
29.038169
 20
82.615982
 30
0.0
 40
19.799419
 50
127.950431
 51
145.079131
  0
ARC
  8
XTRKCAD17
  6
DASHED
 10
33.891793
 20
79.332171
 30
0.0
 40
25.659059
 50
145.270925
 51
155.18185
  0
ARC
  8
XTRKCAD17
  6
DASHED
 10
44.053379
 20
74.388583
 30
0.0
 40
36.957854
 50
154.837991
 51
157.133266
  0
ARC
  8
XTRKCAD17
  6
DASHED
 10
55.833112
 20
69.579464
 30
0.0
 40
49.680818
 50
157.301989
 51
168.143116
  0
ARC
  8
XTRKCAD17
  6
DASHED
 10
88.591149
 20
63.038852
 30
0.0
 40
83.084464
 50
168.370453
 51
173.231929
  0
LINE
  8
XTRKCAD17
  6
DASHED
 10
6.085673
 20
72.830406
 30
0.0
 11
5.802878
 21
70.496829
 31
0.0
  0
LINE
  8
XTRKCAD3
  6
DASHED
 10
42.334707
 20
54.068881
 30
0.0
 11
45.796623
 21
58.969405
 31
0.0
  0
ARC
  8
XTRKCAD3
  6
DASHED
 10
-132.651785
 20
86.425921
 30
0.0
 40
183.826531
 50
355.559608
 51
357.045684
  0
ARC
  8
XTRKCAD3
  6
DASHED
 10
17.57262
 20
74.599317
 30
0.0
 40
33.137788
 50
347.593415
 51
355.837024
  0
ARC
  8
XTRKCAD3
  6
DASHED
 10
30.469312
 20
71.943699
 30
0.0
 40
19.972497
 50
333.408139
 51
347.085012
  0
ARC
  8
XTRKCAD3
  6
DASHED
 10
24.483754
 20
75.35613
 30
0.0
 40
26.854981
 50
324.987016
 51
332.614167
  0
LINE
  8
XTRKCAD3
  6
DASHED
 10
46.478576
 20
59.947761
 30
0.0
 11
45.796623
 21
58.969405
 31
0.0
  0
ARC
  8
XTRKCAD17
  6
DASHED
 10
51.276494
 20
71.281561
 30
0.0
 40
46.881891
 50
175.747878
 51
180.971282
  0
ARC
  8
XTRKCAD17
  6
DASHED
 10
63.223647
 20
69.202515
 30
0.0
 40
58.96227
 50
170.440508
 51
174.593866
  0
ARC
  8
XTRKCAD17
  6
DASHED
 10
-57.269708
 20
89.501997
 30
0.0
 40
63.229046
 50
350.434099
 51
354.307187
  0
ARC
  8
XTRKCAD17
  6
DASHED
 10
-42.254673
 20
87.043418
 30
0.0
 40
48.053718
 50
355.448365
 51
360.544403
  0
LINE
  8
XTRKCAD17
  6
DASHED
 10
12.286413
 20
29.41432
 30
0.0
 11
28.117308
 21
12.723382
 31
0.0
  0
LINE
  8
XTRKCAD17
  6
DASHED
 10
59.762795
 20
3.28125
 30
0.0
 11
51.142554
 21
3.258036
 31
0.0
  0
ARC
  8
XTRKCAD17
  6
DASHED
 10
51.277114
 20
72.050242
 30
0.0
 40
68.792337
 50
266.295586
 51
269.887928
  0
ARC
  8
XTRKCAD17
  6
DASHED
 10
49.090453
 20
38.322181
 30
0.0
 40
34.993468
 50
259.248233
 51
266.300416
  0
ARC
  8
XTRKCAD17
  6
DASHED
 10
46.848433
 20
26.753025
 30
0.0
 40
23.209197
 50
238.081399
 51
259.357803
  0
ARC
  8
XTRKCAD17
  6
DASHED
 10
48.176415
 20
28.275764
 30
0.0
 40
25.205878
 50
227.551947
 51
237.349216
  0
ARC
  8
XTRKCAD17
  6
DASHED
 10
69.876711
 20
51.440408
 30
0.0
 40
56.946078
 50
222.834988
 51
227.171515
  0
LINE
  8
XTRKCAD3
  6
DASHED
 10
132.356313
 20
3.28125
 30
0.0
 11
133.005913
 21
3.28125
 31
0.0
  0
LINE
  8
XTRKCAD3
  6
DASHED
 10
133.005913
 20
3.28125
 30
0.0
 11
146.218518
 21
3.28125
 31
0.0
  0
ARC
  8
XTRKCAD3
  6
DASHED
 10
133.005913
 20
35.405946
 30
0.0
 40
32.124696
 50
270.0
 51
277.125015
  0
LINE
  8
XTRKCAD3
  6
DASHED
 10
136.99049
 20
3.529321
 30
0.0
 11
146.218518
 21
4.682824
 31
0.0
  0
LINE
  8
XTRKCAD3
  6
DASHED
 10
146.218518
 20
3.28125
 30
0.0
 11
175.866313
 21
3.331713
 31
0.0
  0
LINE
  8
XTRKCAD3
  6
DASHED
 10
175.866313
 20
3.331713
 30
0.0
 11
185.748849
 21
3.310364
 31
0.0
  0
LINE
  8
XTRKCAD3
  6
DASHED
 10
176.125
 20
21.358482
 30
0.0
 11
188.676923
 21
21.358482
 31
0.0
  0
LINE
  8
XTRKCAD17
  6
DASHED
 10
157.37171
 20
19.113151
 30
0.0
 11
164.357718
 21
20.365269
 31
0.0
  0
ARC
  8
XTRKCAD17
  6
DASHED
 10
183.998849
 20
-94.517203
 30
0.0
 40
116.549373
 50
98.539007
 51
99.701895
  0
ARC
  8
XTRKCAD17
  6
DASHED
 10
175.077321
 20
-37.343677
 30
0.0
 40
58.685869
 50
91.286916
 51
98.213547
  0
ARC
  8
XTRKCAD17
  6
DASHED
 10
176.078992
 20
-65.156536
 30
0.0
 40
86.515031
 50
89.96953
 51
91.536437
  0
LINE
  8
XTRKCAD17
  6
DASHED
 10
170.0
 20
25.5
 30
0.0
 11
179.994178
 21
29.369304
 31
0.0
  0
ENDSEC
  0
EOF
