  0
SECTION
  2
HEADER
  9
$ACADVER
  1
AC1009
  9
$MEASUREMENT
  70
0
  9
$INSUNITS
  70
1
  9
$DIMTXT
  40
1.0
  9
$DIMASZ
  40
0.8
  9
$EXTMIN
  10
0.000000
  20
0.000000
  9
$EXTMAX
  10
240.000000
  20
151.000000
  9
$TEXTSTYLE
  7
STANDARD
  0
ENDSEC
  0
SECTION
  2
TABLES
  0
TABLE
  2
LTYPE
  0
LTYPE
  2
CONTINUOUS
  70
0
  3
Solid line
  72
65
  73
0
  40
0
  0
LTYPE
  2
DASHED
  70
0
  3
__ __ __ __ __ __ __ __ __ __ __ __ __ __ __
  72
65
  73
2
  40
0.15
  49
0.1
  49
-0.05
  0
LTYPE
  2
DOT
  70
0
  3
...............................................
  72
65
  73
2
  40
0.1
  49
0
  49
-0.05
  0
ENDTAB
  0
TABLE
  2
LAYER
  70
0
  0
LAYER
  2
XTRKCAD1
  6
CONTINUOUS
  62
7
  70
0
  0
LAYER
  2
XTRKCAD2
  6
CONTINUOUS
  62
7
  70
0
  0
LAYER
  2
XTRKCAD3
  6
CONTINUOUS
  62
7
  70
0
  0
LAYER
  2
XTRKCAD4
  6
CONTINUOUS
  62
7
  70
0
  0
LAYER
  2
XTRKCAD5
  6
CONTINUOUS
  62
7
  70
0
  0
LAYER
  2
XTRKCAD6
  6
CONTINUOUS
  62
7
  70
0
  0
LAYER
  2
XTRKCAD7
  6
CONTINUOUS
  62
7
  70
0
  0
LAYER
  2
XTRKCAD8
  6
CONTINUOUS
  62
7
  70
0
  0
LAYER
  2
XTRKCAD9
  6
CONTINUOUS
  62
7
  70
0
  0
LAYER
  2
XTRKCAD10
  6
CONTINUOUS
  62
7
  70
0
  0
ENDTAB
  0
ENDSEC
  0
SECTION
  2
ENTITIES
  0
LINE
  8
XTRKCAD3
  10
4.500000
  20
56.625000
  11
4.504623
  21
55.975416
  6
DASHED
  0
LINE
  8
XTRKCAD3
  10
4.824792
  20
56.627312
  11
4.829415
  21
55.977728
  6
CONTINUOUS
  0
LINE
  8
XTRKCAD3
  10
4.175208
  20
56.622688
  11
4.179832
  21
55.973105
  6
CONTINUOUS
  0
LINE
  8
XTRKCAD3
  10
4.504623
  20
55.975416
  11
4.598661
  21
42.763146
  6
DASHED
  0
LINE
  8
XTRKCAD3
  10
4.829415
  20
55.977728
  11
4.923453
  21
42.765458
  6
CONTINUOUS
  0
LINE
  8
XTRKCAD3
  10
4.179832
  20
55.973105
  11
4.273869
  21
42.760834
  6
CONTINUOUS
  0
ARC
  10
36.628506
  20
56.204056
  40
32.124696
  50
180.407792
  51
187.532807
  8
XTRKCAD3
  6
DASHED
  0
ARC
  10
36.628506
  20
56.204056
  40
32.449496
  50
180.407792
  51
187.532807
  8
XTRKCAD3
  6
CONTINUOUS
  0
ARC
  10
36.628506
  20
56.204056
  40
31.799896
  50
180.407792
  51
187.532807
  8
XTRKCAD3
  6
CONTINUOUS
  0
LINE
  8
XTRKCAD3
  10
4.781047
  20
51.992706
  11
6.000199
  21
42.773121
  6
DASHED
  0
LINE
  8
XTRKCAD3
  10
5.103044
  20
52.035285
  11
6.322196
  21
42.815701
  6
CONTINUOUS
  0
LINE
  8
XTRKCAD3
  10
4.459050
  20
51.950127
  11
5.678202
  21
42.730542
  6
CONTINUOUS
  0
LINE
  8
XTRKCAD3
  10
5.762921
  20
35.915546
  11
5.973242
  21
35.300936
  6
DASHED
  0
LINE
  8
XTRKCAD3
  10
6.070226
  20
36.020706
  11
6.280547
  21
35.406096
  6
CONTINUOUS
  0
LINE
  8
XTRKCAD3
  10
5.455616
  20
35.810386
  11
5.665937
  21
35.195776
  6
CONTINUOUS
  0
LINE
  8
XTRKCAD3
  10
5.973242
  20
35.300936
  11
9.010811
  21
26.424386
  6
DASHED
  0
LINE
  8
XTRKCAD3
  10
6.280547
  20
35.406096
  11
9.318116
  21
26.529546
  6
CONTINUOUS
  0
LINE
  8
XTRKCAD3
  10
5.665937
  20
35.195776
  11
8.703506
  21
26.319226
  6
CONTINUOUS
  0
ARC
  10
-16.764940
  20
27.519893
  40
24.032676
  50
7.567690
  51
18.891030
  8
XTRKCAD3
  6
DASHED
  0
ARC
  10
-16.764940
  20
27.519893
  40
24.357476
  50
7.567690
  51
18.891030
  8
XTRKCAD3
  6
CONTINUOUS
  0
ARC
  10
-16.764940
  20
27.519893
  40
23.707876
  50
7.567690
  51
18.891030
  8
XTRKCAD3
  6
CONTINUOUS
  0
LINE
  8
XTRKCAD3
  10
7.058411
  20
30.684934
  11
7.684732
  21
25.970599
  6
DASHED
  0
LINE
  8
XTRKCAD3
  10
7.380382
  20
30.727710
  11
8.006703
  21
26.013375
  6
CONTINUOUS
  0
LINE
  8
XTRKCAD3
  10
6.736440
  20
30.642159
  11
7.362761
  21
25.927824
  6
CONTINUOUS
  0
ARC
  10
26.223113
  20
42.917057
  40
21.625000
  50
180.407792
  51
198.891030
  8
XTRKCAD3
  6
DASHED
  0
ARC
  10
26.223113
  20
42.917057
  40
21.949800
  50
180.407792
  51
198.891030
  8
XTRKCAD3
  6
CONTINUOUS
  0
ARC
  10
26.223113
  20
42.917057
  40
21.300200
  50
180.407792
  51
198.891030
  8
XTRKCAD3
  6
CONTINUOUS
  0
LINE
  8
XTRKCAD3
  10
9.010811
  20
26.424385
  11
13.415919
  21
13.551544
  6
DASHED
  0
LINE
  8
XTRKCAD3
  10
9.318116
  20
26.529545
  11
13.723224
  21
13.656704
  6
CONTINUOUS
  0
LINE
  8
XTRKCAD3
  10
8.703506
  20
26.319225
  11
13.108614
  21
13.446384
  6
CONTINUOUS
  0
LINE
  8
XTRKCAD3
  10
9.009351
  20
19.275412
  11
11.195953
  21
12.885605
  6
DASHED
  0
LINE
  8
XTRKCAD3
  10
9.316656
  20
19.380572
  11
11.503258
  21
12.990765
  6
CONTINUOUS
  0
LINE
  8
XTRKCAD3
  10
8.702046
  20
19.170252
  11
10.888648
  21
12.780445
  6
CONTINUOUS
  0
ARC
  10
113.245238
  20
38.432454
  40
106.293548
  50
186.732842
  51
188.577141
  8
XTRKCAD3
  6
DASHED
  0
ARC
  10
113.245238
  20
38.432454
  40
106.618348
  50
186.732842
  51
188.577141
  8
XTRKCAD3
  6
CONTINUOUS
  0
ARC
  10
113.245238
  20
38.432454
  40
105.968748
  50
186.732842
  51
188.577141
  8
XTRKCAD3
  6
CONTINUOUS
  0
ARC
  10
28.509575
  20
26.169369
  40
20.682973
  50
189.994558
  51
199.470141
  8
XTRKCAD3
  6
DASHED
  0
ARC
  10
28.509575
  20
26.169369
  40
21.007773
  50
189.994558
  51
199.470141
  8
XTRKCAD3
  6
CONTINUOUS
  0
ARC
  10
28.509575
  20
26.169369
  40
20.358173
  50
189.994558
  51
199.470141
  8
XTRKCAD3
  6
CONTINUOUS
  0
ENDSEC
  0
EOF
