  0
SECTION
  2
HEADER
  9
$ACADVER
  1
AC1009
  9
$MEASUREMENT
  70
0
  9
$INSUNITS
  70
1
  9
$DIMTXT
  40
1.0
  9
$DIMASZ
  40
0.8
  9
$EXTMIN
  10
0.000000
  20
0.000000
  9
$EXTMAX
  10
240.000000
  20
151.000000
  9
$TEXTSTYLE
  7
STANDARD
  0
ENDSEC
  0
SECTION
  2
TABLES
  0
TABLE
  2
LTYPE
  0
LTYPE
  2
CONTINUOUS
  70
0
  3
Solid line
  72
65
  73
0
  40
0
  0
LTYPE
  2
DASHED
  70
0
  3
__ __ __ __ __ __ __ __ __ __ __ __ __ __ __
  72
65
  73
2
  40
0.15
  49
0.1
  49
-0.05
  0
LTYPE
  2
DOT
  70
0
  3
...............................................
  72
65
  73
2
  40
0.1
  49
0
  49
-0.05
  0
ENDTAB
  0
TABLE
  2
LAYER
  70
0
  0
LAYER
  2
XTRKCAD1
  6
CONTINUOUS
  62
7
  70
0
  0
LAYER
  2
XTRKCAD2
  6
CONTINUOUS
  62
7
  70
0
  0
LAYER
  2
XTRKCAD3
  6
CONTINUOUS
  62
7
  70
0
  0
LAYER
  2
XTRKCAD4
  6
CONTINUOUS
  62
7
  70
0
  0
LAYER
  2
XTRKCAD5
  6
CONTINUOUS
  62
7
  70
0
  0
LAYER
  2
XTRKCAD6
  6
CONTINUOUS
  62
7
  70
0
  0
LAYER
  2
XTRKCAD7
  6
CONTINUOUS
  62
7
  70
0
  0
LAYER
  2
XTRKCAD8
  6
CONTINUOUS
  62
7
  70
0
  0
LAYER
  2
XTRKCAD9
  6
CONTINUOUS
  62
7
  70
0
  0
LAYER
  2
XTRKCAD10
  6
CONTINUOUS
  62
7
  70
0
  0
ENDTAB
  0
ENDSEC
  0
SECTION
  2
ENTITIES
  0
LINE
  8
XTRKCAD3
  10
17.247844
  20
78.573986
  11
25.486634
  21
90.792408
  6
DASHED
  0
LINE
  8
XTRKCAD3
  10
16.978546
  20
78.755572
  11
25.217336
  21
90.973994
  6
CONTINUOUS
  0
LINE
  8
XTRKCAD3
  10
17.517142
  20
78.392400
  11
25.755932
  21
90.610822
  6
CONTINUOUS
  0
LINE
  8
XTRKCAD3
  10
15.171577
  20
79.966521
  11
25.749777
  21
95.654372
  6
DASHED
  0
LINE
  8
XTRKCAD3
  10
14.902279
  20
80.148107
  11
25.480479
  21
95.835958
  6
CONTINUOUS
  0
LINE
  8
XTRKCAD3
  10
15.440875
  20
79.784935
  11
26.019075
  21
95.472786
  6
CONTINUOUS
  0
LINE
  8
XTRKCAD3
  10
26.288374
  20
95.291200
  11
25.211180
  21
96.017544
  6
CONTINUOUS
  0
LINE
  8
XTRKCAD3
  10
26.176560
  20
95.125376
  11
25.099366
  21
95.851720
  6
CONTINUOUS
  0
LINE
  8
XTRKCAD3
  10
25.486634
  20
90.792408
  11
27.583146
  21
93.901610
  6
DASHED
  0
LINE
  8
XTRKCAD3
  10
25.217336
  20
90.973994
  11
27.313847
  21
94.083196
  6
CONTINUOUS
  0
LINE
  8
XTRKCAD3
  10
25.755932
  20
90.610822
  11
27.852444
  21
93.720024
  6
CONTINUOUS
  0
LINE
  8
XTRKCAD3
  10
12.286413
  20
29.414320
  11
11.839380
  21
29.885639
  6
DASHED
  0
LINE
  8
XTRKCAD3
  10
12.050754
  20
29.190803
  11
11.603720
  21
29.662122
  6
CONTINUOUS
  0
LINE
  8
XTRKCAD3
  10
12.522072
  20
29.637837
  11
12.075039
  21
30.109156
  6
CONTINUOUS
  0
ARC
  10
23.933382
  20
41.356467
  40
16.668677
  50
183.128621
  51
223.485161
  8
XTRKCAD3
  6
DASHED
  0
ARC
  10
23.933382
  20
41.356467
  40
16.993477
  50
183.128621
  51
223.485161
  8
XTRKCAD3
  6
CONTINUOUS
  0
ARC
  10
23.933382
  20
41.356467
  40
16.343877
  50
183.128621
  51
223.485161
  8
XTRKCAD3
  6
CONTINUOUS
  0
LINE
  8
XTRKCAD3
  10
7.289549
  20
40.446731
  11
7.151336
  21
42.975372
  6
DASHED
  0
LINE
  8
XTRKCAD3
  10
6.965233
  20
40.429004
  11
6.827020
  21
42.957646
  6
CONTINUOUS
  0
LINE
  8
XTRKCAD3
  10
7.613865
  20
40.464458
  11
7.475652
  21
42.993099
  6
CONTINUOUS
  0
ARC
  10
27.796964
  20
45.021251
  40
21.993891
  50
187.588554
  51
223.485695
  8
XTRKCAD3
  6
DASHED
  0
ARC
  10
27.796964
  20
45.021251
  40
22.318691
  50
187.588554
  51
223.485695
  8
XTRKCAD3
  6
CONTINUOUS
  0
ARC
  10
27.796964
  20
45.021251
  40
21.669091
  50
187.588554
  51
223.485695
  8
XTRKCAD3
  6
CONTINUOUS
  0
LINE
  8
XTRKCAD3
  10
5.995698
  20
42.116773
  11
5.909912
  21
42.760684
  6
DASHED
  0
LINE
  8
XTRKCAD3
  10
5.673742
  20
42.073880
  11
5.587957
  21
42.717791
  6
CONTINUOUS
  0
LINE
  8
XTRKCAD3
  10
6.317653
  20
42.159666
  11
6.231867
  21
42.803577
  6
CONTINUOUS
  0
LINE
  8
XTRKCAD3
  10
7.379028
  20
49.944113
  11
7.456747
  21
50.589047
  6
DASHED
  0
LINE
  8
XTRKCAD3
  10
7.056561
  20
49.982972
  11
7.134280
  21
50.627906
  6
CONTINUOUS
  0
LINE
  8
XTRKCAD3
  10
7.701495
  20
49.905254
  11
7.779214
  21
50.550188
  6
CONTINUOUS
  0
LINE
  8
XTRKCAD3
  10
7.456747
  20
50.589047
  11
8.732311
  21
61.174071
  6
DASHED
  0
LINE
  8
XTRKCAD3
  10
7.134280
  20
50.627906
  11
8.409844
  21
61.212931
  6
CONTINUOUS
  0
LINE
  8
XTRKCAD3
  10
7.779214
  20
50.550188
  11
9.054778
  21
61.135212
  6
CONTINUOUS
  0
ARC
  10
34.473744
  20
47.333324
  40
27.212458
  50
163.666281
  51
173.128621
  8
XTRKCAD3
  6
DASHED
  0
ARC
  10
34.473744
  20
47.333324
  40
27.537258
  50
163.666281
  51
173.128621
  8
XTRKCAD3
  6
CONTINUOUS
  0
ARC
  10
34.473744
  20
47.333324
  40
26.887658
  50
163.666281
  51
173.128621
  8
XTRKCAD3
  6
CONTINUOUS
  0
LINE
  8
XTRKCAD3
  10
8.359582
  20
54.986325
  11
10.123818
  21
61.006386
  6
DASHED
  0
LINE
  8
XTRKCAD3
  10
8.047891
  20
55.077669
  11
9.812127
  21
61.097730
  6
CONTINUOUS
  0
LINE
  8
XTRKCAD3
  10
8.671273
  20
54.894981
  11
10.435509
  21
60.915042
  6
CONTINUOUS
  0
LINE
  8
XTRKCAD3
  10
4.500000
  20
56.625000
  11
4.495377
  21
57.274584
  6
DASHED
  0
LINE
  8
XTRKCAD3
  10
4.175208
  20
56.622688
  11
4.170585
  21
57.272272
  6
CONTINUOUS
  0
LINE
  8
XTRKCAD3
  10
4.824792
  20
56.627312
  11
4.820168
  21
57.276895
  6
CONTINUOUS
  0
LINE
  8
XTRKCAD3
  10
4.495377
  20
57.274584
  11
4.401339
  21
70.486854
  6
DASHED
  0
LINE
  8
XTRKCAD3
  10
4.170585
  20
57.272272
  11
4.076547
  21
70.484542
  6
CONTINUOUS
  0
LINE
  8
XTRKCAD3
  10
4.820168
  20
57.276895
  11
4.726131
  21
70.489166
  6
CONTINUOUS
  0
ARC
  10
36.619259
  20
57.503223
  40
32.124696
  50
173.282777
  51
180.407792
  8
XTRKCAD3
  6
DASHED
  0
ARC
  10
36.619259
  20
57.503223
  40
32.449496
  50
173.282777
  51
180.407792
  8
XTRKCAD3
  6
CONTINUOUS
  0
ARC
  10
36.619259
  20
57.503223
  40
31.799896
  50
173.282777
  51
180.407792
  8
XTRKCAD3
  6
CONTINUOUS
  0
LINE
  8
XTRKCAD3
  10
4.715082
  20
61.260825
  11
5.802878
  21
70.496829
  6
DASHED
  0
LINE
  8
XTRKCAD3
  10
4.392512
  20
61.298817
  11
5.480307
  21
70.534821
  6
CONTINUOUS
  0
LINE
  8
XTRKCAD3
  10
5.037653
  20
61.222834
  11
6.125448
  21
70.458838
  6
CONTINUOUS
  0
LINE
  8
XTRKCAD3
  10
4.500000
  20
56.625000
  11
4.504623
  21
55.975416
  6
DASHED
  0
LINE
  8
XTRKCAD3
  10
4.824792
  20
56.627312
  11
4.829415
  21
55.977728
  6
CONTINUOUS
  0
LINE
  8
XTRKCAD3
  10
4.175208
  20
56.622688
  11
4.179832
  21
55.973105
  6
CONTINUOUS
  0
LINE
  8
XTRKCAD3
  10
4.504623
  20
55.975416
  11
4.598661
  21
42.763146
  6
DASHED
  0
LINE
  8
XTRKCAD3
  10
4.829415
  20
55.977728
  11
4.923453
  21
42.765458
  6
CONTINUOUS
  0
LINE
  8
XTRKCAD3
  10
4.179832
  20
55.973105
  11
4.273869
  21
42.760834
  6
CONTINUOUS
  0
ARC
  10
36.628506
  20
56.204056
  40
32.124696
  50
180.407792
  51
187.532807
  8
XTRKCAD3
  6
DASHED
  0
ARC
  10
36.628506
  20
56.204056
  40
32.449496
  50
180.407792
  51
187.532807
  8
XTRKCAD3
  6
CONTINUOUS
  0
ARC
  10
36.628506
  20
56.204056
  40
31.799896
  50
180.407792
  51
187.532807
  8
XTRKCAD3
  6
CONTINUOUS
  0
LINE
  8
XTRKCAD3
  10
4.781047
  20
51.992706
  11
6.000199
  21
42.773121
  6
DASHED
  0
LINE
  8
XTRKCAD3
  10
5.103044
  20
52.035285
  11
6.322196
  21
42.815701
  6
CONTINUOUS
  0
LINE
  8
XTRKCAD3
  10
4.459050
  20
51.950127
  11
5.678202
  21
42.730542
  6
CONTINUOUS
  0
ARC
  10
47.091717
  20
45.158476
  40
40.000000
  50
173.128621
  51
183.128621
  8
XTRKCAD17
  6
DASHED
  0
ARC
  10
47.091717
  20
45.158476
  40
40.324800
  50
173.128621
  51
183.128621
  8
XTRKCAD17
  6
CONTINUOUS
  0
ARC
  10
47.091717
  20
45.158476
  40
39.675200
  50
173.128621
  51
183.128621
  8
XTRKCAD17
  6
CONTINUOUS
  0
ARC
  10
115.182663
  20
49.176987
  40
107.124262
  50
170.871157
  51
173.569829
  8
XTRKCAD17
  6
DASHED
  0
ARC
  10
115.182663
  20
49.176987
  40
107.449062
  50
170.871157
  51
173.569829
  8
XTRKCAD17
  6
CONTINUOUS
  0
ARC
  10
115.182663
  20
49.176987
  40
106.799462
  50
170.871157
  51
173.569829
  8
XTRKCAD17
  6
CONTINUOUS
  0
ARC
  10
44.719634
  20
60.504507
  40
35.756545
  50
162.811394
  51
170.878729
  8
XTRKCAD17
  6
DASHED
  0
ARC
  10
44.719634
  20
60.504507
  40
36.081345
  50
162.811394
  51
170.878729
  8
XTRKCAD17
  6
CONTINUOUS
  0
ARC
  10
44.719634
  20
60.504507
  40
35.431745
  50
162.811394
  51
170.878729
  8
XTRKCAD17
  6
CONTINUOUS
  0
ARC
  10
36.667687
  20
62.754934
  40
27.400140
  50
151.791961
  51
162.331319
  8
XTRKCAD17
  6
DASHED
  0
ARC
  10
36.667687
  20
62.754934
  40
27.724940
  50
151.791961
  51
162.331319
  8
XTRKCAD17
  6
CONTINUOUS
  0
ARC
  10
36.667687
  20
62.754934
  40
27.075340
  50
151.791961
  51
162.331319
  8
XTRKCAD17
  6
CONTINUOUS
  0
ARC
  10
48.638870
  20
55.987185
  40
41.149668
  50
146.103718
  51
151.366559
  8
XTRKCAD17
  6
DASHED
  0
ARC
  10
48.638870
  20
55.987185
  40
41.474468
  50
146.103718
  51
151.366559
  8
XTRKCAD17
  6
CONTINUOUS
  0
ARC
  10
48.638870
  20
55.987185
  40
40.824868
  50
146.103718
  51
151.366559
  8
XTRKCAD17
  6
CONTINUOUS
  0
LINE
  8
XTRKCAD17
  10
14.482651
  20
78.935994
  11
15.183208
  21
79.983770
  6
DASHED
  0
LINE
  8
XTRKCAD17
  10
14.212644
  20
79.116524
  11
14.913201
  21
80.164300
  6
CONTINUOUS
  0
LINE
  8
XTRKCAD17
  10
14.752658
  20
78.755464
  11
15.453215
  21
79.803240
  6
CONTINUOUS
  0
LINE
  8
XTRKCAD17
  10
10.123818
  20
61.006386
  11
11.422941
  21
65.597022
  6
DASHED
  0
LINE
  8
XTRKCAD17
  10
9.811291
  20
61.094829
  11
11.110415
  21
65.685465
  6
CONTINUOUS
  0
LINE
  8
XTRKCAD17
  10
10.436345
  20
60.917943
  11
11.735468
  21
65.508579
  6
CONTINUOUS
  0
ARC
  10
87.245161
  20
44.438888
  40
78.718966
  50
160.937317
  51
164.408279
  8
XTRKCAD17
  6
DASHED
  0
ARC
  10
87.245161
  20
44.438888
  40
79.043766
  50
160.937317
  51
164.408279
  8
XTRKCAD17
  6
CONTINUOUS
  0
ARC
  10
87.245161
  20
44.438888
  40
78.394166
  50
160.937317
  51
164.408279
  8
XTRKCAD17
  6
CONTINUOUS
  0
ARC
  10
42.884497
  20
59.714530
  40
31.801938
  50
152.253612
  51
160.846614
  8
XTRKCAD17
  6
DASHED
  0
ARC
  10
42.884497
  20
59.714530
  40
32.126738
  50
152.253612
  51
160.846614
  8
XTRKCAD17
  6
CONTINUOUS
  0
ARC
  10
42.884497
  20
59.714530
  40
31.477138
  50
152.253612
  51
160.846614
  8
XTRKCAD17
  6
CONTINUOUS
  0
ARC
  10
54.627262
  20
52.639402
  40
45.495313
  50
145.246318
  51
151.252782
  8
XTRKCAD17
  6
DASHED
  0
ARC
  10
54.627262
  20
52.639402
  40
45.820113
  50
145.246318
  51
151.252782
  8
XTRKCAD17
  6
CONTINUOUS
  0
ARC
  10
54.627262
  20
52.639402
  40
45.170513
  50
145.246318
  51
151.252782
  8
XTRKCAD17
  6
CONTINUOUS
  0
ARC
  10
26.223113
  20
42.917057
  40
21.625000
  50
180.407792
  51
198.891030
  8
XTRKCAD17
  6
DASHED
  0
ARC
  10
26.223113
  20
42.917057
  40
21.949800
  50
180.407792
  51
198.891030
  8
XTRKCAD17
  6
CONTINUOUS
  0
ARC
  10
26.223113
  20
42.917057
  40
21.300200
  50
180.407792
  51
198.891030
  8
XTRKCAD17
  6
CONTINUOUS
  0
LINE
  8
XTRKCAD3
  10
9.010811
  20
26.424385
  11
13.415919
  21
13.551544
  6
DASHED
  0
LINE
  8
XTRKCAD3
  10
9.318116
  20
26.529545
  11
13.723224
  21
13.656704
  6
CONTINUOUS
  0
LINE
  8
XTRKCAD3
  10
8.703506
  20
26.319225
  11
13.108614
  21
13.446384
  6
CONTINUOUS
  0
LINE
  8
XTRKCAD3
  10
9.009351
  20
19.275412
  11
11.195953
  21
12.885605
  6
DASHED
  0
LINE
  8
XTRKCAD3
  10
9.316656
  20
19.380572
  11
11.503258
  21
12.990765
  6
CONTINUOUS
  0
LINE
  8
XTRKCAD3
  10
8.702046
  20
19.170252
  11
10.888648
  21
12.780445
  6
CONTINUOUS
  0
ARC
  10
113.245238
  20
38.432454
  40
106.293548
  50
186.732842
  51
188.577141
  8
XTRKCAD3
  6
DASHED
  0
ARC
  10
113.245238
  20
38.432454
  40
106.618348
  50
186.732842
  51
188.577141
  8
XTRKCAD3
  6
CONTINUOUS
  0
ARC
  10
113.245238
  20
38.432454
  40
105.968748
  50
186.732842
  51
188.577141
  8
XTRKCAD3
  6
CONTINUOUS
  0
ARC
  10
28.509575
  20
26.169369
  40
20.682973
  50
189.994558
  51
199.470141
  8
XTRKCAD3
  6
DASHED
  0
ARC
  10
28.509575
  20
26.169369
  40
21.007773
  50
189.994558
  51
199.470141
  8
XTRKCAD3
  6
CONTINUOUS
  0
ARC
  10
28.509575
  20
26.169369
  40
20.358173
  50
189.994558
  51
199.470141
  8
XTRKCAD3
  6
CONTINUOUS
  0
LINE
  8
XTRKCAD3
  10
13.415919
  20
13.551544
  11
14.630054
  21
10.003534
  6
DASHED
  0
LINE
  8
XTRKCAD3
  10
13.723224
  20
13.656704
  11
14.937359
  21
10.108694
  6
CONTINUOUS
  0
LINE
  8
XTRKCAD3
  10
13.108614
  20
13.446384
  11
14.322749
  21
9.898374
  6
CONTINUOUS
  0
LINE
  8
XTRKCAD3
  10
11.195953
  20
12.885605
  11
12.410088
  21
9.337595
  6
DASHED
  0
LINE
  8
XTRKCAD3
  10
11.503258
  20
12.990765
  11
12.717393
  21
9.442755
  6
CONTINUOUS
  0
LINE
  8
XTRKCAD3
  10
10.888648
  20
12.780445
  11
12.102783
  21
9.232435
  6
CONTINUOUS
  0
LINE
  8
XTRKCAD3
  10
5.046875
  20
100.625000
  11
5.046875
  21
88.225805
  6
DASHED
  0
LINE
  8
XTRKCAD3
  10
5.371675
  20
100.625000
  11
5.371675
  21
88.225805
  6
CONTINUOUS
  0
LINE
  8
XTRKCAD3
  10
4.722075
  20
100.625000
  11
4.722075
  21
88.225805
  6
CONTINUOUS
  0
LINE
  8
XTRKCAD3
  10
5.696475
  20
100.625000
  11
4.397275
  21
100.625000
  6
CONTINUOUS
  0
LINE
  8
XTRKCAD3
  10
5.696475
  20
100.425000
  11
4.397275
  21
100.425000
  6
CONTINUOUS
  0
ARC
  10
117.586117
  20
71.060173
  40
113.186230
  50
175.796410
  51
180.290220
  8
XTRKCAD17
  6
DASHED
  0
ARC
  10
117.586117
  20
71.060173
  40
113.511030
  50
175.796410
  51
180.290220
  8
XTRKCAD17
  6
CONTINUOUS
  0
ARC
  10
117.586117
  20
71.060173
  40
112.861430
  50
175.796410
  51
180.290220
  8
XTRKCAD17
  6
CONTINUOUS
  0
ARC
  10
-119.435081
  20
88.591949
  40
124.482495
  50
355.745413
  51
359.831474
  8
XTRKCAD17
  6
DASHED
  0
ARC
  10
-119.435081
  20
88.591949
  40
124.807295
  50
355.745413
  51
359.831474
  8
XTRKCAD17
  6
CONTINUOUS
  0
ARC
  10
-119.435081
  20
88.591949
  40
124.157695
  50
355.745413
  51
359.831474
  8
XTRKCAD17
  6
CONTINUOUS
  0
LINE
  8
XTRKCAD3
  10
5.762921
  20
35.915546
  11
5.973242
  21
35.300936
  6
DASHED
  0
LINE
  8
XTRKCAD3
  10
6.070226
  20
36.020706
  11
6.280547
  21
35.406096
  6
CONTINUOUS
  0
LINE
  8
XTRKCAD3
  10
5.455616
  20
35.810386
  11
5.665937
  21
35.195776
  6
CONTINUOUS
  0
LINE
  8
XTRKCAD3
  10
5.973242
  20
35.300936
  11
9.010811
  21
26.424386
  6
DASHED
  0
LINE
  8
XTRKCAD3
  10
6.280547
  20
35.406096
  11
9.318116
  21
26.529546
  6
CONTINUOUS
  0
LINE
  8
XTRKCAD3
  10
5.665937
  20
35.195776
  11
8.703506
  21
26.319226
  6
CONTINUOUS
  0
ARC
  10
-16.764940
  20
27.519893
  40
24.032676
  50
7.567690
  51
18.891030
  8
XTRKCAD3
  6
DASHED
  0
ARC
  10
-16.764940
  20
27.519893
  40
24.357476
  50
7.567690
  51
18.891030
  8
XTRKCAD3
  6
CONTINUOUS
  0
ARC
  10
-16.764940
  20
27.519893
  40
23.707876
  50
7.567690
  51
18.891030
  8
XTRKCAD3
  6
CONTINUOUS
  0
LINE
  8
XTRKCAD3
  10
7.058411
  20
30.684934
  11
7.684732
  21
25.970599
  6
DASHED
  0
LINE
  8
XTRKCAD3
  10
7.380382
  20
30.727710
  11
8.006703
  21
26.013375
  6
CONTINUOUS
  0
LINE
  8
XTRKCAD3
  10
6.736440
  20
30.642159
  11
7.362761
  21
25.927824
  6
CONTINUOUS
  0
ENDSEC
  0
EOF
