  0
SECTION
  2
HEADER
  9
$ACADVER
  1
AC1009
  9
$MEASUREMENT
  70
0
  9
$INSUNITS
  70
1
  9
$DIMTXT
  40
1.0
  9
$DIMASZ
  40
0.8
  9
$EXTMIN
  10
0.000000
  20
0.000000
  9
$EXTMAX
  10
240.000000
  20
151.000000
  9
$TEXTSTYLE
  7
STANDARD
  0
ENDSEC
  0
SECTION
  2
TABLES
  0
TABLE
  2
LTYPE
  0
LTYPE
  2
CONTINUOUS
  70
0
  3
Solid line
  72
65
  73
0
  40
0
  0
LTYPE
  2
DASHED
  70
0
  3
__ __ __ __ __ __ __ __ __ __ __ __ __ __ __
  72
65
  73
2
  40
0.15
  49
0.1
  49
-0.05
  0
LTYPE
  2
DOT
  70
0
  3
...............................................
  72
65
  73
2
  40
0.1
  49
0
  49
-0.05
  0
ENDTAB
  0
TABLE
  2
LAYER
  70
0
  0
LAYER
  2
XTRKCAD1
  6
CONTINUOUS
  62
7
  70
0
  0
LAYER
  2
XTRKCAD2
  6
CONTINUOUS
  62
7
  70
0
  0
LAYER
  2
XTRKCAD3
  6
CONTINUOUS
  62
7
  70
0
  0
LAYER
  2
XTRKCAD4
  6
CONTINUOUS
  62
7
  70
0
  0
LAYER
  2
XTRKCAD5
  6
CONTINUOUS
  62
7
  70
0
  0
LAYER
  2
XTRKCAD6
  6
CONTINUOUS
  62
7
  70
0
  0
LAYER
  2
XTRKCAD7
  6
CONTINUOUS
  62
7
  70
0
  0
LAYER
  2
XTRKCAD8
  6
CONTINUOUS
  62
7
  70
0
  0
LAYER
  2
XTRKCAD9
  6
CONTINUOUS
  62
7
  70
0
  0
LAYER
  2
XTRKCAD10
  6
CONTINUOUS
  62
7
  70
0
  0
ENDTAB
  0
ENDSEC
  0
SECTION
  2
ENTITIES
  0
LINE
  8
XTRKCAD3
  10
17.247844
  20
78.573986
  11
25.486634
  21
90.792408
  6
DASHED
  0
LINE
  8
XTRKCAD3
  10
16.978546
  20
78.755572
  11
25.217336
  21
90.973994
  6
CONTINUOUS
  0
LINE
  8
XTRKCAD3
  10
17.517142
  20
78.392400
  11
25.755932
  21
90.610822
  6
CONTINUOUS
  0
LINE
  8
XTRKCAD3
  10
26.025231
  20
90.429236
  11
24.948037
  21
91.155580
  6
CONTINUOUS
  0
LINE
  8
XTRKCAD3
  10
25.913417
  20
90.263412
  11
24.836223
  21
90.989756
  6
CONTINUOUS
  0
LINE
  8
XTRKCAD3
  10
12.286413
  20
29.414320
  11
11.839380
  21
29.885639
  6
DASHED
  0
LINE
  8
XTRKCAD3
  10
12.050754
  20
29.190803
  11
11.603720
  21
29.662122
  6
CONTINUOUS
  0
LINE
  8
XTRKCAD3
  10
12.522072
  20
29.637837
  11
12.075039
  21
30.109156
  6
CONTINUOUS
  0
ARC
  10
23.933382
  20
41.356467
  40
16.668677
  50
183.128621
  51
223.485161
  8
XTRKCAD3
  6
DASHED
  0
ARC
  10
23.933382
  20
41.356467
  40
16.993477
  50
183.128621
  51
223.485161
  8
XTRKCAD3
  6
CONTINUOUS
  0
ARC
  10
23.933382
  20
41.356467
  40
16.343877
  50
183.128621
  51
223.485161
  8
XTRKCAD3
  6
CONTINUOUS
  0
LINE
  8
XTRKCAD3
  10
7.289549
  20
40.446731
  11
7.151336
  21
42.975372
  6
DASHED
  0
LINE
  8
XTRKCAD3
  10
6.965233
  20
40.429004
  11
6.827020
  21
42.957646
  6
CONTINUOUS
  0
LINE
  8
XTRKCAD3
  10
7.613865
  20
40.464458
  11
7.475652
  21
42.993099
  6
CONTINUOUS
  0
ARC
  10
27.796964
  20
45.021251
  40
21.993891
  50
187.588554
  51
223.485695
  8
XTRKCAD3
  6
DASHED
  0
ARC
  10
27.796964
  20
45.021251
  40
22.318691
  50
187.588554
  51
223.485695
  8
XTRKCAD3
  6
CONTINUOUS
  0
ARC
  10
27.796964
  20
45.021251
  40
21.669091
  50
187.588554
  51
223.485695
  8
XTRKCAD3
  6
CONTINUOUS
  0
LINE
  8
XTRKCAD3
  10
5.995698
  20
42.116773
  11
5.909912
  21
42.760684
  6
DASHED
  0
LINE
  8
XTRKCAD3
  10
5.673742
  20
42.073880
  11
5.587957
  21
42.717791
  6
CONTINUOUS
  0
LINE
  8
XTRKCAD3
  10
6.317653
  20
42.159666
  11
6.231867
  21
42.803577
  6
CONTINUOUS
  0
LINE
  8
XTRKCAD3
  10
7.379028
  20
49.944113
  11
7.456747
  21
50.589047
  6
DASHED
  0
LINE
  8
XTRKCAD3
  10
7.056561
  20
49.982972
  11
7.134280
  21
50.627906
  6
CONTINUOUS
  0
LINE
  8
XTRKCAD3
  10
7.701495
  20
49.905254
  11
7.779214
  21
50.550188
  6
CONTINUOUS
  0
LINE
  8
XTRKCAD3
  10
7.456747
  20
50.589047
  11
8.732311
  21
61.174071
  6
DASHED
  0
LINE
  8
XTRKCAD3
  10
7.134280
  20
50.627906
  11
8.409844
  21
61.212931
  6
CONTINUOUS
  0
LINE
  8
XTRKCAD3
  10
7.779214
  20
50.550188
  11
9.054778
  21
61.135212
  6
CONTINUOUS
  0
ARC
  10
34.473744
  20
47.333324
  40
27.212458
  50
163.666281
  51
173.128621
  8
XTRKCAD3
  6
DASHED
  0
ARC
  10
34.473744
  20
47.333324
  40
27.537258
  50
163.666281
  51
173.128621
  8
XTRKCAD3
  6
CONTINUOUS
  0
ARC
  10
34.473744
  20
47.333324
  40
26.887658
  50
163.666281
  51
173.128621
  8
XTRKCAD3
  6
CONTINUOUS
  0
LINE
  8
XTRKCAD3
  10
8.359582
  20
54.986325
  11
10.123818
  21
61.006386
  6
DASHED
  0
LINE
  8
XTRKCAD3
  10
8.047891
  20
55.077669
  11
9.812127
  21
61.097730
  6
CONTINUOUS
  0
LINE
  8
XTRKCAD3
  10
8.671273
  20
54.894981
  11
10.435509
  21
60.915042
  6
CONTINUOUS
  0
LINE
  8
XTRKCAD3
  10
4.500000
  20
56.625000
  11
4.495377
  21
57.274584
  6
DASHED
  0
LINE
  8
XTRKCAD3
  10
4.175208
  20
56.622688
  11
4.170585
  21
57.272272
  6
CONTINUOUS
  0
LINE
  8
XTRKCAD3
  10
4.824792
  20
56.627312
  11
4.820168
  21
57.276895
  6
CONTINUOUS
  0
LINE
  8
XTRKCAD3
  10
4.495377
  20
57.274584
  11
4.401339
  21
70.486854
  6
DASHED
  0
LINE
  8
XTRKCAD3
  10
4.170585
  20
57.272272
  11
4.076547
  21
70.484542
  6
CONTINUOUS
  0
LINE
  8
XTRKCAD3
  10
4.820168
  20
57.276895
  11
4.726131
  21
70.489166
  6
CONTINUOUS
  0
ARC
  10
36.619259
  20
57.503223
  40
32.124696
  50
173.282777
  51
180.407792
  8
XTRKCAD3
  6
DASHED
  0
ARC
  10
36.619259
  20
57.503223
  40
32.449496
  50
173.282777
  51
180.407792
  8
XTRKCAD3
  6
CONTINUOUS
  0
ARC
  10
36.619259
  20
57.503223
  40
31.799896
  50
173.282777
  51
180.407792
  8
XTRKCAD3
  6
CONTINUOUS
  0
LINE
  8
XTRKCAD3
  10
4.715082
  20
61.260825
  11
5.802878
  21
70.496829
  6
DASHED
  0
LINE
  8
XTRKCAD3
  10
4.392512
  20
61.298817
  11
5.480307
  21
70.534821
  6
CONTINUOUS
  0
LINE
  8
XTRKCAD3
  10
5.037653
  20
61.222834
  11
6.125448
  21
70.458838
  6
CONTINUOUS
  0
LINE
  8
XTRKCAD3
  10
4.500000
  20
56.625000
  11
4.504623
  21
55.975416
  6
DASHED
  0
LINE
  8
XTRKCAD3
  10
4.824792
  20
56.627312
  11
4.829415
  21
55.977728
  6
CONTINUOUS
  0
LINE
  8
XTRKCAD3
  10
4.175208
  20
56.622688
  11
4.179832
  21
55.973105
  6
CONTINUOUS
  0
LINE
  8
XTRKCAD3
  10
4.504623
  20
55.975416
  11
4.598661
  21
42.763146
  6
DASHED
  0
LINE
  8
XTRKCAD3
  10
4.829415
  20
55.977728
  11
4.923453
  21
42.765458
  6
CONTINUOUS
  0
LINE
  8
XTRKCAD3
  10
4.179832
  20
55.973105
  11
4.273869
  21
42.760834
  6
CONTINUOUS
  0
ARC
  10
36.628506
  20
56.204056
  40
32.124696
  50
180.407792
  51
187.532807
  8
XTRKCAD3
  6
DASHED
  0
ARC
  10
36.628506
  20
56.204056
  40
32.449496
  50
180.407792
  51
187.532807
  8
XTRKCAD3
  6
CONTINUOUS
  0
ARC
  10
36.628506
  20
56.204056
  40
31.799896
  50
180.407792
  51
187.532807
  8
XTRKCAD3
  6
CONTINUOUS
  0
LINE
  8
XTRKCAD3
  10
4.781047
  20
51.992706
  11
6.000199
  21
42.773121
  6
DASHED
  0
LINE
  8
XTRKCAD3
  10
5.103044
  20
52.035285
  11
6.322196
  21
42.815701
  6
CONTINUOUS
  0
LINE
  8
XTRKCAD3
  10
4.459050
  20
51.950127
  11
5.678202
  21
42.730542
  6
CONTINUOUS
  0
ARC
  10
47.091717
  20
45.158476
  40
40.000000
  50
173.128621
  51
183.128621
  8
XTRKCAD17
  6
DASHED
  0
ARC
  10
47.091717
  20
45.158476
  40
40.324800
  50
173.128621
  51
183.128621
  8
XTRKCAD17
  6
CONTINUOUS
  0
ARC
  10
47.091717
  20
45.158476
  40
39.675200
  50
173.128621
  51
183.128621
  8
XTRKCAD17
  6
CONTINUOUS
  0
LINE
  8
XTRKCAD17
  10
10.123818
  20
61.006386
  11
11.422941
  21
65.597022
  6
DASHED
  0
LINE
  8
XTRKCAD17
  10
9.811291
  20
61.094829
  11
11.110415
  21
65.685465
  6
CONTINUOUS
  0
LINE
  8
XTRKCAD17
  10
10.436345
  20
60.917943
  11
11.735468
  21
65.508579
  6
CONTINUOUS
  0
ARC
  10
87.245161
  20
44.438888
  40
78.718966
  50
160.937317
  51
164.408279
  8
XTRKCAD17
  6
DASHED
  0
ARC
  10
87.245161
  20
44.438888
  40
79.043766
  50
160.937317
  51
164.408279
  8
XTRKCAD17
  6
CONTINUOUS
  0
ARC
  10
87.245161
  20
44.438888
  40
78.394166
  50
160.937317
  51
164.408279
  8
XTRKCAD17
  6
CONTINUOUS
  0
ARC
  10
42.884497
  20
59.714530
  40
31.801938
  50
152.253612
  51
160.846614
  8
XTRKCAD17
  6
DASHED
  0
ARC
  10
42.884497
  20
59.714530
  40
32.126738
  50
152.253612
  51
160.846614
  8
XTRKCAD17
  6
CONTINUOUS
  0
ARC
  10
42.884497
  20
59.714530
  40
31.477138
  50
152.253612
  51
160.846614
  8
XTRKCAD17
  6
CONTINUOUS
  0
ARC
  10
54.627262
  20
52.639402
  40
45.495313
  50
145.246318
  51
151.252782
  8
XTRKCAD17
  6
DASHED
  0
ARC
  10
54.627262
  20
52.639402
  40
45.820113
  50
145.246318
  51
151.252782
  8
XTRKCAD17
  6
CONTINUOUS
  0
ARC
  10
54.627262
  20
52.639402
  40
45.170513
  50
145.246318
  51
151.252782
  8
XTRKCAD17
  6
CONTINUOUS
  0
ARC
  10
26.223113
  20
42.917057
  40
21.625000
  50
180.407792
  51
198.891030
  8
XTRKCAD17
  6
DASHED
  0
ARC
  10
26.223113
  20
42.917057
  40
21.949800
  50
180.407792
  51
198.891030
  8
XTRKCAD17
  6
CONTINUOUS
  0
ARC
  10
26.223113
  20
42.917057
  40
21.300200
  50
180.407792
  51
198.891030
  8
XTRKCAD17
  6
CONTINUOUS
  0
LINE
  8
XTRKCAD3
  10
9.010811
  20
26.424385
  11
14.235380
  21
11.156869
  6
DASHED
  0
LINE
  8
XTRKCAD3
  10
9.318116
  20
26.529545
  11
14.542685
  21
11.262029
  6
CONTINUOUS
  0
LINE
  8
XTRKCAD3
  10
8.703506
  20
26.319225
  11
13.928075
  21
11.051709
  6
CONTINUOUS
  0
LINE
  8
XTRKCAD3
  10
13.620770
  20
10.946548
  11
14.849990
  21
11.367190
  6
CONTINUOUS
  0
LINE
  8
XTRKCAD3
  10
13.556016
  20
11.135776
  11
14.785236
  21
11.556417
  6
CONTINUOUS
  0
LINE
  8
XTRKCAD3
  10
9.009351
  20
19.275412
  11
11.884998
  21
10.872041
  6
DASHED
  0
LINE
  8
XTRKCAD3
  10
9.316656
  20
19.380572
  11
12.192303
  21
10.977201
  6
CONTINUOUS
  0
LINE
  8
XTRKCAD3
  10
8.702046
  20
19.170252
  11
11.577693
  21
10.766881
  6
CONTINUOUS
  0
LINE
  8
XTRKCAD3
  10
11.270388
  20
10.661720
  11
12.499608
  21
11.082362
  6
CONTINUOUS
  0
LINE
  8
XTRKCAD3
  10
11.205634
  20
10.850948
  11
12.434854
  21
11.271589
  6
CONTINUOUS
  0
ARC
  10
113.245238
  20
38.432454
  40
106.293548
  50
186.732842
  51
188.577141
  8
XTRKCAD3
  6
DASHED
  0
ARC
  10
113.245238
  20
38.432454
  40
106.618348
  50
186.732842
  51
188.577141
  8
XTRKCAD3
  6
CONTINUOUS
  0
ARC
  10
113.245238
  20
38.432454
  40
105.968748
  50
186.732842
  51
188.577141
  8
XTRKCAD3
  6
CONTINUOUS
  0
ARC
  10
28.509575
  20
26.169369
  40
20.682973
  50
189.994558
  51
199.470141
  8
XTRKCAD3
  6
DASHED
  0
ARC
  10
28.509575
  20
26.169369
  40
21.007773
  50
189.994558
  51
199.470141
  8
XTRKCAD3
  6
CONTINUOUS
  0
ARC
  10
28.509575
  20
26.169369
  40
20.358173
  50
189.994558
  51
199.470141
  8
XTRKCAD3
  6
CONTINUOUS
  0
LINE
  8
XTRKCAD3
  10
5.796875
  20
102.875000
  11
5.796875
  21
87.500000
  6
DASHED
  0
LINE
  8
XTRKCAD3
  10
6.121675
  20
102.875000
  11
6.121675
  21
87.500000
  6
CONTINUOUS
  0
LINE
  8
XTRKCAD3
  10
5.472075
  20
102.875000
  11
5.472075
  21
87.500000
  6
CONTINUOUS
  0
LINE
  8
XTRKCAD3
  10
6.446475
  20
102.875000
  11
5.147275
  21
102.875000
  6
CONTINUOUS
  0
LINE
  8
XTRKCAD3
  10
6.446475
  20
102.675000
  11
5.147275
  21
102.675000
  6
CONTINUOUS
  0
LINE
  8
XTRKCAD3
  10
5.762921
  20
35.915546
  11
5.973242
  21
35.300936
  6
DASHED
  0
LINE
  8
XTRKCAD3
  10
6.070226
  20
36.020706
  11
6.280547
  21
35.406096
  6
CONTINUOUS
  0
LINE
  8
XTRKCAD3
  10
5.455616
  20
35.810386
  11
5.665937
  21
35.195776
  6
CONTINUOUS
  0
LINE
  8
XTRKCAD3
  10
5.973242
  20
35.300936
  11
9.010811
  21
26.424386
  6
DASHED
  0
LINE
  8
XTRKCAD3
  10
6.280547
  20
35.406096
  11
9.318116
  21
26.529546
  6
CONTINUOUS
  0
LINE
  8
XTRKCAD3
  10
5.665937
  20
35.195776
  11
8.703506
  21
26.319226
  6
CONTINUOUS
  0
ARC
  10
-16.764940
  20
27.519893
  40
24.032676
  50
7.567690
  51
18.891030
  8
XTRKCAD3
  6
DASHED
  0
ARC
  10
-16.764940
  20
27.519893
  40
24.357476
  50
7.567690
  51
18.891030
  8
XTRKCAD3
  6
CONTINUOUS
  0
ARC
  10
-16.764940
  20
27.519893
  40
23.707876
  50
7.567690
  51
18.891030
  8
XTRKCAD3
  6
CONTINUOUS
  0
LINE
  8
XTRKCAD3
  10
7.058411
  20
30.684934
  11
7.684732
  21
25.970599
  6
DASHED
  0
LINE
  8
XTRKCAD3
  10
7.380382
  20
30.727710
  11
8.006703
  21
26.013375
  6
CONTINUOUS
  0
LINE
  8
XTRKCAD3
  10
6.736440
  20
30.642159
  11
7.362761
  21
25.927824
  6
CONTINUOUS
  0
LINE
  8
XTRKCAD3
  10
15.175043
  20
79.971660
  11
23.413833
  21
92.190082
  6
DASHED
  0
LINE
  8
XTRKCAD3
  10
14.905745
  20
80.153246
  11
23.144535
  21
92.371668
  6
CONTINUOUS
  0
LINE
  8
XTRKCAD3
  10
15.444341
  20
79.790074
  11
23.683131
  21
92.008496
  6
CONTINUOUS
  0
LINE
  8
XTRKCAD3
  10
23.952430
  20
91.826910
  11
22.875236
  21
92.553254
  6
CONTINUOUS
  0
LINE
  8
XTRKCAD3
  10
23.840616
  20
91.661086
  11
22.763422
  21
92.387430
  6
CONTINUOUS
  0
ARC
  10
115.550649
  20
49.135882
  40
107.494536
  50
170.882550
  51
173.570023
  8
XTRKCAD17
  6
DASHED
  0
ARC
  10
115.550649
  20
49.135882
  40
107.819336
  50
170.882550
  51
173.570023
  8
XTRKCAD17
  6
CONTINUOUS
  0
ARC
  10
115.550649
  20
49.135882
  40
107.169736
  50
170.882550
  51
173.570023
  8
XTRKCAD17
  6
CONTINUOUS
  0
ARC
  10
44.735107
  20
60.505593
  40
35.772077
  50
162.831952
  51
170.890105
  8
XTRKCAD17
  6
DASHED
  0
ARC
  10
44.735107
  20
60.505593
  40
36.096877
  50
162.831952
  51
170.890105
  8
XTRKCAD17
  6
CONTINUOUS
  0
ARC
  10
44.735107
  20
60.505593
  40
35.447277
  50
162.831952
  51
170.890105
  8
XTRKCAD17
  6
CONTINUOUS
  0
ARC
  10
36.627197
  20
62.771109
  40
27.357661
  50
151.804752
  51
162.353011
  8
XTRKCAD17
  6
DASHED
  0
ARC
  10
36.627197
  20
62.771109
  40
27.682461
  50
151.804752
  51
162.353011
  8
XTRKCAD17
  6
CONTINUOUS
  0
ARC
  10
36.627197
  20
62.771109
  40
27.032861
  50
151.804752
  51
162.353011
  8
XTRKCAD17
  6
CONTINUOUS
  0
ARC
  10
48.542754
  20
56.035922
  40
41.042717
  50
146.104509
  51
151.377330
  8
XTRKCAD17
  6
DASHED
  0
ARC
  10
48.542754
  20
56.035922
  40
41.367517
  50
146.104509
  51
151.377330
  8
XTRKCAD17
  6
CONTINUOUS
  0
ARC
  10
48.542754
  20
56.035922
  40
40.717917
  50
146.104509
  51
151.377330
  8
XTRKCAD17
  6
CONTINUOUS
  0
LINE
  8
XTRKCAD17
  10
14.474993
  20
78.924616
  11
15.175043
  21
79.971660
  6
DASHED
  0
LINE
  8
XTRKCAD17
  10
14.204984
  20
79.105143
  11
14.905034
  21
80.152187
  6
CONTINUOUS
  0
LINE
  8
XTRKCAD17
  10
14.745003
  20
78.744089
  11
15.445052
  21
79.791133
  6
CONTINUOUS
  0
ARC
  10
55.833112
  20
69.579464
  40
49.680818
  50
157.301989
  51
168.143116
  8
XTRKCAD3
  6
DASHED
  0
ARC
  10
55.833112
  20
69.579464
  40
50.005618
  50
157.301989
  51
168.143116
  8
XTRKCAD3
  6
CONTINUOUS
  0
ARC
  10
55.833112
  20
69.579464
  40
49.356018
  50
157.301989
  51
168.143116
  8
XTRKCAD3
  6
CONTINUOUS
  0
ARC
  10
88.591149
  20
63.038852
  40
83.084464
  50
168.370453
  51
173.231929
  8
XTRKCAD3
  6
DASHED
  0
ARC
  10
88.591149
  20
63.038852
  40
83.409264
  50
168.370453
  51
173.231929
  8
XTRKCAD3
  6
CONTINUOUS
  0
ARC
  10
88.591149
  20
63.038852
  40
82.759664
  50
168.370453
  51
173.231929
  8
XTRKCAD3
  6
CONTINUOUS
  0
LINE
  8
XTRKCAD3
  10
6.085673
  20
72.830406
  11
5.802878
  21
70.496829
  6
DASHED
  0
LINE
  8
XTRKCAD3
  10
6.408114
  20
72.791331
  11
6.125319
  21
70.457754
  6
CONTINUOUS
  0
LINE
  8
XTRKCAD3
  10
5.763232
  20
72.869481
  11
5.480437
  21
70.535904
  6
CONTINUOUS
  0
ARC
  10
51.276494
  20
71.281561
  40
46.881891
  50
175.747878
  51
180.971282
  8
XTRKCAD17
  6
DASHED
  0
ARC
  10
51.276494
  20
71.281561
  40
47.206691
  50
175.747878
  51
180.971282
  8
XTRKCAD17
  6
CONTINUOUS
  0
ARC
  10
51.276494
  20
71.281561
  40
46.557091
  50
175.747878
  51
180.971282
  8
XTRKCAD17
  6
CONTINUOUS
  0
ARC
  10
63.223647
  20
69.202515
  40
58.962270
  50
170.440508
  51
174.593866
  8
XTRKCAD17
  6
DASHED
  0
ARC
  10
63.223647
  20
69.202515
  40
59.287070
  50
170.440508
  51
174.593866
  8
XTRKCAD17
  6
CONTINUOUS
  0
ARC
  10
63.223647
  20
69.202515
  40
58.637470
  50
170.440508
  51
174.593866
  8
XTRKCAD17
  6
CONTINUOUS
  0
ARC
  10
-57.269708
  20
89.501997
  40
63.229046
  50
350.434099
  51
354.307187
  8
XTRKCAD17
  6
DASHED
  0
ARC
  10
-57.269708
  20
89.501997
  40
63.553846
  50
350.434099
  51
354.307187
  8
XTRKCAD17
  6
CONTINUOUS
  0
ARC
  10
-57.269708
  20
89.501997
  40
62.904246
  50
350.434099
  51
354.307187
  8
XTRKCAD17
  6
CONTINUOUS
  0
ARC
  10
-42.254673
  20
87.043418
  40
48.053718
  50
355.448365
  51
360.544403
  8
XTRKCAD17
  6
DASHED
  0
ARC
  10
-42.254673
  20
87.043418
  40
48.378518
  50
355.448365
  51
360.544403
  8
XTRKCAD17
  6
CONTINUOUS
  0
ARC
  10
-42.254673
  20
87.043418
  40
47.728918
  50
355.448365
  51
360.544403
  8
XTRKCAD17
  6
CONTINUOUS
  0
ENDSEC
  0
EOF
